<svg width="104" height="106" viewBox="20 20 104 106" fill="none" xmlns="http://www.w3.org/2000/svg">
<path fill-rule="evenodd" clip-rule="evenodd" d="M71.999 123.7C78.4431 123.7 84.6118 122.521 90.3013 120.367C93.6012 123.779 98.2271 125.9 103.349 125.9C113.372 125.9 121.498 117.774 121.498 107.75C121.498 103.481 120.025 99.557 117.559 96.4577C121.476 89.1761 123.698 80.8476 123.698 72C123.698 43.4469 100.552 20.3 71.999 20.3C43.4463 20.3 20.2998 43.4469 20.2998 72C20.2998 100.553 43.4463 123.7 71.999 123.7ZM86.1839 113.663C81.7333 115.178 76.9621 116 71.999 116C47.6989 116 27.9997 96.3004 27.9997 71.9999C27.9997 47.6994 47.6989 28 71.999 28C96.2992 28 115.998 47.6994 115.998 71.9999C115.998 79.004 114.362 85.6259 111.45 91.504C109.012 90.2855 106.26 89.5999 103.349 89.5999C93.3247 89.5999 85.1988 97.7259 85.1988 107.75C85.1988 109.82 85.5454 111.81 86.1839 113.663Z" fill="url(#paint0_linear_508_7745)"/>
<mask id="mask0_508_7745" style="mask-type:luminance" maskUnits="userSpaceOnUse" x="20" y="20" width="104" height="106">
<path fill-rule="evenodd" clip-rule="evenodd" d="M71.999 123.7C78.4431 123.7 84.6118 122.521 90.3013 120.367C93.6012 123.779 98.2271 125.9 103.349 125.9C113.372 125.9 121.498 117.774 121.498 107.75C121.498 103.481 120.025 99.557 117.559 96.4577C121.476 89.1761 123.698 80.8476 123.698 72C123.698 43.4469 100.552 20.3 71.999 20.3C43.4463 20.3 20.2998 43.4469 20.2998 72C20.2998 100.553 43.4463 123.7 71.999 123.7ZM86.1839 113.663C81.7333 115.178 76.9621 116 71.999 116C47.6989 116 27.9997 96.3004 27.9997 71.9999C27.9997 47.6994 47.6989 28 71.999 28C96.2992 28 115.998 47.6994 115.998 71.9999C115.998 79.004 114.362 85.6259 111.45 91.504C109.012 90.2855 106.26 89.5999 103.349 89.5999C93.3247 89.5999 85.1988 97.7259 85.1988 107.75C85.1988 109.82 85.5454 111.81 86.1839 113.663Z" fill="white"/>
</mask>
<g mask="url(#mask0_508_7745)">
<g opacity="0.12" style="mix-blend-mode:multiply">
<path d="M68.149 45.9306L87.5406 26.3884" stroke="#78A2A9" stroke-width="3.30183" stroke-linecap="round"/>
</g>
<g opacity="0.12" style="mix-blend-mode:multiply">
<path d="M7.09998 77.5236L26.4916 57.9814" stroke="#78A2A9" stroke-width="3.30183" stroke-linecap="round"/>
</g>
<g opacity="0.12" style="mix-blend-mode:multiply">
<path d="M79.6989 40.9423L99.0905 21.4001" stroke="#78A2A9" stroke-width="3.30183" stroke-linecap="round"/>
</g>
<g opacity="0.12" style="mix-blend-mode:multiply">
<path d="M18.6498 72.5353L38.0414 52.9932" stroke="#78A2A9" stroke-width="3.30183" stroke-linecap="round"/>
</g>
<g opacity="0.12" style="mix-blend-mode:multiply">
<path d="M46.6994 92.4887L66.091 72.9465" stroke="#78A2A9" stroke-width="3.30183" stroke-linecap="round"/>
</g>
<g opacity="0.12" style="mix-blend-mode:multiply">
<path d="M76.3989 64.2214L95.7905 44.6792" stroke="#78A2A9" stroke-width="3.30183" stroke-linecap="round"/>
</g>
<g opacity="0.12" style="mix-blend-mode:multiply">
<path d="M90.1487 89.9306L109.54 70.3884" stroke="#78A2A9" stroke-width="3.30183" stroke-linecap="round"/>
</g>
<g opacity="0.12" style="mix-blend-mode:multiply">
<path d="M23.5997 121.524L42.9913 101.981" stroke="#78A2A9" stroke-width="3.30183" stroke-linecap="round"/>
</g>
<g opacity="0.12" style="mix-blend-mode:multiply">
<path d="M118.198 101.442L137.59 81.8999" stroke="#78A2A9" stroke-width="3.30183" stroke-linecap="round"/>
</g>
<g opacity="0.12" style="mix-blend-mode:multiply">
<path d="M38.4495 116.535L57.8411 96.9929" stroke="#78A2A9" stroke-width="3.30183" stroke-linecap="round"/>
</g>
<g opacity="0.12" style="mix-blend-mode:multiply">
<path d="M74.199 132.242L93.5906 112.7" stroke="#78A2A9" stroke-width="3.30183" stroke-linecap="round"/>
</g>
<g opacity="0.12" style="mix-blend-mode:multiply">
<path d="M75.299 138.842L94.6905 119.3" stroke="#78A2A9" stroke-width="3.30183" stroke-linecap="round"/>
</g>
<g opacity="0.12" style="mix-blend-mode:multiply">
<path d="M112.698 99.2421L132.09 79.7" stroke="#78A2A9" stroke-width="3.30183" stroke-linecap="round"/>
</g>
<g opacity="0.12" style="mix-blend-mode:multiply">
<path d="M95.0986 95.9423L114.49 76.4001" stroke="#78A2A9" stroke-width="3.30183" stroke-linecap="round"/>
</g>
</g>
<g opacity="0.12" style="mix-blend-mode:lighten">
<path d="M30.252 89.0943C36.9873 105.526 53.1415 117.1 71.9989 117.1C74.6757 117.1 77.2981 116.867 79.8468 116.419" stroke="white" stroke-width="2.2" stroke-linecap="round"/>
</g>
<g opacity="0.12" style="mix-blend-mode:lighten">
<path d="M113.491 89.7034C115.308 85.4499 116.49 80.8603 116.919 76.0538" stroke="white" stroke-width="2.2" stroke-linecap="round"/>
</g>
<path opacity="0.4" d="M48.856 110.717C55.6218 114.77 63.5383 117.1 71.9989 117.1" stroke="white" stroke-width="2.20122" stroke-linecap="round" stroke-linejoin="round"/>
<path opacity="0.2" d="M113.063 53.3273C105.963 37.7375 90.2467 26.8999 71.9989 26.8999C53.7512 26.8999 38.0346 37.7375 30.9345 53.3273" stroke="#64788F" stroke-width="2.20122" stroke-linecap="round" stroke-linejoin="round"/>
<path opacity="0.2" d="M48.856 33.2827C55.6218 29.2297 63.5383 26.8999 71.9989 26.8999C80.4595 26.8999 88.376 29.2297 95.1418 33.2827" stroke="#64788F" stroke-width="2.20122" stroke-linecap="round" stroke-linejoin="round"/>
<path opacity="0.4" d="M122.598 71.9998C122.598 44.0542 99.9443 21.3999 71.9991 21.3999C44.0539 21.3999 21.3999 44.0542 21.3999 71.9998" stroke="white" stroke-width="2.20122" stroke-linecap="round" stroke-linejoin="round"/>
<path opacity="0.4" d="M98.5766 124.084C101.98 125.102 105.408 125.259 109.023 124.015C114.396 122.164 118.003 117.744 119.684 112.744" stroke="#64788F" stroke-width="2.20122" stroke-linecap="round" stroke-linejoin="round"/>
<path opacity="0.4" d="M31.925 102.551C41.2132 114.744 55.7941 122.6 72.189 122.6" stroke="#64788F" stroke-width="2.20122" stroke-linecap="round" stroke-linejoin="round"/>
<path opacity="0.4" d="M103.349 90.6997C93.9323 90.6997 86.2988 98.3332 86.2988 107.75" stroke="white" stroke-width="2.20122" stroke-linecap="round" stroke-linejoin="round"/>
<g filter="url(#filter0_d_508_7745)">
<path fill-rule="evenodd" clip-rule="evenodd" d="M102.625 99.4538C102.992 98.9817 103.706 98.9817 104.073 99.4538L110.087 107.187C110.345 107.518 110.345 107.982 110.087 108.313L104.073 116.046C103.706 116.518 102.992 116.518 102.625 116.046L96.6103 108.313C96.3527 107.982 96.3527 107.518 96.6103 107.187L102.625 99.4538Z" fill="black" fill-opacity="0.01"/>
</g>
<g filter="url(#filter1_i_508_7745)">
<path fill-rule="evenodd" clip-rule="evenodd" d="M102.625 99.4538C102.992 98.9817 103.706 98.9817 104.073 99.4538L110.087 107.187C110.345 107.518 110.345 107.982 110.087 108.313L104.073 116.046C103.706 116.518 102.992 116.518 102.625 116.046L96.6103 108.313C96.3527 107.982 96.3527 107.518 96.6103 107.187L102.625 99.4538Z" fill="url(#paint1_linear_508_7745)"/>
</g>
<path fill-rule="evenodd" clip-rule="evenodd" d="M102.625 99.4538C102.992 98.9817 103.706 98.9817 104.073 99.4538L110.087 107.187C110.345 107.518 110.345 107.982 110.087 108.313L104.073 116.046C103.706 116.518 102.992 116.518 102.625 116.046L96.6103 108.313C96.3527 107.982 96.3527 107.518 96.6103 107.187L102.625 99.4538Z" stroke="#E1EAF6" stroke-width="2.20122" stroke-linecap="round" stroke-linejoin="round"/>
<defs>
<filter id="filter0_d_508_7745" x="94.4171" y="99.0997" width="17.8633" height="21.3003" filterUnits="userSpaceOnUse" color-interpolation-filters="sRGB">
<feFlood flood-opacity="0" result="BackgroundImageFix"/>
<feColorMatrix in="SourceAlpha" type="matrix" values="0 0 0 0 0 0 0 0 0 0 0 0 0 0 0 0 0 0 127 0" result="hardAlpha"/>
<feOffset dy="2"/>
<feGaussianBlur stdDeviation="1"/>
<feColorMatrix type="matrix" values="0 0 0 0 0.0196078 0 0 0 0 0.443137 0 0 0 0 0.643137 0 0 0 0.2 0"/>
<feBlend mode="normal" in2="BackgroundImageFix" result="effect1_dropShadow_508_7745"/>
<feBlend mode="normal" in="SourceGraphic" in2="effect1_dropShadow_508_7745" result="shape"/>
</filter>
<filter id="filter1_i_508_7745" x="95.3165" y="97.9991" width="16.0645" height="21.5015" filterUnits="userSpaceOnUse" color-interpolation-filters="sRGB">
<feFlood flood-opacity="0" result="BackgroundImageFix"/>
<feBlend mode="normal" in="SourceGraphic" in2="BackgroundImageFix" result="shape"/>
<feColorMatrix in="SourceAlpha" type="matrix" values="0 0 0 0 0 0 0 0 0 0 0 0 0 0 0 0 0 0 127 0" result="hardAlpha"/>
<feOffset dy="2"/>
<feGaussianBlur stdDeviation="1"/>
<feComposite in2="hardAlpha" operator="arithmetic" k2="-1" k3="1"/>
<feColorMatrix type="matrix" values="0 0 0 0 0.478431 0 0 0 0 0.537255 0 0 0 0 0.623529 0 0 0 1 0"/>
<feBlend mode="normal" in2="shape" result="effect1_innerShadow_508_7745"/>
</filter>
<linearGradient id="paint0_linear_508_7745" x1="20.2998" y1="20.3" x2="20.2998" y2="125.9" gradientUnits="userSpaceOnUse">
<stop stop-color="#C6D1E4"/>
<stop offset="1" stop-color="#A4B1C4"/>
</linearGradient>
<linearGradient id="paint1_linear_508_7745" x1="96.1724" y1="98.5229" x2="96.1724" y2="116.977" gradientUnits="userSpaceOnUse">
<stop stop-color="#A3B0C5"/>
<stop offset="1" stop-color="#7A8AA1"/>
</linearGradient>
</defs>
</svg>
