<svg width="115" height="108" viewBox="14.5 19.5 114.5 107.5" fill="none" xmlns="http://www.w3.org/2000/svg">
<mask id="mask0_508_7750" style="mask-type:luminance" maskUnits="userSpaceOnUse" x="13" y="16" width="116" height="75">
<path fill-rule="evenodd" clip-rule="evenodd" d="M129 16.1001H13V90.1001H31.8833C29.3886 84.5795 28 78.452 28 72.0002C28 47.6997 47.6995 28.0002 72 28.0002C96.3005 28.0002 116 47.6997 116 72.0002C116 78.452 114.611 84.5795 112.117 90.1001H129V16.1001Z" fill="white"/>
</mask>
<g mask="url(#mask0_508_7750)">
<path fill-rule="evenodd" clip-rule="evenodd" d="M116.024 47.5676C116.024 46.581 116.623 45.6932 117.537 45.3237L126.104 41.8631C127.058 41.4776 128.1 42.1801 128.1 43.2094V80.8897C128.1 81.8762 127.501 82.764 126.586 83.1335L116.024 87.4004V47.5676Z" fill="url(#paint0_linear_508_7750)" stroke="url(#paint1_linear_508_7750)" stroke-width="2.42" stroke-linecap="round" stroke-linejoin="round"/>
<mask id="mask1_508_7750" style="mask-type:luminance" maskUnits="userSpaceOnUse" x="114" y="40" width="16" height="49">
<path fill-rule="evenodd" clip-rule="evenodd" d="M116.024 47.5676C116.024 46.581 116.623 45.6932 117.537 45.3237L126.104 41.8631C127.058 41.4776 128.1 42.1801 128.1 43.2094V80.8897C128.1 81.8762 127.501 82.764 126.586 83.1335L116.024 87.4004V47.5676Z" fill="white" stroke="white" stroke-width="2.42" stroke-linecap="round" stroke-linejoin="round"/>
</mask>
<g mask="url(#mask1_508_7750)">
<g opacity="0.6" filter="url(#filter0_i_508_7750)" style="mix-blend-mode:multiply">
<path d="M117.231 62.6024L130.979 56.8173C131.595 56.5583 131.886 55.8442 131.63 55.2225C131.373 54.6008 130.666 54.3068 130.051 54.5658L115.559 60.6636C115.109 60.853 117.231 62.6024 117.231 62.6024Z" fill="#FABC10"/>
</g>
<g opacity="0.6" filter="url(#filter1_i_508_7750)" style="mix-blend-mode:multiply">
<path d="M114.816 77.2372L128.564 71.4521C129.18 71.193 129.471 70.479 129.215 69.8573C128.958 69.2355 128.251 68.9415 127.635 69.2006L113.144 75.2984C112.694 75.4878 114.816 77.2372 114.816 77.2372Z" fill="#FABC10"/>
</g>
<g opacity="0.2">
<circle cx="55" cy="55" r="55" transform="matrix(-1 0 0 1 126.585 18.5859)" fill="#A4053A" fill-opacity="0.2" style="mix-blend-mode:multiply"/>
</g>
</g>
<path fill-rule="evenodd" clip-rule="evenodd" d="M27.976 47.5676C27.976 46.581 27.3771 45.6932 26.4624 45.3237L17.8958 41.8631C16.9413 41.4776 15.8999 42.1801 15.8999 43.2094V80.8897C15.8999 81.8762 16.4988 82.764 17.4135 83.1335L27.976 87.4004V47.5676Z" fill="url(#paint2_linear_508_7750)" stroke="url(#paint3_linear_508_7750)" stroke-width="2.42" stroke-linecap="round" stroke-linejoin="round"/>
<mask id="mask2_508_7750" style="mask-type:luminance" maskUnits="userSpaceOnUse" x="14" y="40" width="16" height="49">
<path fill-rule="evenodd" clip-rule="evenodd" d="M27.976 47.5676C27.976 46.581 27.3771 45.6932 26.4624 45.3237L17.8958 41.8631C16.9413 41.4776 15.8999 42.1801 15.8999 43.2094V80.8897C15.8999 81.8762 16.4988 82.764 17.4135 83.1335L27.976 87.4004V47.5676Z" fill="white" stroke="white" stroke-width="2.42" stroke-linecap="round" stroke-linejoin="round"/>
</mask>
<g mask="url(#mask2_508_7750)">
<g opacity="0.6" filter="url(#filter2_i_508_7750)" style="mix-blend-mode:multiply">
<path d="M26.7685 62.6024L13.0203 56.8173C12.4047 56.5583 12.1135 55.8442 12.3701 55.2225C12.6266 54.6008 13.3336 54.3068 13.9492 54.5658L28.4405 60.6636C28.8906 60.853 26.7685 62.6024 26.7685 62.6024Z" fill="#FABC10"/>
</g>
<g opacity="0.6" filter="url(#filter3_i_508_7750)" style="mix-blend-mode:multiply">
<path d="M29.1835 77.2372L15.4354 71.4521C14.8197 71.193 14.5286 70.479 14.7851 69.8573C15.0416 69.2355 15.7486 68.9415 16.3643 69.2006L30.8556 75.2984C31.3056 75.4878 29.1835 77.2372 29.1835 77.2372Z" fill="#FABC10"/>
</g>
<g opacity="0.2">
<circle cx="72" cy="73.5859" r="55" fill="#A4053A" fill-opacity="0.2" style="mix-blend-mode:multiply"/>
</g>
</g>
<path fill-rule="evenodd" clip-rule="evenodd" d="M105.263 23.5171C105.263 21.9067 103.719 20.7455 102.172 21.192L71.45 30.0567L40.7279 21.192C39.1806 20.7455 37.637 21.9067 37.637 23.5171V59.3454C37.637 60.6819 38.7204 61.7654 40.057 61.7654H102.843C104.18 61.7654 105.263 60.6819 105.263 59.3454V23.5171Z" fill="url(#paint4_linear_508_7750)" stroke="url(#paint5_linear_508_7750)" stroke-width="2.42" stroke-linecap="round" stroke-linejoin="round"/>
</g>
<path fill-rule="evenodd" clip-rule="evenodd" d="M72 123.7C78.6732 123.7 85.051 122.436 90.9071 120.134L101.7 126.365C102.381 126.758 103.219 126.758 103.9 126.365L116.942 118.835C117.623 118.442 118.042 117.716 118.042 116.93V101.87C118.042 101.084 117.623 100.358 116.942 99.965L115.88 99.352C120.836 91.4183 123.7 82.0436 123.7 72C123.7 43.4469 100.553 20.3 72 20.3C43.4469 20.3 20.3 43.4469 20.3 72C20.3 100.553 43.4469 123.7 72 123.7ZM72 119.3C77.4504 119.3 82.6855 118.378 87.5579 116.682V116.682C82.6855 118.378 77.4504 119.3 72 119.3C45.8769 119.3 24.7 98.123 24.7 72C24.7 72 24.7 72.0002 24.7 72.0002C24.7 98.1233 45.8769 119.3 72 119.3ZM87.5579 113.171C82.721 114.999 77.4774 116 72 116C47.6995 116 28 96.3008 28 72.0002C28 47.6997 47.6995 28.0002 72 28.0002C96.3005 28.0002 116 47.6997 116 72.0002C116 80.6411 113.509 88.7003 109.206 95.4988L103.9 92.4351C103.219 92.0421 102.381 92.0421 101.7 92.4351L88.6579 99.965C87.9772 100.358 87.5579 101.084 87.5579 101.87V113.171ZM112.067 97.1502L112.067 97.1503C114.931 92.5971 117.04 87.5213 118.22 82.0984C117.04 87.5213 114.931 92.597 112.067 97.1502Z" fill="url(#paint6_linear_508_7750)"/>
<mask id="mask3_508_7750" style="mask-type:luminance" maskUnits="userSpaceOnUse" x="20" y="20" width="104" height="107">
<path fill-rule="evenodd" clip-rule="evenodd" d="M72 123.7C78.6732 123.7 85.051 122.436 90.9071 120.134L101.7 126.365C102.381 126.758 103.219 126.758 103.9 126.365L116.942 118.835C117.623 118.442 118.042 117.716 118.042 116.93V101.87C118.042 101.084 117.623 100.358 116.942 99.965L115.88 99.352C120.836 91.4183 123.7 82.0436 123.7 72C123.7 43.4469 100.553 20.3 72 20.3C43.4469 20.3 20.3 43.4469 20.3 72C20.3 100.553 43.4469 123.7 72 123.7ZM72 119.3C77.4504 119.3 82.6855 118.378 87.5579 116.682V116.682C82.6855 118.378 77.4504 119.3 72 119.3C45.8769 119.3 24.7 98.123 24.7 72C24.7 72 24.7 72.0002 24.7 72.0002C24.7 98.1233 45.8769 119.3 72 119.3ZM87.5579 113.171C82.721 114.999 77.4774 116 72 116C47.6995 116 28 96.3008 28 72.0002C28 47.6997 47.6995 28.0002 72 28.0002C96.3005 28.0002 116 47.6997 116 72.0002C116 80.6411 113.509 88.7003 109.206 95.4988L103.9 92.4351C103.219 92.0421 102.381 92.0421 101.7 92.4351L88.6579 99.965C87.9772 100.358 87.5579 101.084 87.5579 101.87V113.171ZM112.067 97.1502L112.067 97.1503C114.931 92.5971 117.04 87.5213 118.22 82.0984C117.04 87.5213 114.931 92.597 112.067 97.1502Z" fill="white"/>
</mask>
<g mask="url(#mask3_508_7750)">
<g opacity="0.3" style="mix-blend-mode:multiply">
<path fill-rule="evenodd" clip-rule="evenodd" d="M88 12L72.0001 71.9997L72.0001 71.9998L103.113 18.2598L125.74 40.8872L72.0003 72L132 56V88L72 72L72.0001 71.9999L72 71.9999L72 72L72 71.9998L18.2601 40.8873L40.8876 18.2599L71.9998 71.9992L56 12H88ZM72 72L88 132H56L72 72ZM72 72L40.8874 125.74L18.26 103.113L72 72ZM72 72L12 56V88L72 72Z" fill="#FFD640"/>
</g>
</g>
<path d="M31.9255 102.551C41.2139 114.744 55.795 122.6 72.1902 122.6C75.0126 122.6 77.7812 122.367 80.4784 121.92" stroke="url(#paint7_linear_508_7750)" stroke-width="2.31" stroke-linecap="round" stroke-linejoin="round"/>
<path opacity="0.4" d="M122.6 71.9999C122.6 44.0543 99.9457 21.3999 72.0001 21.3999C44.0545 21.3999 21.4001 44.0543 21.4001 71.9999" stroke="white" stroke-width="2.2" stroke-linecap="round" stroke-linejoin="round"/>
<path opacity="0.4" d="M107.556 95.9369C106.248 95.1817 103.632 93.6713 103.632 93.6713C103.121 93.3765 102.493 93.3765 101.982 93.6713C100.448 94.5568 99.3613 95.1843 98.7215 95.5537C97.3899 96.3225 96.3031 96.95 95.461 97.4362C94.0118 98.2728 91.8382 99.5278 88.9399 101.201" stroke="white" stroke-width="2.2" stroke-linecap="round"/>
<path opacity="0.4" d="M117.1 110.06V117.009C117.1 117.405 116.887 117.771 116.543 117.966L103.632 125.29C103.121 125.585 102.492 125.585 101.982 125.29C100.448 124.404 99.3613 123.777 98.7214 123.407C97.3899 122.639 96.3031 122.011 95.4609 121.525" stroke="#FDB115" stroke-width="2.2" stroke-linecap="round" stroke-linejoin="round"/>
<path d="M101.982 93.6711C100.448 94.5567 99.3612 95.1842 98.7214 95.5536" stroke="white" stroke-width="2.2" stroke-linecap="round"/>
<path opacity="0.2" d="M29.2078 86.2811C35.1816 104.19 52.0831 117.1 71.9999 117.1C74.6768 117.1 77.2992 116.867 79.8479 116.42" stroke="#EDAA2F" stroke-width="2.2" stroke-linecap="round" stroke-linejoin="round"/>
<path opacity="0.6" d="M48.8567 110.717C55.6226 114.77 63.5392 117.1 72 117.1" stroke="white" stroke-width="2.2" stroke-linecap="round" stroke-linejoin="round"/>
<path opacity="0.2" d="M30.5029 54.3065C37.3821 38.1932 53.3722 26.8999 71.9999 26.8999C90.6277 26.8999 106.618 38.1932 113.497 54.3065" stroke="#DA731B" stroke-width="2.2" stroke-linecap="round" stroke-linejoin="round"/>
<path opacity="0.2" d="M48.8567 33.2828C55.6226 29.2297 63.5392 26.8999 72 26.8999C80.4607 26.8999 88.3774 29.2297 95.1433 33.2828" stroke="#DA731B" stroke-width="2.2" stroke-linecap="round" stroke-linejoin="round"/>
<g filter="url(#filter4_d_508_7750)">
<path fill-rule="evenodd" clip-rule="evenodd" d="M102.25 100.05L110.5 109.4L102.25 118.75L94 109.4L102.25 100.05Z" fill="black" fill-opacity="0.01"/>
</g>
<g filter="url(#filter5_i_508_7750)">
<path fill-rule="evenodd" clip-rule="evenodd" d="M102.25 100.05L110.5 109.4L102.25 118.75L94 109.4L102.25 100.05Z" fill="url(#paint8_linear_508_7750)"/>
</g>
<path fill-rule="evenodd" clip-rule="evenodd" d="M102.25 100.05L110.5 109.4L102.25 118.75L94 109.4L102.25 100.05Z" stroke="white" stroke-width="2.2" stroke-linecap="round" stroke-linejoin="round"/>
<path fill-rule="evenodd" clip-rule="evenodd" d="M102.25 100.985L109.583 109.4L102.25 117.815L94.9167 109.4L102.25 100.985Z" fill="#009EF7"/>
<path fill-rule="evenodd" clip-rule="evenodd" d="M102.25 100.985L99.631 109.4H94.9167L102.25 100.985Z" fill="url(#paint9_linear_508_7750)"/>
<path fill-rule="evenodd" clip-rule="evenodd" d="M102.25 100.985L99.6309 109.4H104.869L102.25 100.985Z" fill="url(#paint10_linear_508_7750)"/>
<path fill-rule="evenodd" clip-rule="evenodd" d="M102.25 100.985L109.583 109.4H104.869L102.25 100.985Z" fill="url(#paint11_linear_508_7750)"/>
<path fill-rule="evenodd" clip-rule="evenodd" d="M102.25 117.815L99.631 109.4H94.9167L102.25 117.815Z" fill="url(#paint12_linear_508_7750)"/>
<path fill-rule="evenodd" clip-rule="evenodd" d="M102.25 117.815L99.6309 109.4H104.869L102.25 117.815Z" fill="url(#paint13_linear_508_7750)"/>
<path fill-rule="evenodd" clip-rule="evenodd" d="M102.25 117.815L109.583 109.4H104.869L102.25 117.815Z" fill="url(#paint14_linear_508_7750)"/>
<g filter="url(#filter6_d_508_7750)">
<path fill-rule="evenodd" clip-rule="evenodd" d="M88.2351 104.065L87.7591 103.877C87.4679 103.762 87.325 103.433 87.4398 103.142C87.4974 102.996 87.613 102.881 87.7591 102.823L88.2351 102.635C88.7841 102.419 89.2187 101.984 89.4352 101.435L89.623 100.959C89.7378 100.668 90.0669 100.525 90.3581 100.64C90.5041 100.697 90.6197 100.813 90.6773 100.959L90.8651 101.435C91.0816 101.984 91.5162 102.419 92.0652 102.635L92.5412 102.823C92.8324 102.938 92.9753 103.267 92.8605 103.558C92.8029 103.704 92.6873 103.82 92.5412 103.877L92.0652 104.065C91.5162 104.282 91.0816 104.716 90.8651 105.265L90.6773 105.741C90.5625 106.032 90.2334 106.175 89.9422 106.06C89.7962 106.003 89.6806 105.887 89.623 105.741L89.4352 105.265C89.2187 104.716 88.7841 104.282 88.2351 104.065Z" fill="white"/>
</g>
<g filter="url(#filter7_d_508_7750)">
<path fill-rule="evenodd" clip-rule="evenodd" d="M114.802 101.458L114.231 101.233C113.881 101.095 113.71 100.7 113.848 100.351C113.917 100.175 114.056 100.037 114.231 99.9674L114.802 99.7421C115.461 99.4823 115.982 98.9608 116.242 98.302L116.467 97.7308C116.605 97.3814 117 97.2099 117.35 97.3477C117.525 97.4168 117.664 97.5555 117.733 97.7308L117.958 98.302C118.218 98.9608 118.739 99.4823 119.398 99.7421L119.969 99.9674C120.319 100.105 120.49 100.5 120.352 100.85C120.283 101.025 120.145 101.164 119.969 101.233L119.398 101.458C118.739 101.718 118.218 102.239 117.958 102.898L117.733 103.469C117.595 103.819 117.2 103.99 116.851 103.852C116.675 103.783 116.537 103.645 116.467 103.469L116.242 102.898C115.982 102.239 115.461 101.718 114.802 101.458Z" fill="white"/>
</g>
<g filter="url(#filter8_d_508_7750)">
<path fill-rule="evenodd" clip-rule="evenodd" d="M87.302 120.158L86.7308 119.933C86.3814 119.795 86.2099 119.4 86.3477 119.05C86.4168 118.875 86.5555 118.737 86.7308 118.667L87.302 118.442C87.9608 118.182 88.4823 117.661 88.7421 117.002L88.9674 116.431C89.1052 116.081 89.5002 115.91 89.8496 116.048C90.0248 116.117 90.1635 116.255 90.2327 116.431L90.458 117.002C90.7178 117.661 91.2393 118.182 91.8981 118.442L92.4693 118.667C92.8187 118.805 92.9902 119.2 92.8524 119.55C92.7833 119.725 92.6446 119.863 92.4693 119.933L91.8981 120.158C91.2393 120.418 90.7178 120.939 90.458 121.598L90.2327 122.169C90.0949 122.519 89.6999 122.69 89.3505 122.552C89.1753 122.483 89.0366 122.345 88.9674 122.169L88.7421 121.598C88.4823 120.939 87.9608 120.418 87.302 120.158Z" fill="white"/>
</g>
<g filter="url(#filter9_d_508_7750)">
<path fill-rule="evenodd" clip-rule="evenodd" d="M113.201 118.079L112.915 117.966C112.741 117.897 112.655 117.7 112.724 117.525C112.758 117.438 112.828 117.368 112.915 117.334L113.201 117.221C113.53 117.091 113.791 116.83 113.921 116.501L114.034 116.215C114.103 116.041 114.3 115.955 114.475 116.024C114.562 116.058 114.632 116.128 114.666 116.215L114.779 116.501C114.909 116.83 115.17 117.091 115.499 117.221L115.785 117.334C115.959 117.403 116.045 117.6 115.976 117.775C115.942 117.862 115.872 117.932 115.785 117.966L115.499 118.079C115.17 118.209 114.909 118.47 114.779 118.799L114.666 119.085C114.597 119.259 114.4 119.345 114.225 119.276C114.138 119.242 114.068 119.172 114.034 119.085L113.921 118.799C113.791 118.47 113.53 118.209 113.201 118.079Z" fill="white"/>
</g>
<defs>
<filter id="filter0_i_508_7750" x="115.497" y="54.4717" width="16.2263" height="10.1307" filterUnits="userSpaceOnUse" color-interpolation-filters="sRGB">
<feFlood flood-opacity="0" result="BackgroundImageFix"/>
<feBlend mode="normal" in="SourceGraphic" in2="BackgroundImageFix" result="shape"/>
<feColorMatrix in="SourceAlpha" type="matrix" values="0 0 0 0 0 0 0 0 0 0 0 0 0 0 0 0 0 0 127 0" result="hardAlpha"/>
<feOffset dy="2"/>
<feGaussianBlur stdDeviation="1"/>
<feComposite in2="hardAlpha" operator="arithmetic" k2="-1" k3="1"/>
<feColorMatrix type="matrix" values="0 0 0 0 0.976471 0 0 0 0 0.713726 0 0 0 0 0.0352941 0 0 0 1 0"/>
<feBlend mode="normal" in2="shape" result="effect1_innerShadow_508_7750"/>
</filter>
<filter id="filter1_i_508_7750" x="113.082" y="69.1064" width="16.2263" height="10.1307" filterUnits="userSpaceOnUse" color-interpolation-filters="sRGB">
<feFlood flood-opacity="0" result="BackgroundImageFix"/>
<feBlend mode="normal" in="SourceGraphic" in2="BackgroundImageFix" result="shape"/>
<feColorMatrix in="SourceAlpha" type="matrix" values="0 0 0 0 0 0 0 0 0 0 0 0 0 0 0 0 0 0 127 0" result="hardAlpha"/>
<feOffset dy="2"/>
<feGaussianBlur stdDeviation="1"/>
<feComposite in2="hardAlpha" operator="arithmetic" k2="-1" k3="1"/>
<feColorMatrix type="matrix" values="0 0 0 0 0.976471 0 0 0 0 0.713726 0 0 0 0 0.0352941 0 0 0 1 0"/>
<feBlend mode="normal" in2="shape" result="effect1_innerShadow_508_7750"/>
</filter>
<filter id="filter2_i_508_7750" x="12.2769" y="54.4717" width="16.2263" height="10.1307" filterUnits="userSpaceOnUse" color-interpolation-filters="sRGB">
<feFlood flood-opacity="0" result="BackgroundImageFix"/>
<feBlend mode="normal" in="SourceGraphic" in2="BackgroundImageFix" result="shape"/>
<feColorMatrix in="SourceAlpha" type="matrix" values="0 0 0 0 0 0 0 0 0 0 0 0 0 0 0 0 0 0 127 0" result="hardAlpha"/>
<feOffset dy="2"/>
<feGaussianBlur stdDeviation="1"/>
<feComposite in2="hardAlpha" operator="arithmetic" k2="-1" k3="1"/>
<feColorMatrix type="matrix" values="0 0 0 0 0.976471 0 0 0 0 0.713726 0 0 0 0 0.0352941 0 0 0 1 0"/>
<feBlend mode="normal" in2="shape" result="effect1_innerShadow_508_7750"/>
</filter>
<filter id="filter3_i_508_7750" x="14.6919" y="69.1064" width="16.2263" height="10.1307" filterUnits="userSpaceOnUse" color-interpolation-filters="sRGB">
<feFlood flood-opacity="0" result="BackgroundImageFix"/>
<feBlend mode="normal" in="SourceGraphic" in2="BackgroundImageFix" result="shape"/>
<feColorMatrix in="SourceAlpha" type="matrix" values="0 0 0 0 0 0 0 0 0 0 0 0 0 0 0 0 0 0 127 0" result="hardAlpha"/>
<feOffset dy="2"/>
<feGaussianBlur stdDeviation="1"/>
<feComposite in2="hardAlpha" operator="arithmetic" k2="-1" k3="1"/>
<feColorMatrix type="matrix" values="0 0 0 0 0.976471 0 0 0 0 0.713726 0 0 0 0 0.0352941 0 0 0 1 0"/>
<feBlend mode="normal" in2="shape" result="effect1_innerShadow_508_7750"/>
</filter>
<filter id="filter4_d_508_7750" x="92" y="100.05" width="20.5" height="22.7" filterUnits="userSpaceOnUse" color-interpolation-filters="sRGB">
<feFlood flood-opacity="0" result="BackgroundImageFix"/>
<feColorMatrix in="SourceAlpha" type="matrix" values="0 0 0 0 0 0 0 0 0 0 0 0 0 0 0 0 0 0 127 0" result="hardAlpha"/>
<feOffset dy="2"/>
<feGaussianBlur stdDeviation="1"/>
<feColorMatrix type="matrix" values="0 0 0 0 0.996078 0 0 0 0 0.733333 0 0 0 0 0.105882 0 0 0 1 0"/>
<feBlend mode="normal" in2="BackgroundImageFix" result="effect1_dropShadow_508_7750"/>
<feBlend mode="normal" in="SourceGraphic" in2="effect1_dropShadow_508_7750" result="shape"/>
</filter>
<filter id="filter5_i_508_7750" x="92.9" y="98.9501" width="18.7" height="22.9" filterUnits="userSpaceOnUse" color-interpolation-filters="sRGB">
<feFlood flood-opacity="0" result="BackgroundImageFix"/>
<feBlend mode="normal" in="SourceGraphic" in2="BackgroundImageFix" result="shape"/>
<feColorMatrix in="SourceAlpha" type="matrix" values="0 0 0 0 0 0 0 0 0 0 0 0 0 0 0 0 0 0 127 0" result="hardAlpha"/>
<feOffset dy="2"/>
<feGaussianBlur stdDeviation="1"/>
<feComposite in2="hardAlpha" operator="arithmetic" k2="-1" k3="1"/>
<feColorMatrix type="matrix" values="0 0 0 0 0.927748 0 0 0 0 0.568655 0 0 0 0 0 0 0 0 1 0"/>
<feBlend mode="normal" in2="shape" result="effect1_innerShadow_508_7750"/>
</filter>
<filter id="filter6_d_508_7750" x="85.4001" y="98.6001" width="9.5" height="9.5" filterUnits="userSpaceOnUse" color-interpolation-filters="sRGB">
<feFlood flood-opacity="0" result="BackgroundImageFix"/>
<feColorMatrix in="SourceAlpha" type="matrix" values="0 0 0 0 0 0 0 0 0 0 0 0 0 0 0 0 0 0 127 0" result="hardAlpha"/>
<feOffset/>
<feGaussianBlur stdDeviation="1"/>
<feColorMatrix type="matrix" values="0 0 0 0 1 0 0 0 0 0.94902 0 0 0 0 0.305882 0 0 0 1 0"/>
<feBlend mode="normal" in2="BackgroundImageFix" result="effect1_dropShadow_508_7750"/>
<feBlend mode="normal" in="SourceGraphic" in2="effect1_dropShadow_508_7750" result="shape"/>
</filter>
<filter id="filter7_d_508_7750" x="111.8" y="95.3" width="10.6" height="10.6" filterUnits="userSpaceOnUse" color-interpolation-filters="sRGB">
<feFlood flood-opacity="0" result="BackgroundImageFix"/>
<feColorMatrix in="SourceAlpha" type="matrix" values="0 0 0 0 0 0 0 0 0 0 0 0 0 0 0 0 0 0 127 0" result="hardAlpha"/>
<feOffset/>
<feGaussianBlur stdDeviation="1"/>
<feColorMatrix type="matrix" values="0 0 0 0 1 0 0 0 0 0.94902 0 0 0 0 0.305882 0 0 0 1 0"/>
<feBlend mode="normal" in2="BackgroundImageFix" result="effect1_dropShadow_508_7750"/>
<feBlend mode="normal" in="SourceGraphic" in2="effect1_dropShadow_508_7750" result="shape"/>
</filter>
<filter id="filter8_d_508_7750" x="84.3" y="114" width="10.6" height="10.6" filterUnits="userSpaceOnUse" color-interpolation-filters="sRGB">
<feFlood flood-opacity="0" result="BackgroundImageFix"/>
<feColorMatrix in="SourceAlpha" type="matrix" values="0 0 0 0 0 0 0 0 0 0 0 0 0 0 0 0 0 0 127 0" result="hardAlpha"/>
<feOffset/>
<feGaussianBlur stdDeviation="1"/>
<feColorMatrix type="matrix" values="0 0 0 0 1 0 0 0 0 0.94902 0 0 0 0 0.305882 0 0 0 1 0"/>
<feBlend mode="normal" in2="BackgroundImageFix" result="effect1_dropShadow_508_7750"/>
<feBlend mode="normal" in="SourceGraphic" in2="effect1_dropShadow_508_7750" result="shape"/>
</filter>
<filter id="filter9_d_508_7750" x="110.7" y="114" width="7.30005" height="7.30005" filterUnits="userSpaceOnUse" color-interpolation-filters="sRGB">
<feFlood flood-opacity="0" result="BackgroundImageFix"/>
<feColorMatrix in="SourceAlpha" type="matrix" values="0 0 0 0 0 0 0 0 0 0 0 0 0 0 0 0 0 0 127 0" result="hardAlpha"/>
<feOffset/>
<feGaussianBlur stdDeviation="1"/>
<feColorMatrix type="matrix" values="0 0 0 0 1 0 0 0 0 0.94902 0 0 0 0 0.305882 0 0 0 1 0"/>
<feBlend mode="normal" in2="BackgroundImageFix" result="effect1_dropShadow_508_7750"/>
<feBlend mode="normal" in="SourceGraphic" in2="effect1_dropShadow_508_7750" result="shape"/>
</filter>
<linearGradient id="paint0_linear_508_7750" x1="128.1" y1="41.0569" x2="128.1" y2="87.4004" gradientUnits="userSpaceOnUse">
<stop stop-color="#F7C71A"/>
<stop offset="1" stop-color="#FBAA00"/>
</linearGradient>
<linearGradient id="paint1_linear_508_7750" x1="128.1" y1="41.0569" x2="128.1" y2="87.4004" gradientUnits="userSpaceOnUse">
<stop stop-color="#FFDF6B"/>
<stop offset="1" stop-color="#F8A60A"/>
</linearGradient>
<linearGradient id="paint2_linear_508_7750" x1="15.8999" y1="41.0569" x2="15.8999" y2="87.4004" gradientUnits="userSpaceOnUse">
<stop stop-color="#F7C71A"/>
<stop offset="1" stop-color="#FBAA00"/>
</linearGradient>
<linearGradient id="paint3_linear_508_7750" x1="15.8999" y1="41.0569" x2="15.8999" y2="87.4004" gradientUnits="userSpaceOnUse">
<stop stop-color="#FFDF6B"/>
<stop offset="1" stop-color="#F8A60A"/>
</linearGradient>
<linearGradient id="paint4_linear_508_7750" x1="37.637" y1="21.1628" x2="37.637" y2="61.7654" gradientUnits="userSpaceOnUse">
<stop stop-color="#F7C71A"/>
<stop offset="1" stop-color="#FBAA00"/>
</linearGradient>
<linearGradient id="paint5_linear_508_7750" x1="37.637" y1="21.1628" x2="37.637" y2="61.7654" gradientUnits="userSpaceOnUse">
<stop stop-color="#FFDF6B"/>
<stop offset="1" stop-color="#F8A60A"/>
</linearGradient>
<linearGradient id="paint6_linear_508_7750" x1="20.3" y1="20.3" x2="20.3" y2="126.66" gradientUnits="userSpaceOnUse">
<stop stop-color="#FFD541"/>
<stop offset="1" stop-color="#FFF550"/>
</linearGradient>
<linearGradient id="paint7_linear_508_7750" x1="83.2949" y1="122.314" x2="83.0588" y2="101.069" gradientUnits="userSpaceOnUse">
<stop stop-color="#F8C417"/>
<stop offset="1" stop-color="#FFD937"/>
</linearGradient>
<linearGradient id="paint8_linear_508_7750" x1="94" y1="100.05" x2="94" y2="118.75" gradientUnits="userSpaceOnUse">
<stop stop-color="#FCA50E"/>
<stop offset="1" stop-color="#FFC823"/>
</linearGradient>
<linearGradient id="paint9_linear_508_7750" x1="94.9167" y1="100.985" x2="94.9167" y2="109.4" gradientUnits="userSpaceOnUse">
<stop stop-color="#27DEEB"/>
<stop offset="1" stop-color="#08C9FF"/>
</linearGradient>
<linearGradient id="paint10_linear_508_7750" x1="99.6309" y1="100.985" x2="99.6309" y2="109.4" gradientUnits="userSpaceOnUse">
<stop stop-color="#8AFFFF"/>
<stop offset="1" stop-color="#0DF3FF"/>
</linearGradient>
<linearGradient id="paint11_linear_508_7750" x1="102.25" y1="100.985" x2="102.25" y2="109.4" gradientUnits="userSpaceOnUse">
<stop stop-color="#27DEEB"/>
<stop offset="1" stop-color="#08C9FF"/>
</linearGradient>
<linearGradient id="paint12_linear_508_7750" x1="94.9167" y1="109.4" x2="94.9167" y2="117.815" gradientUnits="userSpaceOnUse">
<stop stop-color="#009BF6"/>
<stop offset="1" stop-color="#00B5FF"/>
</linearGradient>
<linearGradient id="paint13_linear_508_7750" x1="99.6309" y1="109.4" x2="99.6309" y2="117.815" gradientUnits="userSpaceOnUse">
<stop stop-color="#00BAF3"/>
<stop offset="1" stop-color="#11B0E2"/>
</linearGradient>
<linearGradient id="paint14_linear_508_7750" x1="102.25" y1="109.4" x2="102.25" y2="117.815" gradientUnits="userSpaceOnUse">
<stop stop-color="#009BF6"/>
<stop offset="1" stop-color="#00B5FF"/>
</linearGradient>
</defs>
</svg>
