<svg width="104" height="107" viewBox="20 20 104 107" fill="none" xmlns="http://www.w3.org/2000/svg">
<path fill-rule="evenodd" clip-rule="evenodd" d="M72 123.7C76.8212 123.7 81.4882 123.04 85.9157 121.806C89.1037 125.014 93.5199 127 98.4 127C108.12 127 116 119.12 116 109.4C116 106.669 115.378 104.084 114.268 101.778C120.21 93.3596 123.7 83.0874 123.7 72C123.7 43.4469 100.553 20.3 72 20.3C43.4469 20.3 20.3 43.4469 20.3 72C20.3 100.553 43.4469 123.7 72 123.7ZM81.6865 114.93C78.5698 115.631 75.3281 116 72.0001 116C47.6995 116 28.0001 96.3005 28.0001 72C28.0001 47.6995 47.6995 28 72.0001 28C96.3006 28 116 47.6995 116 72C116 80.6434 113.508 88.7046 109.203 95.5044C106.221 93.1828 102.472 91.8 98.4 91.8C88.6798 91.8 80.8 99.6798 80.8 109.4C80.8 111.332 81.1113 113.191 81.6865 114.93Z" fill="url(#paint0_linear_508_7744)"/>
<mask id="mask0_508_7744" style="mask-type:luminance" maskUnits="userSpaceOnUse" x="20" y="20" width="104" height="107">
<path fill-rule="evenodd" clip-rule="evenodd" d="M72 123.7C76.8212 123.7 81.4882 123.04 85.9157 121.806C89.1037 125.014 93.5199 127 98.4 127C108.12 127 116 119.12 116 109.4C116 106.669 115.378 104.084 114.268 101.778C120.21 93.3596 123.7 83.0874 123.7 72C123.7 43.4469 100.553 20.3 72 20.3C43.4469 20.3 20.3 43.4469 20.3 72C20.3 100.553 43.4469 123.7 72 123.7ZM81.6865 114.93C78.5698 115.631 75.3281 116 72.0001 116C47.6995 116 28.0001 96.3005 28.0001 72C28.0001 47.6995 47.6995 28 72.0001 28C96.3006 28 116 47.6995 116 72C116 80.6434 113.508 88.7046 109.203 95.5044C106.221 93.1828 102.472 91.8 98.4 91.8C88.6798 91.8 80.8 99.6798 80.8 109.4C80.8 111.332 81.1113 113.191 81.6865 114.93Z" fill="white"/>
</mask>
<g mask="url(#mask0_508_7744)">
<g opacity="0.2" style="mix-blend-mode:multiply">
<path d="M86.7091 106.24C88.8554 108.387 88.8552 111.867 86.7091 114.013L67.2637 133.458C65.1174 135.605 61.6374 135.605 59.4911 133.458C57.345 131.312 57.3448 127.832 59.4911 125.686L78.9365 106.24C81.0828 104.094 84.5629 104.094 86.7091 106.24Z" stroke="#EBB570" stroke-width="2.20789"/>
</g>
<g opacity="0.2" style="mix-blend-mode:multiply">
<path d="M83.6836 109.076C84.4653 109.858 84.4652 111.126 83.6836 111.907L62.4076 133.183C61.6259 133.965 60.3581 133.965 59.5764 133.183C58.7948 132.402 58.7947 131.134 59.5764 130.352L80.8524 109.076C81.6341 108.294 82.902 108.294 83.6836 109.076Z" stroke="#EBB570" stroke-width="2.20789"/>
</g>
<g opacity="0.2" style="mix-blend-mode:multiply">
<path d="M42.7091 71.0404C44.8553 73.1867 44.8551 76.6667 42.7091 78.8131L23.2636 98.2585C21.1173 100.405 17.6373 100.405 15.491 98.2585C13.3449 96.1122 13.3447 92.6321 15.491 90.4859L34.9364 71.0404C37.0827 68.8945 40.5628 68.8945 42.7091 71.0404Z" stroke="#EBB570" stroke-width="2.20789"/>
</g>
<g opacity="0.2" style="mix-blend-mode:multiply">
<path d="M39.6836 73.8761C40.4653 74.6578 40.4652 75.9256 39.6836 76.7073L18.4076 97.9833C17.6259 98.765 16.3581 98.765 15.5764 97.9833C14.7948 97.2017 14.7947 95.9338 15.5764 95.1521L36.8524 73.8761C37.6341 73.0945 38.902 73.0945 39.6836 73.8761Z" stroke="#EBB570" stroke-width="2.20789"/>
</g>
<g opacity="0.2" style="mix-blend-mode:multiply">
<path d="M97.0028 26.9322C99.1616 29.0883 99.1615 32.5873 97.0028 34.7435L51.2156 80.4741C49.0605 82.6263 45.5696 82.6257 43.4146 80.4734L34.8976 71.9674C32.7388 69.8113 32.7388 66.3122 34.8976 64.1561L80.6848 18.4269C82.8397 16.2746 86.3307 16.274 88.4857 18.4262L97.0028 26.9322Z" stroke="#EBB570" stroke-width="2.20789"/>
</g>
<g opacity="0.2" style="mix-blend-mode:multiply">
<path d="M86.9459 28.108C88.8406 30.0003 88.8404 33.0711 86.9459 34.9636L46.1664 75.692C44.275 77.5811 41.2106 77.5811 39.3191 75.692C37.4246 73.7995 37.4244 70.7287 39.3191 68.8364L80.0986 28.108C81.9901 26.2191 85.0545 26.2189 86.9459 28.108Z" stroke="#EBB570" stroke-width="2.20789"/>
</g>
<g opacity="0.2" style="mix-blend-mode:multiply">
<mask id="path-9-inside-1_508_7744" fill="white">
<path fill-rule="evenodd" clip-rule="evenodd" d="M59.526 111.52C56.9533 108.943 56.9533 104.77 59.526 102.193L110.955 50.6865C113.531 48.1071 117.71 48.104 120.289 50.6795L130.674 61.08C133.247 63.6567 133.423 65.5734 130.85 68.15L109.4 89.05"/>
</mask>
<path d="M59.526 102.193L61.0884 103.753L59.526 102.193ZM110.955 50.6865L109.393 49.1265L110.955 50.6865ZM120.289 50.6795L121.852 49.1195L121.849 49.1171L120.289 50.6795ZM130.674 61.08L132.237 59.52L132.237 59.52L130.674 61.08ZM130.85 68.15L132.391 69.7314L132.402 69.7208L132.412 69.7101L130.85 68.15ZM61.0884 109.96C59.3763 108.245 59.3763 105.468 61.0884 103.753L57.9637 100.633C54.5302 104.072 54.5302 109.641 57.9637 113.08L61.0884 109.96ZM61.0884 103.753L112.518 52.2466L109.393 49.1265L57.9637 100.633L61.0884 103.753ZM112.518 52.2466C114.232 50.53 117.013 50.528 118.729 52.2419L121.849 49.1171C118.407 45.68 112.83 45.6842 109.393 49.1265L112.518 52.2466ZM118.727 52.2396L129.112 62.6401L132.237 59.52L121.852 49.1195L118.727 52.2396ZM129.112 62.6401C130.298 63.8276 130.475 64.44 130.486 64.7014C130.493 64.9025 130.42 65.4562 129.288 66.59L132.412 69.7101C133.853 68.2672 134.978 66.5742 134.898 64.5286C134.82 62.5434 133.624 60.9091 132.237 59.52L129.112 62.6401ZM129.309 66.5687L107.859 87.4687L110.941 90.6314L132.391 69.7314L129.309 66.5687Z" fill="#EBB570" mask="url(#path-9-inside-1_508_7744)"/>
</g>
<g opacity="0.2" style="mix-blend-mode:multiply">
<mask id="path-11-inside-2_508_7744" fill="white">
<path fill-rule="evenodd" clip-rule="evenodd" d="M64.9026 106.855L109.819 61.8715C112.375 59.3112 116.523 59.308 119.084 61.8645C119.086 61.8669 119.088 61.8692 119.091 61.8715C121.652 64.4368 121.652 68.5919 119.091 71.1572L104.917 85.352"/>
</mask>
<path d="M109.819 61.8715L111.381 63.4315L109.819 61.8715ZM119.084 61.8645L117.524 63.4269L119.084 61.8645ZM119.091 71.1572L117.528 69.5972L119.091 71.1572ZM66.465 108.415L111.381 63.4315L108.256 60.3115L63.3402 105.295L66.465 108.415ZM111.381 63.4315C113.076 61.7341 115.826 61.732 117.524 63.4269L120.644 60.3022C117.22 56.8841 111.674 56.8882 108.256 60.3115L111.381 63.4315ZM117.524 63.4269C117.525 63.4285 117.527 63.43 117.528 63.4315L120.653 60.3115C120.65 60.3084 120.647 60.3053 120.644 60.3022L117.524 63.4269ZM117.528 63.4315C119.229 65.1349 119.229 67.8938 117.528 69.5972L120.653 72.7173C124.075 69.29 124.075 63.7387 120.653 60.3115L117.528 63.4315ZM117.528 69.5972L103.355 83.7919L106.48 86.912L120.653 72.7173L117.528 69.5972Z" fill="#EBB570" mask="url(#path-11-inside-2_508_7744)"/>
</g>
<g opacity="0.2" style="mix-blend-mode:multiply">
<mask id="path-13-inside-3_508_7744" fill="white">
<path fill-rule="evenodd" clip-rule="evenodd" d="M-1.09737 84.8552L43.8188 39.8715C46.3753 37.3112 50.5233 37.308 53.0836 39.8645C53.0859 39.8669 53.0883 39.8692 53.0906 39.8715C55.652 42.4368 55.652 46.5919 53.0906 49.1572L38.9172 63.352"/>
</mask>
<path d="M43.8188 39.8715L45.3812 41.4315L43.8188 39.8715ZM53.0836 39.8645L51.5236 41.4269L53.0836 39.8645ZM53.0906 49.1572L51.5282 47.5972L53.0906 49.1572ZM0.465013 86.4152L45.3812 41.4315L42.2564 38.3115L-2.65975 83.2952L0.465013 86.4152ZM45.3812 41.4315C47.0761 39.7341 49.8261 39.732 51.5236 41.4269L54.6437 38.3022C51.2204 34.8841 45.6745 34.8882 42.2564 38.3115L45.3812 41.4315ZM51.5236 41.4269C51.5251 41.4285 51.5267 41.43 51.5282 41.4315L54.653 38.3115C54.6499 38.3084 54.6468 38.3053 54.6437 38.3022L51.5236 41.4269ZM51.5282 41.4315C53.229 43.1349 53.229 45.8938 51.5282 47.5972L54.653 50.7173C58.0751 47.29 58.0751 41.7387 54.653 38.3115L51.5282 41.4315ZM51.5282 47.5972L37.3548 61.7919L40.4795 64.912L54.653 50.7173L51.5282 47.5972Z" fill="#EBB570" mask="url(#path-13-inside-3_508_7744)"/>
</g>
</g>
<path opacity="0.2" d="M28.9755 58.4351C34.7332 40.1555 51.8185 26.8999 71.9999 26.8999C92.1813 26.8999 109.267 40.1555 115.024 58.4351" stroke="#D99139" stroke-width="2.20789" stroke-linecap="round" stroke-linejoin="round"/>
<path opacity="0.2" d="M48.8567 33.2828C55.6226 29.2297 63.5392 26.8999 72 26.8999C80.4607 26.8999 88.3774 29.2297 95.1433 33.2828" stroke="#D99139" stroke-width="2.20789" stroke-linecap="round" stroke-linejoin="round"/>
<path d="M93.0083 124.99C96.3931 126.067 99.8185 126.284 103.454 125.102C108.859 123.346 112.542 118.989 114.311 114.02" stroke="#D99139" stroke-width="2.20789" stroke-linecap="round" stroke-linejoin="round"/>
<path d="M31.9255 102.551C41.2139 114.744 55.795 122.6 72.1902 122.6C75.0126 122.6 77.7812 122.367 80.4784 121.92" stroke="#D99139" stroke-width="2.20789" stroke-linecap="round" stroke-linejoin="round"/>
<path opacity="0.4" d="M122.6 71.9999C122.6 44.0543 99.9455 21.3999 71.9999 21.3999C44.0543 21.3999 21.3999 44.0543 21.3999 71.9999" stroke="white" stroke-width="2.20789" stroke-linecap="round" stroke-linejoin="round"/>
<path opacity="0.6" d="M108.3 96.1997C105.414 94.1293 102.223 92.8643 98.4001 92.8643C92.7173 92.8643 87.868 95.8699 84.6501 100.05" stroke="#F8DDB4" stroke-width="2.20789" stroke-linecap="round"/>
<path opacity="0.8" d="M98.4002 92.8643C95.0984 92.8643 91.8002 93.9997 89.6002 95.6497" stroke="#FFECD0" stroke-width="2.20789" stroke-linecap="round"/>
<path opacity="0.2" d="M28.6909 84.6251C34.1514 103.388 51.4744 117.1 71.9999 117.1C74.6768 117.1 77.2992 116.867 79.8479 116.419" stroke="#D99139" stroke-width="2.20789" stroke-linecap="round" stroke-linejoin="round"/>
<path opacity="0.2" d="M111.257 94.2163C113.011 91.1251 114.409 87.8063 115.398 84.3154" stroke="#D99139" stroke-width="2.20789" stroke-linecap="round" stroke-linejoin="round"/>
<path opacity="0.3" d="M48.8566 110.717C55.6225 114.77 63.5392 117.1 71.9999 117.1" stroke="white" stroke-width="2.20789" stroke-linecap="round" stroke-linejoin="round"/>
<g opacity="0.4" filter="url(#filter0_d_508_7744)">
<path fill-rule="evenodd" clip-rule="evenodd" d="M103.269 99.5C103.269 99.5 102.175 99.5 100.535 100.529C99.4903 101.185 98.8892 102.049 98.5904 102.59C98.5099 102.588 98.4291 102.587 98.348 102.587C93.5167 102.587 89.6001 105.813 89.6001 109.792C89.6001 113.77 93.5167 116.996 98.348 116.996C103.179 116.996 107.096 113.77 107.096 109.792C107.096 107.357 105.629 105.204 103.383 103.9C103.363 103.817 103.325 103.723 103.269 103.617C102.175 101.558 103.269 99.5 103.269 99.5Z" fill="black" fill-opacity="0.01"/>
</g>
<g filter="url(#filter1_i_508_7744)">
<path fill-rule="evenodd" clip-rule="evenodd" d="M103.269 99.5C103.269 99.5 102.175 99.5 100.535 100.529C99.4903 101.185 98.8892 102.049 98.5904 102.59C98.5099 102.588 98.4291 102.587 98.348 102.587C93.5167 102.587 89.6001 105.813 89.6001 109.792C89.6001 113.77 93.5167 116.996 98.348 116.996C103.179 116.996 107.096 113.77 107.096 109.792C107.096 107.469 105.761 105.402 103.688 104.085C103.506 103.921 103.341 103.752 103.269 103.617C102.175 101.558 103.269 99.5 103.269 99.5Z" fill="url(#paint1_linear_508_7744)"/>
</g>
<path d="M100.535 100.529L101.12 101.462V101.462L100.535 100.529ZM103.269 99.5L104.242 100.017C104.423 99.6754 104.412 99.2638 104.213 98.9325C104.014 98.6011 103.655 98.3985 103.269 98.3985V99.5ZM98.5904 102.59L98.5657 103.691C98.9756 103.701 99.3566 103.481 99.5547 103.123L98.5904 102.59ZM103.688 104.085L102.952 104.904C102.997 104.945 103.046 104.982 103.097 105.015L103.688 104.085ZM103.269 103.617L102.296 104.133V104.133L103.269 103.617ZM101.12 101.462C101.846 101.007 102.428 100.793 102.803 100.692C102.991 100.642 103.129 100.619 103.209 100.609C103.249 100.604 103.275 100.602 103.285 100.602C103.29 100.601 103.292 100.601 103.289 100.601C103.288 100.601 103.285 100.601 103.282 100.601C103.28 100.601 103.278 100.602 103.276 100.602C103.275 100.602 103.274 100.602 103.273 100.602C103.272 100.602 103.271 100.602 103.271 100.602C103.27 100.602 103.27 100.602 103.27 100.602C103.269 100.602 103.269 100.602 103.269 99.5C103.269 98.3985 103.268 98.3985 103.268 98.3985C103.268 98.3985 103.267 98.3985 103.267 98.3985C103.266 98.3985 103.265 98.3985 103.264 98.3985C103.263 98.3985 103.261 98.3985 103.26 98.3985C103.257 98.3985 103.253 98.3986 103.249 98.3986C103.242 98.3987 103.233 98.3989 103.223 98.3992C103.204 98.3998 103.18 98.4008 103.152 98.4025C103.096 98.4059 103.023 98.4121 102.935 98.4231C102.759 98.4452 102.521 98.4869 102.231 98.5649C101.649 98.7213 100.865 99.0219 99.9495 99.5961L101.12 101.462ZM99.5547 103.123C99.7959 102.686 100.283 101.988 101.12 101.462L99.9495 99.5961C98.6978 100.382 97.9824 101.412 97.6261 102.058L99.5547 103.123ZM98.348 103.689C98.4208 103.689 98.4934 103.69 98.5657 103.691L98.6151 101.489C98.5263 101.487 98.4373 101.486 98.348 101.486V103.689ZM90.7016 109.792C90.7016 106.612 93.9153 103.689 98.348 103.689V101.486C93.118 101.486 88.4986 105.014 88.4986 109.792H90.7016ZM98.348 115.894C93.9153 115.894 90.7016 112.972 90.7016 109.792H88.4986C88.4986 114.569 93.118 118.097 98.348 118.097V115.894ZM105.994 109.792C105.994 112.972 102.781 115.894 98.348 115.894V118.097C103.578 118.097 108.197 114.569 108.197 109.792H105.994ZM103.097 105.015C104.919 106.173 105.994 107.919 105.994 109.792H108.197C108.197 107.019 106.603 104.632 104.279 103.155L103.097 105.015ZM102.296 104.133C102.471 104.463 102.78 104.75 102.952 104.904L104.424 103.265C104.348 103.197 104.289 103.14 104.249 103.096C104.229 103.074 104.219 103.062 104.216 103.058C104.212 103.052 104.224 103.067 104.242 103.1L102.296 104.133ZM103.269 99.5C102.296 98.9832 102.296 98.9836 102.296 98.984C102.295 98.9842 102.295 98.9846 102.295 98.9849C102.295 98.9855 102.294 98.9861 102.294 98.9868C102.293 98.9881 102.293 98.9895 102.292 98.9911C102.29 98.9942 102.288 98.9979 102.286 99.0021C102.282 99.0105 102.276 99.0209 102.27 99.0334C102.258 99.0583 102.242 99.0912 102.223 99.1318C102.186 99.2127 102.138 99.3245 102.085 99.463C101.981 99.7385 101.857 100.127 101.774 100.594C101.609 101.525 101.6 102.823 102.296 104.133L104.242 103.1C103.844 102.352 103.835 101.591 103.943 100.979C103.997 100.674 104.079 100.419 104.145 100.245C104.178 100.158 104.206 100.093 104.224 100.053C104.234 100.033 104.24 100.02 104.243 100.014C104.245 100.011 104.245 100.009 104.245 100.01C104.245 100.01 104.245 100.011 104.244 100.012C104.244 100.012 104.243 100.013 104.243 100.014C104.243 100.014 104.243 100.015 104.242 100.015C104.242 100.016 104.242 100.016 104.242 100.016C104.242 100.016 104.242 100.017 103.269 99.5Z" fill="#FFECD0"/>
<ellipse cx="95.0676" cy="108.763" rx="1.09349" ry="1.02917" fill="#F7DCB3"/>
<ellipse cx="101.628" cy="108.763" rx="1.09349" ry="1.02917" fill="#F7DCB3"/>
<defs>
<filter id="filter0_d_508_7744" x="85.6001" y="97.5" width="25.4958" height="25.4957" filterUnits="userSpaceOnUse" color-interpolation-filters="sRGB">
<feFlood flood-opacity="0" result="BackgroundImageFix"/>
<feColorMatrix in="SourceAlpha" type="matrix" values="0 0 0 0 0 0 0 0 0 0 0 0 0 0 0 0 0 0 127 0" result="hardAlpha"/>
<feOffset dy="2"/>
<feGaussianBlur stdDeviation="2"/>
<feColorMatrix type="matrix" values="0 0 0 0 0.886275 0 0 0 0 0.65098 0 0 0 0 0.372549 0 0 0 1 0"/>
<feBlend mode="normal" in2="BackgroundImageFix" result="effect1_dropShadow_508_7744"/>
<feBlend mode="normal" in="SourceGraphic" in2="effect1_dropShadow_508_7744" result="shape"/>
</filter>
<filter id="filter1_i_508_7744" x="88.4986" y="98.3984" width="19.6989" height="21.6989" filterUnits="userSpaceOnUse" color-interpolation-filters="sRGB">
<feFlood flood-opacity="0" result="BackgroundImageFix"/>
<feBlend mode="normal" in="SourceGraphic" in2="BackgroundImageFix" result="shape"/>
<feColorMatrix in="SourceAlpha" type="matrix" values="0 0 0 0 0 0 0 0 0 0 0 0 0 0 0 0 0 0 127 0" result="hardAlpha"/>
<feOffset dy="2"/>
<feGaussianBlur stdDeviation="1"/>
<feComposite in2="hardAlpha" operator="arithmetic" k2="-1" k3="1"/>
<feColorMatrix type="matrix" values="0 0 0 0 0.801791 0 0 0 0 0.623822 0 0 0 0 0.41026 0 0 0 1 0"/>
<feBlend mode="normal" in2="shape" result="effect1_innerShadow_508_7744"/>
</filter>
<linearGradient id="paint0_linear_508_7744" x1="20.3" y1="20.3" x2="20.3" y2="127" gradientUnits="userSpaceOnUse">
<stop stop-color="#FDDA9D"/>
<stop offset="1" stop-color="#EFB35E"/>
</linearGradient>
<linearGradient id="paint1_linear_508_7744" x1="89.6001" y1="99.5" x2="89.6001" y2="116.996" gradientUnits="userSpaceOnUse">
<stop stop-color="#F6C280"/>
<stop offset="1" stop-color="#E2A65E"/>
</linearGradient>
</defs>
</svg>
