<svg preserveAspectRatio="none" width="100%" height="100%" overflow="visible" style="display: block;" viewBox="0 0 111.833 117.442" fill="none" xmlns="http://www.w3.org/2000/svg">
<g id="Inner">
<g filter="url(#filter0_i_0_63)">
<path d="M7.33333 11.9167C7.33333 9.38536 9.38536 7.33333 11.9167 7.33333H99.9167C102.448 7.33333 104.5 9.38536 104.5 11.9167V78.266C104.5 79.8527 103.679 81.3265 102.33 82.1622L58.3305 109.421C56.8517 110.337 54.9817 110.337 53.5029 109.421L9.50286 82.1622C8.15402 81.3265 7.33333 79.8527 7.33333 78.266V11.9167Z" fill="url(#paint0_radial_0_63)"/>
<path d="M7.33333 11.9167C7.33333 9.38536 9.38536 7.33333 11.9167 7.33333H99.9167C102.448 7.33333 104.5 9.38536 104.5 11.9167V78.266C104.5 79.8527 103.679 81.3265 102.33 82.1622L58.3305 109.421C56.8517 110.337 54.9817 110.337 53.5029 109.421L9.50286 82.1622C8.15402 81.3265 7.33333 79.8527 7.33333 78.266V11.9167Z" fill="url(#paint1_radial_0_63)" fill-opacity="0.29"/>
<path d="M7.33333 11.9167C7.33333 9.38536 9.38536 7.33333 11.9167 7.33333H99.9167C102.448 7.33333 104.5 9.38536 104.5 11.9167V78.266C104.5 79.8527 103.679 81.3265 102.33 82.1622L58.3305 109.421C56.8517 110.337 54.9817 110.337 53.5029 109.421L9.50286 82.1622C8.15402 81.3265 7.33333 79.8527 7.33333 78.266V11.9167Z" fill="url(#paint2_linear_0_63)" fill-opacity="0.2"/>
</g>
<path d="M99.9163 3.66634C104.473 3.66634 108.166 7.36014 108.166 11.9163V78.266C108.166 81.1221 106.689 83.7755 104.261 85.2796L60.2611 112.538C57.5993 114.187 54.2333 114.187 51.5716 112.538L7.57161 85.2796C5.14369 83.7755 3.66634 81.1221 3.66634 78.266V11.9163C3.66651 7.36024 7.36025 3.66652 11.9163 3.66634H99.9163Z" stroke="url(#paint3_linear_0_63)" stroke-width="7.33333"/>
</g>
<defs>
<filter id="filter0_i_0_63" x="0" y="0" width="111.833" height="117.442" filterUnits="userSpaceOnUse" color-interpolation-filters="sRGB">
<feFlood flood-opacity="0" result="BackgroundImageFix"/>
<feBlend mode="normal" in="SourceGraphic" in2="BackgroundImageFix" result="shape"/>
<feColorMatrix in="SourceAlpha" type="matrix" values="0 0 0 0 0 0 0 0 0 0 0 0 0 0 0 0 0 0 127 0" result="hardAlpha"/>
<feOffset/>
<feGaussianBlur stdDeviation="20.625"/>
<feComposite in2="hardAlpha" operator="arithmetic" k2="-1" k3="1"/>
<feColorMatrix type="matrix" values="0 0 0 0 0.23559 0 0 0 0 0.238151 0 0 0 0 0.245833 0 0 0 1 0"/>
<feBlend mode="normal" in2="shape" result="effect1_innerShadow_0_63"/>
</filter>
<radialGradient id="paint0_radial_0_63" cx="0" cy="0" r="1" gradientUnits="userSpaceOnUse" gradientTransform="translate(55.9167 61.4167) rotate(90) scale(84.2452 79.9616)">
<stop stop-color="#9B9DA2"/>
<stop offset="1" stop-color="#67676A"/>
</radialGradient>
<radialGradient id="paint1_radial_0_63" cx="0" cy="0" r="1" gradientTransform="matrix(38.0064 -39.0024 19.6486 21.2533 33.2115 41.6554)" gradientUnits="userSpaceOnUse">
<stop stop-color="white"/>
<stop offset="1" stop-color="white" stop-opacity="0"/>
</radialGradient>
<linearGradient id="paint2_linear_0_63" x1="55.9167" y1="7.33333" x2="55.9167" y2="115.5" gradientUnits="userSpaceOnUse">
<stop stop-opacity="0"/>
<stop offset="1"/>
</linearGradient>
<linearGradient id="paint3_linear_0_63" x1="55.9167" y1="7.33333" x2="55.9167" y2="115.5" gradientUnits="userSpaceOnUse">
<stop stop-color="#ACACAC"/>
<stop offset="1" stop-color="#DFE3EA"/>
</linearGradient>
</defs>
</svg>
