<svg preserveAspectRatio="none" width="100%" height="100%" overflow="visible" style="display: block;" viewBox="0 0 107.836 121.966" fill="none" xmlns="http://www.w3.org/2000/svg">
<g id="Inner">
<g filter="url(#filter0_i_0_71)">
<path d="M51.4424 8.51356C52.9715 7.61893 54.8642 7.61894 56.3932 8.51357L97.5668 32.6045C99.0695 33.4837 99.9931 35.0941 99.9931 36.8352V85.1309C99.9931 86.8719 99.0695 88.4823 97.5668 89.3615L56.3932 113.452C54.8642 114.347 52.9714 114.347 51.4424 113.452L10.2688 89.3615C8.76613 88.4823 7.84259 86.8719 7.84259 85.1309V36.8352C7.84259 35.0941 8.76613 33.4837 10.2688 32.6045L51.4424 8.51356Z" fill="url(#paint0_radial_0_71)"/>
<path d="M51.4424 8.51356C52.9715 7.61893 54.8642 7.61894 56.3932 8.51357L97.5668 32.6045C99.0695 33.4837 99.9931 35.0941 99.9931 36.8352V85.1309C99.9931 86.8719 99.0695 88.4823 97.5668 89.3615L56.3932 113.452C54.8642 114.347 52.9714 114.347 51.4424 113.452L10.2688 89.3615C8.76613 88.4823 7.84259 86.8719 7.84259 85.1309V36.8352C7.84259 35.0941 8.76613 33.4837 10.2688 32.6045L51.4424 8.51356Z" fill="url(#paint1_radial_0_71)" fill-opacity="0.29"/>
<path d="M51.4424 8.51356C52.9715 7.61893 54.8642 7.61894 56.3932 8.51357L97.5668 32.6045C99.0695 33.4837 99.9931 35.0941 99.9931 36.8352V85.1309C99.9931 86.8719 99.0695 88.4823 97.5668 89.3615L56.3932 113.452C54.8642 114.347 52.9714 114.347 51.4424 113.452L10.2688 89.3615C8.76613 88.4823 7.84259 86.8719 7.84259 85.1309V36.8352C7.84259 35.0941 8.76613 33.4837 10.2688 32.6045L51.4424 8.51356Z" fill="url(#paint2_linear_0_71)" fill-opacity="0.2" style="mix-blend-mode:multiply"/>
</g>
<path d="M49.4617 5.12868C52.2139 3.51835 55.6216 3.51835 58.3738 5.12868L99.5467 29.2195C102.251 30.8021 103.914 33.701 103.914 36.8347V85.1306C103.914 88.2645 102.252 91.1632 99.5467 92.7459L58.3738 116.837C55.6216 118.447 52.2139 118.447 49.4617 116.837L8.28888 92.7459C5.58401 91.1632 3.92169 88.2645 3.92169 85.1306V36.8347C3.92184 33.701 5.58413 30.8021 8.28888 29.2195L49.4617 5.12868Z" stroke="url(#paint3_linear_0_71)" stroke-width="7.84259"/>
</g>
<defs>
<filter id="filter0_i_0_71" x="0" y="0" width="107.836" height="121.966" filterUnits="userSpaceOnUse" color-interpolation-filters="sRGB">
<feFlood flood-opacity="0" result="BackgroundImageFix"/>
<feBlend mode="normal" in="SourceGraphic" in2="BackgroundImageFix" result="shape"/>
<feColorMatrix in="SourceAlpha" type="matrix" values="0 0 0 0 0 0 0 0 0 0 0 0 0 0 0 0 0 0 127 0" result="hardAlpha"/>
<feOffset/>
<feGaussianBlur stdDeviation="22.0573"/>
<feComposite in2="hardAlpha" operator="arithmetic" k2="-1" k3="1"/>
<feColorMatrix type="matrix" values="0 0 0 0 0.203922 0 0 0 0 0.176471 0 0 0 0 0.478431 0 0 0 1 0"/>
<feBlend mode="normal" in2="shape" result="effect1_innerShadow_0_71"/>
</filter>
<radialGradient id="paint0_radial_0_71" cx="0" cy="0" r="1" gradientUnits="userSpaceOnUse" gradientTransform="translate(53.9178 63.3688) rotate(90) scale(87.7036 75.8336)">
<stop stop-color="#534BA2"/>
<stop offset="1" stop-color="#312974"/>
</radialGradient>
<radialGradient id="paint1_radial_0_71" cx="0" cy="0" r="1" gradientTransform="matrix(36.0443 -40.6035 18.6343 22.1258 32.3848 42.7963)" gradientUnits="userSpaceOnUse">
<stop stop-color="white"/>
<stop offset="1" stop-color="white" stop-opacity="0"/>
</radialGradient>
<linearGradient id="paint2_linear_0_71" x1="53.9178" y1="7.06521" x2="53.9178" y2="119.672" gradientUnits="userSpaceOnUse">
<stop stop-color="#765913" stop-opacity="0"/>
<stop offset="0.0001" stop-color="#30297A" stop-opacity="0"/>
<stop offset="1" stop-color="#30297A"/>
</linearGradient>
<linearGradient id="paint3_linear_0_71" x1="53.9178" y1="7.06521" x2="53.9178" y2="119.672" gradientUnits="userSpaceOnUse">
<stop stop-color="#966FD6"/>
<stop offset="1" stop-color="#C696F9"/>
</linearGradient>
</defs>
</svg>
