<svg preserveAspectRatio="none" width="100%" height="100%" overflow="visible" style="display: block;" viewBox="0 0 126.687 121.146" fill="none" xmlns="http://www.w3.org/2000/svg">
<g id="Inner">
<g filter="url(#filter0_i_0_69)">
<path d="M60.3239 9.1486C62.1205 7.82824 64.5666 7.82824 66.3631 9.1486L116.448 45.958C118.228 47.2657 118.963 49.5699 118.27 51.6665L99.1644 109.489C98.4743 111.577 96.5226 112.988 94.3229 112.988H32.3642C30.1645 112.988 28.2128 111.577 27.5227 109.489L8.41668 51.6665C7.72392 49.5699 8.45933 47.2657 10.2386 45.958L60.3239 9.1486Z" fill="url(#paint0_radial_0_69)"/>
<path d="M60.3239 9.1486C62.1205 7.82824 64.5666 7.82824 66.3631 9.1486L116.448 45.958C118.228 47.2657 118.963 49.5699 118.27 51.6665L99.1644 109.489C98.4743 111.577 96.5226 112.988 94.3229 112.988H32.3642C30.1645 112.988 28.2128 111.577 27.5227 109.489L8.41668 51.6665C7.72392 49.5699 8.45933 47.2657 10.2386 45.958L60.3239 9.1486Z" fill="url(#paint1_radial_0_69)" fill-opacity="0.29"/>
<path d="M60.3239 9.1486C62.1205 7.82824 64.5666 7.82824 66.3631 9.1486L116.448 45.958C118.228 47.2657 118.963 49.5699 118.27 51.6665L99.1644 109.489C98.4743 111.577 96.5226 112.988 94.3229 112.988H32.3642C30.1645 112.988 28.2128 111.577 27.5227 109.489L8.41668 51.6665C7.72392 49.5699 8.45933 47.2657 10.2386 45.958L60.3239 9.1486Z" fill="url(#paint2_linear_0_69)" fill-opacity="0.2" style="mix-blend-mode:multiply"/>
</g>
<path d="M57.9083 5.862C61.1421 3.48538 65.5446 3.48542 68.7784 5.862L118.864 42.6716C122.067 45.0253 123.39 49.1724 122.144 52.946L103.037 110.768C101.795 114.528 98.2825 117.067 94.3234 117.067H32.3644C28.405 117.067 24.8918 114.528 23.6495 110.768L4.54308 52.946C3.29633 49.1723 4.62083 45.0252 7.82335 42.6716L57.9083 5.862Z" stroke="url(#paint3_linear_0_69)" stroke-width="8.15833"/>
</g>
<defs>
<filter id="filter0_i_0_69" x="0" y="0" width="126.687" height="121.146" filterUnits="userSpaceOnUse" color-interpolation-filters="sRGB">
<feFlood flood-opacity="0" result="BackgroundImageFix"/>
<feBlend mode="normal" in="SourceGraphic" in2="BackgroundImageFix" result="shape"/>
<feColorMatrix in="SourceAlpha" type="matrix" values="0 0 0 0 0 0 0 0 0 0 0 0 0 0 0 0 0 0 127 0" result="hardAlpha"/>
<feOffset/>
<feGaussianBlur stdDeviation="22.9453"/>
<feComposite in2="hardAlpha" operator="arithmetic" k2="-1" k3="1"/>
<feColorMatrix type="matrix" values="0 0 0 0 0.7875 0 0 0 0 0.62959 0 0 0 0 0.246094 0 0 0 1 0"/>
<feBlend mode="normal" in2="shape" result="effect1_innerShadow_0_69"/>
</filter>
<radialGradient id="paint0_radial_0_69" cx="0" cy="0" r="1" gradientUnits="userSpaceOnUse" gradientTransform="translate(63.3435 62.305) rotate(90) scale(86.2581 92.3141)">
<stop stop-color="#FECC2B"/>
<stop offset="1" stop-color="#F1A420"/>
</radialGradient>
<radialGradient id="paint1_radial_0_69" cx="0" cy="0" r="1" gradientTransform="matrix(43.8777 -39.9343 22.684 21.7611 37.1309 42.0716)" gradientUnits="userSpaceOnUse">
<stop stop-color="white"/>
<stop offset="1" stop-color="white" stop-opacity="0"/>
</radialGradient>
<linearGradient id="paint2_linear_0_69" x1="63.3435" y1="6.92939" x2="63.3435" y2="117.681" gradientUnits="userSpaceOnUse">
<stop stop-color="#765913" stop-opacity="0"/>
<stop offset="1" stop-color="#816011"/>
</linearGradient>
<linearGradient id="paint3_linear_0_69" x1="63.3435" y1="6.92939" x2="63.3435" y2="117.681" gradientUnits="userSpaceOnUse">
<stop stop-color="#F6CD62"/>
<stop offset="1" stop-color="#FFE9B8"/>
</linearGradient>
</defs>
</svg>
