<svg width="94" height="120" viewBox="25 26 94 120" fill="none" xmlns="http://www.w3.org/2000/svg">
<g filter="url(#filter0_d_508_7157)">
<path fill-rule="evenodd" clip-rule="evenodd" d="M44 66H76V126.764C76 128.251 74.4354 129.218 73.1056 128.553L60 122L46.8944 128.553C45.5646 129.218 44 128.251 44 126.764V66Z" fill="#32B4FF"/>
</g>
<g filter="url(#filter1_d_508_7157)">
<path fill-rule="evenodd" clip-rule="evenodd" d="M68 66H100V126.764C100 128.251 98.4354 129.218 97.1056 128.553L84 122L70.8944 128.553C69.5646 129.218 68 128.251 68 126.764V66Z" fill="#32B4FF"/>
</g>
<g filter="url(#filter2_d_508_7157)">
<path fill-rule="evenodd" clip-rule="evenodd" d="M56 76H88V136.764C88 138.251 86.4354 139.218 85.1056 138.553L72 132L58.8944 138.553C57.5646 139.218 56 138.251 56 136.764V76Z" fill="white"/>
</g>
<mask id="mask0_508_7157" style="mask-type:luminance" maskUnits="userSpaceOnUse" x="56" y="76" width="32" height="63">
<path fill-rule="evenodd" clip-rule="evenodd" d="M56 76H88V136.764C88 138.251 86.4354 139.218 85.1056 138.553L72 132L58.8944 138.553C57.5646 139.218 56 138.251 56 136.764V76Z" fill="white"/>
</mask>
<g mask="url(#mask0_508_7157)">
<rect x="64" y="76" width="16" height="64" fill="#F55462"/>
</g>
<path fill-rule="evenodd" clip-rule="evenodd" d="M108 45.3541C108 44.5363 108.498 43.8008 109.257 43.4971L116.354 40.6583C117.143 40.343 118 40.9235 118 41.7724V72.6459C118 73.4637 117.502 74.1992 116.743 74.5029L108 78V45.3541Z" fill="url(#paint0_linear_508_7157)" stroke="url(#paint1_linear_508_7157)" stroke-width="2" stroke-linecap="round" stroke-linejoin="round"/>
<mask id="mask1_508_7157" style="mask-type:luminance" maskUnits="userSpaceOnUse" x="107" y="39" width="12" height="40">
<path fill-rule="evenodd" clip-rule="evenodd" d="M108 45.3541C108 44.5363 108.498 43.8008 109.257 43.4971L116.354 40.6583C117.143 40.343 118 40.9235 118 41.7724V72.6459C118 73.4637 117.502 74.1992 116.743 74.5029L108 78V45.3541Z" fill="white" stroke="white" stroke-width="2" stroke-linecap="round" stroke-linejoin="round"/>
</mask>
<g mask="url(#mask1_508_7157)">
<g opacity="0.6" filter="url(#filter3_i_508_7157)" style="mix-blend-mode:multiply">
<path d="M109 57.6667L120.385 52.9231C120.894 52.7107 121.135 52.1252 120.923 51.6154C120.711 51.1056 120.125 50.8645 119.615 51.0769L107.615 56.0769C107.243 56.2322 109 57.6667 109 57.6667Z" fill="#FABC10"/>
</g>
<g opacity="0.6" filter="url(#filter4_i_508_7157)" style="mix-blend-mode:multiply">
<path d="M109 69.6667L120.385 64.9231C120.894 64.7107 121.135 64.1252 120.923 63.6154C120.711 63.1056 120.125 62.8645 119.615 63.0769L107.615 68.0769C107.243 68.2322 109 69.6667 109 69.6667Z" fill="#FABC10"/>
</g>
<g opacity="0.04">
<path fill-rule="evenodd" clip-rule="evenodd" d="M77.997 25.3535C74.2842 23.2099 69.7098 23.2099 65.997 25.3535L34.6 43.4805C30.8871 45.6241 28.6 49.5857 28.6 53.8729V90.127C28.6 94.4142 30.8871 98.3758 34.6 100.519L65.997 118.646C69.7098 120.79 74.2842 120.79 77.997 118.646L109.394 100.519C113.107 98.3758 115.394 94.4142 115.394 90.127L115.394 53.8729C115.394 49.5857 113.107 45.6241 109.394 43.4805L77.997 25.3535Z" fill="#7705A4" style="mix-blend-mode:multiply"/>
</g>
</g>
<path fill-rule="evenodd" clip-rule="evenodd" d="M36 45.3541C36 44.5363 35.5021 43.8008 34.7428 43.4971L27.6457 40.6583C26.8574 40.343 26 40.9235 26 41.7724V72.6459C26 73.4637 26.4979 74.1992 27.2572 74.5029L36 78V45.3541Z" fill="url(#paint2_linear_508_7157)" stroke="url(#paint3_linear_508_7157)" stroke-width="2" stroke-linecap="round" stroke-linejoin="round"/>
<mask id="mask2_508_7157" style="mask-type:luminance" maskUnits="userSpaceOnUse" x="25" y="39" width="12" height="40">
<path fill-rule="evenodd" clip-rule="evenodd" d="M36 45.3541C36 44.5363 35.5021 43.8008 34.7428 43.4971L27.6457 40.6583C26.8574 40.343 26 40.9235 26 41.7724V72.6459C26 73.4637 26.4979 74.1992 27.2572 74.5029L36 78V45.3541Z" fill="white" stroke="white" stroke-width="2" stroke-linecap="round" stroke-linejoin="round"/>
</mask>
<g mask="url(#mask2_508_7157)">
<g opacity="0.6" filter="url(#filter5_i_508_7157)" style="mix-blend-mode:multiply">
<path d="M35 57.6667L23.6154 52.9231C23.1056 52.7107 22.8645 52.1252 23.0769 51.6154C23.2894 51.1056 23.8748 50.8645 24.3846 51.0769L36.3846 56.0769C36.7573 56.2322 35 57.6667 35 57.6667Z" fill="#FABC10"/>
</g>
<g opacity="0.6" filter="url(#filter6_i_508_7157)" style="mix-blend-mode:multiply">
<path d="M35 69.6667L23.6154 64.9231C23.1056 64.7107 22.8645 64.1252 23.0769 63.6154C23.2894 63.1056 23.8748 62.8645 24.3846 63.0769L36.3846 68.0769C36.7573 68.2322 35 69.6667 35 69.6667Z" fill="#FABC10"/>
</g>
<g opacity="0.04">
<path fill-rule="evenodd" clip-rule="evenodd" d="M65.9971 25.3535C69.71 23.2099 74.2843 23.2099 77.9971 25.3535L109.394 43.4805C113.107 45.6241 115.394 49.5857 115.394 53.8729V90.127C115.394 94.4142 113.107 98.3758 109.394 100.519L77.9971 118.646C74.2843 120.79 69.71 120.79 65.9971 118.646L34.6001 100.519C30.8873 98.3758 28.6001 94.4142 28.6001 90.127L28.6001 53.8729C28.6001 49.5857 30.8873 45.6241 34.6001 43.4805L65.9971 25.3535Z" fill="#7705A4" style="mix-blend-mode:multiply"/>
</g>
</g>
<path fill-rule="evenodd" clip-rule="evenodd" d="M100 34.6516C100 33.3228 98.7282 32.3635 97.4506 32.7285L72 40.0001L46.5494 32.7285C45.2718 32.3635 44 33.3228 44 34.6516V64.0001C44 65.1047 44.8954 66.0001 46 66.0001H98C99.1046 66.0001 100 65.1047 100 64.0001V34.6516Z" fill="url(#paint4_linear_508_7157)" stroke="url(#paint5_linear_508_7157)" stroke-width="2" stroke-linecap="round" stroke-linejoin="round"/>
<path fill-rule="evenodd" clip-rule="evenodd" d="M68 28.3094C70.4752 26.8803 73.5248 26.8803 76 28.3094L107.837 46.6906C110.312 48.1197 111.837 50.7607 111.837 53.6188V90.3812C111.837 93.2393 110.312 95.8803 107.837 97.3094L76 115.691C73.5248 117.12 70.4752 117.12 68 115.691L36.1628 97.3094C33.6876 95.8803 32.1628 93.2393 32.1628 90.3812V53.6188C32.1628 50.7607 33.6876 48.1197 36.1628 46.6906L68 28.3094Z" fill="url(#paint6_linear_508_7157)" stroke="#FFF04D" stroke-opacity="0.4" stroke-width="2"/>
<g opacity="0.8" filter="url(#filter7_i_508_7157)" style="mix-blend-mode:multiply">
<path fill-rule="evenodd" clip-rule="evenodd" d="M103.342 50.377L75.0329 34.0136C73.156 32.9287 70.8436 32.9287 68.9667 34.0136L40.6578 50.377C38.781 51.4619 37.6248 53.4668 37.6248 55.6366V67.4416L35.3299 70.8879C34.8829 71.5593 34.8829 72.4335 35.3299 73.1049L37.6248 76.5512V88.3633C37.6248 90.5331 38.781 92.538 40.6578 93.6229L68.9667 109.986C70.8436 111.071 73.156 111.071 75.0329 109.986L103.342 93.6229C105.219 92.538 106.375 90.5331 106.375 88.3633V76.5516L108.67 73.1049C109.117 72.4335 109.117 71.5593 108.67 70.8879L106.375 67.4413V55.6366C106.375 53.4668 105.219 51.4619 103.342 50.377ZM39.6467 76.5517V88.3633C39.6467 89.8098 40.4175 91.1464 41.6688 91.8697L69.9777 108.233C71.2289 108.956 72.7705 108.956 74.0218 108.233L102.331 91.8697C103.582 91.1464 104.353 89.8098 104.353 88.3633V76.5511L102.058 73.1049C101.611 72.4335 101.611 71.5593 102.058 70.8879L104.353 67.4417V55.6366C104.353 54.1901 103.582 52.8534 102.331 52.1302L74.0218 35.7668C72.7705 35.0435 71.2289 35.0435 69.9777 35.7668L41.6688 52.1302C40.4175 52.8534 39.6467 54.1901 39.6467 55.6366V67.4411L41.9419 70.8879C42.389 71.5593 42.389 72.4335 41.9419 73.1049L39.6467 76.5517Z" fill="#FABC10"/>
</g>
<path d="M75.5 29.1754C73.3342 27.9249 70.6658 27.9249 68.5 29.1754L36.6628 47.5566C34.497 48.807 33.1628 51.1179 33.1628 53.6187L33.1628 90.3811C33.1628 92.882 34.497 95.1929 36.6628 96.4433L68.5 114.825C70.6658 116.075 73.3342 116.075 75.5 114.825L107.337 96.4433C109.503 95.1929 110.837 92.882 110.837 90.3811V53.6187C110.837 51.1179 109.503 48.807 107.337 47.5566L75.5 29.1754Z" stroke="#F9B307" stroke-width="2"/>
<path opacity="0.4" d="M75.5 114.825C79.2443 112.663 81.8974 111.131 83.4593 110.229" stroke="white" stroke-width="2" stroke-linecap="round"/>
<path d="M110.837 90.3811V53.6187C110.837 51.1179 109.503 48.807 107.337 47.5566L75.5 29.1754C73.3342 27.9249 70.6658 27.9249 68.5 29.1754L36.6628 47.5566C34.497 48.807 33.1628 51.1179 33.1628 53.6187L33.1628 90.3811" stroke="#FAC00E" stroke-width="2" stroke-linecap="round"/>
<path opacity="0.6" d="M110.837 53.6187C110.837 51.1179 109.503 48.807 107.337 47.5566L75.5 29.1754C73.3342 27.9249 70.6658 27.9249 68.5 29.1754L36.6628 47.5566C34.497 48.807 33.1628 51.1179 33.1628 53.6187" stroke="#FDDB3D" stroke-width="2" stroke-linecap="round"/>
<path opacity="0.6" d="M75.4999 29.1754C73.3341 27.9249 70.6657 27.9249 68.4999 29.1754C68.4999 29.1754 57.8875 35.3024 52.5813 38.366" stroke="white" stroke-width="2" stroke-linecap="round"/>
<path d="M68.5001 29.1753C68.5001 29.1753 62.8836 32.418 60.5408 33.7706" stroke="white" stroke-width="2" stroke-linecap="round"/>
<g filter="url(#filter8_d_508_7157)">
<path fill-rule="evenodd" clip-rule="evenodd" d="M70 41.1547C71.2376 40.4402 72.7624 40.4402 74 41.1547L97.7128 54.8453C98.9504 55.5598 99.7128 56.8803 99.7128 58.3094V85.6906C99.7128 87.1197 98.9504 88.4402 97.7128 89.1547L74 102.845C72.7624 103.56 71.2376 103.56 70 102.845L46.2872 89.1547C45.0496 88.4402 44.2872 87.1197 44.2872 85.6906V58.3094C44.2872 56.8803 45.0496 55.5598 46.2872 54.8453L70 41.1547Z" fill="url(#paint7_linear_508_7157)"/>
<path d="M69.5 40.2891C71.047 39.3959 72.953 39.3959 74.5 40.2891L98.2129 53.9795C99.7598 54.8727 100.713 56.5233 100.713 58.3096V85.6904C100.713 87.4767 99.7598 89.1273 98.2129 90.0205L74.5 103.711C72.953 104.604 71.047 104.604 69.5 103.711L45.7871 90.0205C44.2402 89.1273 43.2871 87.4767 43.2871 85.6904V58.3096C43.2871 56.5233 44.2402 54.8727 45.7871 53.9795L69.5 40.2891Z" stroke="#F5900D" stroke-opacity="0.1" style="mix-blend-mode:multiply" stroke-width="2"/>
</g>
<mask id="mask3_508_7157" style="mask-type:luminance" maskUnits="userSpaceOnUse" x="44" y="40" width="56" height="64">
<path fill-rule="evenodd" clip-rule="evenodd" d="M70 41.1547C71.2376 40.4402 72.7624 40.4402 74 41.1547L97.7128 54.8453C98.9504 55.5598 99.7128 56.8803 99.7128 58.3094V85.6906C99.7128 87.1197 98.9504 88.4402 97.7128 89.1547L74 102.845C72.7624 103.56 71.2376 103.56 70 102.845L46.2872 89.1547C45.0496 88.4402 44.2872 87.1197 44.2872 85.6906V58.3094C44.2872 56.8803 45.0496 55.5598 46.2872 54.8453L70 41.1547Z" fill="white"/>
</mask>
<g mask="url(#mask3_508_7157)">
<g opacity="0.3" style="mix-blend-mode:multiply">
<path fill-rule="evenodd" clip-rule="evenodd" d="M72 72L80 40H64L72 72ZM72 72L100.284 55.0295L88.9705 43.7158L72 72ZM72 72L88.9705 100.284L100.284 88.9705L72 72ZM72 72L104 64V80L72 72ZM72 72L64 104H80L72 72ZM72 72L40 80V64L72 72ZM72 72L55.0295 100.284L43.7158 88.9705L72 72ZM55.0295 43.7158L43.7158 55.0295L72 72L55.0295 43.7158Z" fill="#FFD640"/>
</g>
<path opacity="0.4" d="M97.2127 55.7114L73.4999 42.0208C72.5717 41.4849 71.4281 41.4849 70.4999 42.0208C67.7111 43.631 65.735 44.7718 64.5717 45.4435C62.1507 46.8412 60.1747 47.9821 58.6435 48.8661C56.0088 50.3873 52.0566 52.6691 46.7871 55.7114" stroke="white" stroke-width="2" stroke-linecap="round"/>
<path opacity="0.4" d="M97.2128 88.22L73.5 101.911C72.5718 102.446 71.4282 102.446 70.5 101.911" stroke="white" stroke-width="2" stroke-linecap="round"/>
<path d="M70.5 42.0208C67.7111 43.6309 65.7351 44.7718 64.5718 45.4434" stroke="white" stroke-width="2" stroke-linecap="round"/>
</g>
<g filter="url(#filter9_d_508_7157)">
<path fill-rule="evenodd" clip-rule="evenodd" d="M72 54L88 72L72 90L56 72L72 54Z" fill="white"/>
<path d="M72 52C72.5712 52 73.1156 52.244 73.4951 52.6709L89.4951 70.6709C90.1687 71.4287 90.1687 72.5713 89.4951 73.3291L73.4951 91.3291C73.1156 91.756 72.5712 92 72 92C71.4288 92 70.8844 91.756 70.5049 91.3291L54.5049 73.3291C53.8313 72.5713 53.8313 71.4287 54.5049 70.6709L70.5049 52.6709L70.6553 52.5195C71.0214 52.1869 71.5003 52 72 52Z" stroke="white" stroke-width="4" stroke-linejoin="round"/>
</g>
<path fill-rule="evenodd" clip-rule="evenodd" d="M72 54L88 72H56L72 54Z" fill="url(#paint8_linear_508_7157)"/>
<path fill-rule="evenodd" clip-rule="evenodd" d="M72 90L88 72H56L72 90Z" fill="url(#paint9_linear_508_7157)"/>
<path fill-rule="evenodd" clip-rule="evenodd" d="M71.9999 54L64.2856 72H79.7142L71.9999 54Z" fill="url(#paint10_linear_508_7157)"/>
<path fill-rule="evenodd" clip-rule="evenodd" d="M71.9999 90L64.2856 72H79.7142L71.9999 90Z" fill="url(#paint11_linear_508_7157)"/>
<g filter="url(#filter10_d_508_7157)">
<path fill-rule="evenodd" clip-rule="evenodd" d="M93.8218 59.5599L92.7831 59.1502C92.1479 58.8997 91.836 58.1816 92.0866 57.5464C92.2122 57.2277 92.4645 56.9755 92.7831 56.8498L93.8218 56.4401C95.0196 55.9677 95.9677 55.0196 96.4401 53.8218L96.8498 52.7831C97.1003 52.1479 97.8184 51.836 98.4536 52.0866C98.7723 52.2122 99.0245 52.4645 99.1502 52.7831L99.5599 53.8218C100.032 55.0196 100.98 55.9677 102.178 56.4401L103.217 56.8498C103.852 57.1003 104.164 57.8184 103.913 58.4536C103.788 58.7723 103.536 59.0245 103.217 59.1502L102.178 59.5599C100.98 60.0323 100.032 60.9804 99.5599 62.1782L99.1502 63.2169C98.8997 63.8521 98.1816 64.164 97.5464 63.9134C97.2277 63.7878 96.9755 63.5355 96.8498 63.2169L96.4401 62.1782C95.9677 60.9804 95.0196 60.0323 93.8218 59.5599Z" fill="white"/>
</g>
<g filter="url(#filter11_d_508_7157)">
<path fill-rule="evenodd" clip-rule="evenodd" d="M53.2145 91.0399L52.5221 90.7668C52.0986 90.5998 51.8907 90.1211 52.0577 89.6976C52.1415 89.4851 52.3097 89.317 52.5221 89.2332L53.2145 88.9601C54.0131 88.6452 54.6452 88.0131 54.9601 87.2145L55.2332 86.5221C55.4002 86.0986 55.8789 85.8907 56.3024 86.0577C56.5149 86.1415 56.683 86.3097 56.7668 86.5221L57.0399 87.2145C57.3548 88.0131 57.9869 88.6452 58.7855 88.9601L59.4779 89.2332C59.9014 89.4002 60.1093 89.8789 59.9423 90.3024C59.8585 90.5149 59.6903 90.683 59.4779 90.7668L58.7855 91.0399C57.9869 91.3548 57.3548 91.9869 57.0399 92.7855L56.7668 93.4779C56.5998 93.9014 56.1211 94.1093 55.6976 93.9423C55.4851 93.8585 55.317 93.6903 55.2332 93.4779L54.9601 92.7855C54.6452 91.9869 54.0131 91.3548 53.2145 91.0399Z" fill="white"/>
</g>
<g filter="url(#filter12_d_508_7157)">
<path fill-rule="evenodd" clip-rule="evenodd" d="M41.5182 62.2999L40.6526 61.9585C40.1232 61.7497 39.8633 61.1513 40.0721 60.622C40.1769 60.3564 40.3871 60.1462 40.6526 60.0415L41.5182 59.7001C42.5163 59.3064 43.3064 58.5163 43.7001 57.5182L44.0415 56.6526C44.2503 56.1232 44.8487 55.8633 45.378 56.0721C45.6436 56.1769 45.8538 56.3871 45.9585 56.6526L46.2999 57.5182C46.6936 58.5163 47.4837 59.3064 48.4818 59.7001L49.3474 60.0415C49.8768 60.2503 50.1367 60.8487 49.9279 61.378C49.8231 61.6436 49.6129 61.8538 49.3474 61.9585L48.4818 62.2999C47.4837 62.6936 46.6936 63.4837 46.2999 64.4818L45.9585 65.3474C45.7497 65.8768 45.1513 66.1367 44.622 65.9279C44.3564 65.8231 44.1462 65.6129 44.0415 65.3474L43.7001 64.4818C43.3064 63.4837 42.5163 62.6936 41.5182 62.2999Z" fill="white"/>
</g>
<g filter="url(#filter13_d_508_7157)">
<path fill-rule="evenodd" clip-rule="evenodd" d="M92.9109 91.7799L92.3916 91.5751C92.0739 91.4498 91.918 91.0908 92.0433 90.7732C92.1061 90.6138 92.2322 90.4877 92.3916 90.4249L92.9109 90.2201C93.5098 89.9839 93.9839 89.5098 94.2201 88.9109L94.4249 88.3916C94.5502 88.0739 94.9092 87.918 95.2268 88.0433C95.3862 88.1061 95.5123 88.2322 95.5751 88.3916L95.7799 88.9109C96.0161 89.5098 96.4902 89.9839 97.0891 90.2201L97.6084 90.4249C97.9261 90.5502 98.082 90.9092 97.9567 91.2268C97.8939 91.3862 97.7678 91.5123 97.6084 91.5751L97.0891 91.7799C96.4902 92.0161 96.0161 92.4902 95.7799 93.0891L95.5751 93.6084C95.4498 93.9261 95.0908 94.082 94.7732 93.9567C94.6138 93.8939 94.4877 93.7678 94.4249 93.6084L94.2201 93.0891C93.9839 92.4902 93.5098 92.0161 92.9109 91.7799Z" fill="white"/>
</g>
<defs>
<filter id="filter0_d_508_7157" x="40" y="66" width="40" height="70.7665" filterUnits="userSpaceOnUse" color-interpolation-filters="sRGB">
<feFlood flood-opacity="0" result="BackgroundImageFix"/>
<feColorMatrix in="SourceAlpha" type="matrix" values="0 0 0 0 0 0 0 0 0 0 0 0 0 0 0 0 0 0 127 0" result="hardAlpha"/>
<feOffset dy="4"/>
<feGaussianBlur stdDeviation="2"/>
<feColorMatrix type="matrix" values="0 0 0 0 0.309804 0 0 0 0 0.247059 0 0 0 0 0.866667 0 0 0 0.2 0"/>
<feBlend mode="darken" in2="BackgroundImageFix" result="effect1_dropShadow_508_7157"/>
<feBlend mode="normal" in="SourceGraphic" in2="effect1_dropShadow_508_7157" result="shape"/>
</filter>
<filter id="filter1_d_508_7157" x="64" y="66" width="40" height="70.7665" filterUnits="userSpaceOnUse" color-interpolation-filters="sRGB">
<feFlood flood-opacity="0" result="BackgroundImageFix"/>
<feColorMatrix in="SourceAlpha" type="matrix" values="0 0 0 0 0 0 0 0 0 0 0 0 0 0 0 0 0 0 127 0" result="hardAlpha"/>
<feOffset dy="4"/>
<feGaussianBlur stdDeviation="2"/>
<feColorMatrix type="matrix" values="0 0 0 0 0.309804 0 0 0 0 0.247059 0 0 0 0 0.866667 0 0 0 0.2 0"/>
<feBlend mode="darken" in2="BackgroundImageFix" result="effect1_dropShadow_508_7157"/>
<feBlend mode="normal" in="SourceGraphic" in2="effect1_dropShadow_508_7157" result="shape"/>
</filter>
<filter id="filter2_d_508_7157" x="52" y="76" width="40" height="70.7665" filterUnits="userSpaceOnUse" color-interpolation-filters="sRGB">
<feFlood flood-opacity="0" result="BackgroundImageFix"/>
<feColorMatrix in="SourceAlpha" type="matrix" values="0 0 0 0 0 0 0 0 0 0 0 0 0 0 0 0 0 0 127 0" result="hardAlpha"/>
<feOffset dy="4"/>
<feGaussianBlur stdDeviation="2"/>
<feColorMatrix type="matrix" values="0 0 0 0 0.309804 0 0 0 0 0.247059 0 0 0 0 0.866667 0 0 0 0.2 0"/>
<feBlend mode="darken" in2="BackgroundImageFix" result="effect1_dropShadow_508_7157"/>
<feBlend mode="normal" in="SourceGraphic" in2="effect1_dropShadow_508_7157" result="shape"/>
</filter>
<filter id="filter3_i_508_7157" x="107.563" y="50.9998" width="13.4368" height="8.66693" filterUnits="userSpaceOnUse" color-interpolation-filters="sRGB">
<feFlood flood-opacity="0" result="BackgroundImageFix"/>
<feBlend mode="normal" in="SourceGraphic" in2="BackgroundImageFix" result="shape"/>
<feColorMatrix in="SourceAlpha" type="matrix" values="0 0 0 0 0 0 0 0 0 0 0 0 0 0 0 0 0 0 127 0" result="hardAlpha"/>
<feOffset dy="2"/>
<feGaussianBlur stdDeviation="1"/>
<feComposite in2="hardAlpha" operator="arithmetic" k2="-1" k3="1"/>
<feColorMatrix type="matrix" values="0 0 0 0 0.976471 0 0 0 0 0.713726 0 0 0 0 0.0352941 0 0 0 1 0"/>
<feBlend mode="normal" in2="shape" result="effect1_innerShadow_508_7157"/>
</filter>
<filter id="filter4_i_508_7157" x="107.563" y="62.9998" width="13.4368" height="8.66693" filterUnits="userSpaceOnUse" color-interpolation-filters="sRGB">
<feFlood flood-opacity="0" result="BackgroundImageFix"/>
<feBlend mode="normal" in="SourceGraphic" in2="BackgroundImageFix" result="shape"/>
<feColorMatrix in="SourceAlpha" type="matrix" values="0 0 0 0 0 0 0 0 0 0 0 0 0 0 0 0 0 0 127 0" result="hardAlpha"/>
<feOffset dy="2"/>
<feGaussianBlur stdDeviation="1"/>
<feComposite in2="hardAlpha" operator="arithmetic" k2="-1" k3="1"/>
<feColorMatrix type="matrix" values="0 0 0 0 0.976471 0 0 0 0 0.713726 0 0 0 0 0.0352941 0 0 0 1 0"/>
<feBlend mode="normal" in2="shape" result="effect1_innerShadow_508_7157"/>
</filter>
<filter id="filter5_i_508_7157" x="22.9998" y="50.9998" width="13.4368" height="8.66693" filterUnits="userSpaceOnUse" color-interpolation-filters="sRGB">
<feFlood flood-opacity="0" result="BackgroundImageFix"/>
<feBlend mode="normal" in="SourceGraphic" in2="BackgroundImageFix" result="shape"/>
<feColorMatrix in="SourceAlpha" type="matrix" values="0 0 0 0 0 0 0 0 0 0 0 0 0 0 0 0 0 0 127 0" result="hardAlpha"/>
<feOffset dy="2"/>
<feGaussianBlur stdDeviation="1"/>
<feComposite in2="hardAlpha" operator="arithmetic" k2="-1" k3="1"/>
<feColorMatrix type="matrix" values="0 0 0 0 0.976471 0 0 0 0 0.713726 0 0 0 0 0.0352941 0 0 0 1 0"/>
<feBlend mode="normal" in2="shape" result="effect1_innerShadow_508_7157"/>
</filter>
<filter id="filter6_i_508_7157" x="22.9998" y="62.9998" width="13.4368" height="8.66693" filterUnits="userSpaceOnUse" color-interpolation-filters="sRGB">
<feFlood flood-opacity="0" result="BackgroundImageFix"/>
<feBlend mode="normal" in="SourceGraphic" in2="BackgroundImageFix" result="shape"/>
<feColorMatrix in="SourceAlpha" type="matrix" values="0 0 0 0 0 0 0 0 0 0 0 0 0 0 0 0 0 0 127 0" result="hardAlpha"/>
<feOffset dy="2"/>
<feGaussianBlur stdDeviation="1"/>
<feComposite in2="hardAlpha" operator="arithmetic" k2="-1" k3="1"/>
<feColorMatrix type="matrix" values="0 0 0 0 0.976471 0 0 0 0 0.713726 0 0 0 0 0.0352941 0 0 0 1 0"/>
<feBlend mode="normal" in2="shape" result="effect1_innerShadow_508_7157"/>
</filter>
<filter id="filter7_i_508_7157" x="34.9946" y="33.2" width="74.0106" height="79.6" filterUnits="userSpaceOnUse" color-interpolation-filters="sRGB">
<feFlood flood-opacity="0" result="BackgroundImageFix"/>
<feBlend mode="normal" in="SourceGraphic" in2="BackgroundImageFix" result="shape"/>
<feColorMatrix in="SourceAlpha" type="matrix" values="0 0 0 0 0 0 0 0 0 0 0 0 0 0 0 0 0 0 127 0" result="hardAlpha"/>
<feOffset dy="2"/>
<feGaussianBlur stdDeviation="1"/>
<feComposite in2="hardAlpha" operator="arithmetic" k2="-1" k3="1"/>
<feColorMatrix type="matrix" values="0 0 0 0 0.976471 0 0 0 0 0.713726 0 0 0 0 0.0352941 0 0 0 1 0"/>
<feBlend mode="normal" in2="shape" result="effect1_innerShadow_508_7157"/>
</filter>
<filter id="filter8_d_508_7157" x="38.2872" y="36.6188" width="67.4255" height="74.7625" filterUnits="userSpaceOnUse" color-interpolation-filters="sRGB">
<feFlood flood-opacity="0" result="BackgroundImageFix"/>
<feColorMatrix in="SourceAlpha" type="matrix" values="0 0 0 0 0 0 0 0 0 0 0 0 0 0 0 0 0 0 127 0" result="hardAlpha"/>
<feOffset dy="2"/>
<feGaussianBlur stdDeviation="2"/>
<feColorMatrix type="matrix" values="0 0 0 0 0.927721 0 0 0 0 0.665867 0 0 0 0 0.0535899 0 0 0 0.4 0"/>
<feBlend mode="normal" in2="BackgroundImageFix" result="effect1_dropShadow_508_7157"/>
<feBlend mode="normal" in="SourceGraphic" in2="effect1_dropShadow_508_7157" result="shape"/>
</filter>
<filter id="filter9_d_508_7157" x="48" y="48" width="48" height="52" filterUnits="userSpaceOnUse" color-interpolation-filters="sRGB">
<feFlood flood-opacity="0" result="BackgroundImageFix"/>
<feColorMatrix in="SourceAlpha" type="matrix" values="0 0 0 0 0 0 0 0 0 0 0 0 0 0 0 0 0 0 127 0" result="hardAlpha"/>
<feOffset dy="2"/>
<feGaussianBlur stdDeviation="2"/>
<feColorMatrix type="matrix" values="0 0 0 0 0.996078 0 0 0 0 0.733333 0 0 0 0 0.105882 0 0 0 1 0"/>
<feBlend mode="normal" in2="BackgroundImageFix" result="effect1_dropShadow_508_7157"/>
<feBlend mode="normal" in="SourceGraphic" in2="effect1_dropShadow_508_7157" result="shape"/>
</filter>
<filter id="filter10_d_508_7157" x="88" y="48" width="20" height="20" filterUnits="userSpaceOnUse" color-interpolation-filters="sRGB">
<feFlood flood-opacity="0" result="BackgroundImageFix"/>
<feColorMatrix in="SourceAlpha" type="matrix" values="0 0 0 0 0 0 0 0 0 0 0 0 0 0 0 0 0 0 127 0" result="hardAlpha"/>
<feOffset/>
<feGaussianBlur stdDeviation="2"/>
<feColorMatrix type="matrix" values="0 0 0 0 1 0 0 0 0 0.94902 0 0 0 0 0.305882 0 0 0 1 0"/>
<feBlend mode="normal" in2="BackgroundImageFix" result="effect1_dropShadow_508_7157"/>
<feBlend mode="normal" in="SourceGraphic" in2="effect1_dropShadow_508_7157" result="shape"/>
</filter>
<filter id="filter11_d_508_7157" x="48" y="82" width="16" height="16" filterUnits="userSpaceOnUse" color-interpolation-filters="sRGB">
<feFlood flood-opacity="0" result="BackgroundImageFix"/>
<feColorMatrix in="SourceAlpha" type="matrix" values="0 0 0 0 0 0 0 0 0 0 0 0 0 0 0 0 0 0 127 0" result="hardAlpha"/>
<feOffset/>
<feGaussianBlur stdDeviation="2"/>
<feColorMatrix type="matrix" values="0 0 0 0 1 0 0 0 0 0.94902 0 0 0 0 0.305882 0 0 0 1 0"/>
<feBlend mode="normal" in2="BackgroundImageFix" result="effect1_dropShadow_508_7157"/>
<feBlend mode="normal" in="SourceGraphic" in2="effect1_dropShadow_508_7157" result="shape"/>
</filter>
<filter id="filter12_d_508_7157" x="36" y="52" width="18" height="18" filterUnits="userSpaceOnUse" color-interpolation-filters="sRGB">
<feFlood flood-opacity="0" result="BackgroundImageFix"/>
<feColorMatrix in="SourceAlpha" type="matrix" values="0 0 0 0 0 0 0 0 0 0 0 0 0 0 0 0 0 0 127 0" result="hardAlpha"/>
<feOffset/>
<feGaussianBlur stdDeviation="2"/>
<feColorMatrix type="matrix" values="0 0 0 0 1 0 0 0 0 0.94902 0 0 0 0 0.305882 0 0 0 1 0"/>
<feBlend mode="normal" in2="BackgroundImageFix" result="effect1_dropShadow_508_7157"/>
<feBlend mode="normal" in="SourceGraphic" in2="effect1_dropShadow_508_7157" result="shape"/>
</filter>
<filter id="filter13_d_508_7157" x="88" y="84" width="14" height="14" filterUnits="userSpaceOnUse" color-interpolation-filters="sRGB">
<feFlood flood-opacity="0" result="BackgroundImageFix"/>
<feColorMatrix in="SourceAlpha" type="matrix" values="0 0 0 0 0 0 0 0 0 0 0 0 0 0 0 0 0 0 127 0" result="hardAlpha"/>
<feOffset/>
<feGaussianBlur stdDeviation="2"/>
<feColorMatrix type="matrix" values="0 0 0 0 1 0 0 0 0 0.94902 0 0 0 0 0.305882 0 0 0 1 0"/>
<feBlend mode="normal" in2="BackgroundImageFix" result="effect1_dropShadow_508_7157"/>
<feBlend mode="normal" in="SourceGraphic" in2="effect1_dropShadow_508_7157" result="shape"/>
</filter>
<linearGradient id="paint0_linear_508_7157" x1="118" y1="40" x2="118" y2="78" gradientUnits="userSpaceOnUse">
<stop stop-color="#F7C71A"/>
<stop offset="1" stop-color="#FBAA00"/>
</linearGradient>
<linearGradient id="paint1_linear_508_7157" x1="118" y1="40" x2="118" y2="78" gradientUnits="userSpaceOnUse">
<stop stop-color="#FFDF6B"/>
<stop offset="1" stop-color="#F8A60A"/>
</linearGradient>
<linearGradient id="paint2_linear_508_7157" x1="26" y1="40" x2="26" y2="78" gradientUnits="userSpaceOnUse">
<stop stop-color="#F7C71A"/>
<stop offset="1" stop-color="#FBAA00"/>
</linearGradient>
<linearGradient id="paint3_linear_508_7157" x1="26" y1="40" x2="26" y2="78" gradientUnits="userSpaceOnUse">
<stop stop-color="#FFDF6B"/>
<stop offset="1" stop-color="#F8A60A"/>
</linearGradient>
<linearGradient id="paint4_linear_508_7157" x1="44" y1="32.7075" x2="44" y2="66.0001" gradientUnits="userSpaceOnUse">
<stop stop-color="#F7C71A"/>
<stop offset="1" stop-color="#FBAA00"/>
</linearGradient>
<linearGradient id="paint5_linear_508_7157" x1="44" y1="32.7075" x2="44" y2="66.0001" gradientUnits="userSpaceOnUse">
<stop stop-color="#FFDF6B"/>
<stop offset="1" stop-color="#F8A60A"/>
</linearGradient>
<linearGradient id="paint6_linear_508_7157" x1="26" y1="26" x2="26" y2="118" gradientUnits="userSpaceOnUse">
<stop stop-color="#FDE046"/>
<stop offset="1" stop-color="#F9B800"/>
</linearGradient>
<linearGradient id="paint7_linear_508_7157" x1="40" y1="40" x2="40" y2="104" gradientUnits="userSpaceOnUse">
<stop stop-color="#FFF550"/>
<stop offset="1" stop-color="#FFD541"/>
</linearGradient>
<linearGradient id="paint8_linear_508_7157" x1="56" y1="54" x2="56" y2="72" gradientUnits="userSpaceOnUse">
<stop stop-color="#27DEEB"/>
<stop offset="1" stop-color="#08C9FF"/>
</linearGradient>
<linearGradient id="paint9_linear_508_7157" x1="56" y1="72" x2="56" y2="90" gradientUnits="userSpaceOnUse">
<stop stop-color="#009BF6"/>
<stop offset="1" stop-color="#00B5FF"/>
</linearGradient>
<linearGradient id="paint10_linear_508_7157" x1="64.2856" y1="54" x2="64.2856" y2="72" gradientUnits="userSpaceOnUse">
<stop stop-color="#8AFFFF"/>
<stop offset="1" stop-color="#0DF3FF"/>
</linearGradient>
<linearGradient id="paint11_linear_508_7157" x1="64.2856" y1="72" x2="64.2856" y2="90" gradientUnits="userSpaceOnUse">
<stop stop-color="#00BAF3"/>
<stop offset="1" stop-color="#00B5FF"/>
</linearGradient>
</defs>
</svg>
