<svg width="115" height="124" viewBox="14.5 22 115 124" fill="none" xmlns="http://www.w3.org/2000/svg">
<g filter="url(#filter0_d_508_7159)">
<path fill-rule="evenodd" clip-rule="evenodd" d="M40 66H72V126.764C72 128.251 70.4354 129.218 69.1056 128.553L56 122L42.8944 128.553C41.5646 129.218 40 128.251 40 126.764V66Z" fill="#7F45F6"/>
</g>
<g filter="url(#filter1_d_508_7159)">
<path fill-rule="evenodd" clip-rule="evenodd" d="M48 72H80V132.764C80 134.251 78.4354 135.218 77.1056 134.553L64 128L50.8944 134.553C49.5646 135.218 48 134.251 48 132.764V72Z" fill="#50E2C2"/>
</g>
<g filter="url(#filter2_d_508_7159)">
<path fill-rule="evenodd" clip-rule="evenodd" d="M72 66H104V126.764C104 128.251 102.435 129.218 101.106 128.553L88 122L74.8944 128.553C73.5646 129.218 72 128.251 72 126.764V66Z" fill="#7F45F6"/>
</g>
<g filter="url(#filter3_d_508_7159)">
<path fill-rule="evenodd" clip-rule="evenodd" d="M64 72H96V132.764C96 134.251 94.4354 135.218 93.1056 134.553L80 128L66.8944 134.553C65.5646 135.218 64 134.251 64 132.764V72Z" fill="#50E2C2"/>
</g>
<g filter="url(#filter4_d_508_7159)">
<path fill-rule="evenodd" clip-rule="evenodd" d="M56 76H88V136.764C88 138.251 86.4354 139.218 85.1056 138.553L72 132L58.8944 138.553C57.5646 139.218 56 138.251 56 136.764V76Z" fill="white"/>
</g>
<mask id="mask0_508_7159" style="mask-type:luminance" maskUnits="userSpaceOnUse" x="56" y="76" width="32" height="63">
<path fill-rule="evenodd" clip-rule="evenodd" d="M56 76H88V136.764C88 138.251 86.4354 139.218 85.1056 138.553L72 132L58.8944 138.553C57.5646 139.218 56 138.251 56 136.764V76Z" fill="white"/>
</mask>
<g mask="url(#mask0_508_7159)">
<rect x="64" y="76" width="16" height="64" fill="#F55462"/>
</g>
<path opacity="0.1" fill-rule="evenodd" clip-rule="evenodd" d="M68 35.3118C70.4752 33.8827 73.5248 33.8827 76 35.3118L107.837 53.693C110.312 55.122 111.837 57.7631 111.837 60.6212V97.3836C111.837 100.242 110.312 102.883 107.837 104.312L76 122.693C73.5248 124.122 70.4752 124.122 68 122.693L36.1628 104.312C33.6876 102.883 32.1628 100.242 32.1628 97.3836L32.1628 60.6212C32.1628 57.7631 33.6876 55.122 36.1628 53.693L68 35.3118Z" fill="black" style="mix-blend-mode:multiply"/>
<path fill-rule="evenodd" clip-rule="evenodd" d="M49.6331 78.2475L39.6331 74.2475V72.2475L29.6134 68.0726C28.7473 67.7117 27.8207 68.4398 27.9665 69.3667L29.3693 78.2855C29.4749 78.9571 29.9145 79.529 30.5363 79.8039L49.6331 88.2475V78.2475Z" fill="url(#paint0_linear_508_7159)" stroke="url(#paint1_linear_508_7159)" stroke-width="2" stroke-linecap="round" stroke-linejoin="round"/>
<path fill-rule="evenodd" clip-rule="evenodd" d="M45.6331 68.2475L35.6331 64.2475V62.2475L25.6134 58.0726C24.7473 57.7117 23.8207 58.4398 23.9665 59.3667L25.3693 68.2855C25.4749 68.9571 25.9145 69.529 26.5363 69.8039L45.6331 78.2475V68.2475Z" fill="url(#paint2_linear_508_7159)" stroke="url(#paint3_linear_508_7159)" stroke-width="2" stroke-linecap="round" stroke-linejoin="round"/>
<path fill-rule="evenodd" clip-rule="evenodd" d="M41.6331 58.2475L31.6331 54.2475V52.2475L21.6134 48.0726C20.7473 47.7117 19.8207 48.4398 19.9665 49.3667L21.3693 58.2855C21.4749 58.9571 21.9145 59.529 22.5363 59.8039L41.6331 68.2475V58.2475Z" fill="url(#paint4_linear_508_7159)" stroke="url(#paint5_linear_508_7159)" stroke-width="2" stroke-linecap="round" stroke-linejoin="round"/>
<path fill-rule="evenodd" clip-rule="evenodd" d="M37.6331 48.2476L27.6331 44.2476V42.2476L17.6134 38.0727C16.7472 37.7118 15.8206 38.4399 15.9664 39.3668L17.3692 48.2856C17.4749 48.9572 17.9144 49.5291 18.5362 49.804L37.6331 58.2476V48.2476Z" fill="url(#paint6_linear_508_7159)" stroke="url(#paint7_linear_508_7159)" stroke-width="2" stroke-linecap="round" stroke-linejoin="round"/>
<mask id="mask1_508_7159" style="mask-type:luminance" maskUnits="userSpaceOnUse" x="14" y="36" width="37" height="52">
<path fill-rule="evenodd" clip-rule="evenodd" d="M20.421 52.2563C20.2504 51.1717 19.5405 50.2479 18.5363 49.8039C17.9145 49.529 17.4749 48.9571 17.3693 48.2855L15.9665 39.3667C15.932 39.1477 15.9589 38.9234 16.0442 38.7188C16.2991 38.107 17.0017 37.8177 17.6134 38.0726L26.7172 41.8658C27.2718 42.0969 27.6331 42.6389 27.6331 43.2398C27.6331 43.8484 28.0037 44.3957 28.5688 44.6217L35.1187 47.2417C36.6373 47.8492 37.6331 49.32 37.6331 50.9556V54.4934C37.6331 55.7944 38.4252 56.9643 39.6331 57.4475C40.8411 57.9306 41.6331 59.1006 41.6331 60.4015V64.4934C41.6331 65.7944 42.4252 66.9643 43.6331 67.4475C44.8411 67.9307 45.6331 69.1006 45.6331 70.4015V74.4934C45.6331 75.7944 46.4252 76.9643 47.6331 77.4475C48.8411 77.9307 49.6331 79.1006 49.6331 80.4015V82.1054C49.6331 84.9967 46.66 86.9329 44.0156 85.7637L30.5363 79.8039C29.9145 79.529 29.4749 78.9571 29.3693 78.2855L28.421 72.2563C28.2504 71.1717 27.5405 70.2479 26.5363 69.8039C25.9145 69.529 25.4749 68.9571 25.3693 68.2855L24.421 62.2563C24.2504 61.1717 23.5405 60.2479 22.5363 59.8039C21.9145 59.529 21.4749 58.9571 21.3693 58.2855L20.421 52.2563Z" fill="white" stroke="white" stroke-width="2"/>
</mask>
<g mask="url(#mask1_508_7159)">
<g opacity="0.1">
<path fill-rule="evenodd" clip-rule="evenodd" d="M65.9969 25.3537C69.7097 23.2101 74.2841 23.2101 77.9969 25.3537L109.394 43.4808C113.107 45.6244 115.394 49.5859 115.394 53.8731V90.1273C115.394 94.4145 113.107 98.376 109.394 100.52L77.9969 118.647C74.2841 120.79 69.7097 120.79 65.9969 118.647L34.5999 100.52C30.887 98.376 28.5999 94.4145 28.5999 90.1273L28.5999 53.8731C28.5999 49.5859 30.887 45.6244 34.5999 43.4808L65.9969 25.3537Z" fill="black" style="mix-blend-mode:multiply"/>
</g>
</g>
<path fill-rule="evenodd" clip-rule="evenodd" d="M94.3669 78.2475L104.367 74.2475V72.2475L114.387 68.0726C115.253 67.7117 116.179 68.4398 116.034 69.3667L114.631 78.2855C114.525 78.9571 114.086 79.529 113.464 79.8039L94.3669 88.2475V78.2475Z" fill="url(#paint8_linear_508_7159)" stroke="url(#paint9_linear_508_7159)" stroke-width="2" stroke-linecap="round" stroke-linejoin="round"/>
<path fill-rule="evenodd" clip-rule="evenodd" d="M98.3669 68.2475L108.367 64.2475V62.2475L118.387 58.0726C119.253 57.7117 120.179 58.4398 120.034 59.3667L118.631 68.2855C118.525 68.9571 118.086 69.529 117.464 69.8039L98.3669 78.2475V68.2475Z" fill="url(#paint10_linear_508_7159)" stroke="url(#paint11_linear_508_7159)" stroke-width="2" stroke-linecap="round" stroke-linejoin="round"/>
<path fill-rule="evenodd" clip-rule="evenodd" d="M102.367 58.2475L112.367 54.2475V52.2475L122.387 48.0726C123.253 47.7117 124.179 48.4398 124.034 49.3667L122.631 58.2855C122.525 58.9571 122.086 59.529 121.464 59.8039L102.367 68.2475V58.2475Z" fill="url(#paint12_linear_508_7159)" stroke="url(#paint13_linear_508_7159)" stroke-width="2" stroke-linecap="round" stroke-linejoin="round"/>
<path fill-rule="evenodd" clip-rule="evenodd" d="M106.367 48.2475L116.367 44.2475V42.2475L126.387 38.0726C127.253 37.7117 128.179 38.4398 128.034 39.3667L126.631 48.2855C126.525 48.9571 126.086 49.529 125.464 49.8039L106.367 58.2475V48.2475Z" fill="url(#paint14_linear_508_7159)" stroke="url(#paint15_linear_508_7159)" stroke-width="2" stroke-linecap="round" stroke-linejoin="round"/>
<mask id="mask2_508_7159" style="mask-type:luminance" maskUnits="userSpaceOnUse" x="93" y="36" width="37" height="52">
<path fill-rule="evenodd" clip-rule="evenodd" d="M123.579 52.2563C123.75 51.1717 124.46 50.2479 125.464 49.8039C126.086 49.529 126.525 48.9571 126.631 48.2855L128.034 39.3667C128.068 39.1477 128.041 38.9234 127.956 38.7188C127.701 38.107 126.998 37.8177 126.387 38.0726L117.283 41.8658C116.728 42.0969 116.367 42.6389 116.367 43.2398C116.367 43.8484 115.996 44.3957 115.431 44.6217L108.881 47.2417C107.363 47.8492 106.367 49.32 106.367 50.9556V54.4934C106.367 55.7944 105.575 56.9643 104.367 57.4475C103.159 57.9306 102.367 59.1006 102.367 60.4015V64.4934C102.367 65.7944 101.575 66.9643 100.367 67.4475C99.1589 67.9307 98.3669 69.1006 98.3669 70.4015V74.4934C98.3669 75.7944 97.5748 76.9643 96.3669 77.4475C95.1589 77.9307 94.3669 79.1006 94.3669 80.4015V82.1054C94.3669 84.9967 97.34 86.9329 99.9844 85.7637L113.464 79.8039C114.086 79.529 114.525 78.9571 114.631 78.2855L115.579 72.2563C115.75 71.1717 116.46 70.2479 117.464 69.8039C118.086 69.529 118.525 68.9571 118.631 68.2855L119.579 62.2563C119.75 61.1717 120.46 60.2479 121.464 59.8039C122.086 59.529 122.525 58.9571 122.631 58.2855L123.579 52.2563Z" fill="white" stroke="white" stroke-width="2"/>
</mask>
<g mask="url(#mask2_508_7159)">
<g opacity="0.1">
<path fill-rule="evenodd" clip-rule="evenodd" d="M77.997 25.3535C74.2842 23.2099 69.7098 23.2099 65.997 25.3535L34.6 43.4805C30.8871 45.6241 28.6 49.5857 28.6 53.8729V90.127C28.6 94.4142 30.8871 98.3758 34.6 100.519L65.997 118.646C69.7098 120.79 74.2842 120.79 77.997 118.646L109.394 100.519C113.107 98.3758 115.394 94.4142 115.394 90.127L115.394 53.8729C115.394 49.5857 113.107 45.6241 109.394 43.4805L77.997 25.3535Z" fill="black" style="mix-blend-mode:multiply"/>
</g>
</g>
<path fill-rule="evenodd" clip-rule="evenodd" d="M36 84L28.948 87.526C28.355 87.8225 27.9475 88.3935 27.8599 89.0505L26.3205 100.596C26.1892 101.581 27.2428 102.29 28.1053 101.797L40 95L36 84Z" fill="url(#paint16_linear_508_7159)" stroke="url(#paint17_linear_508_7159)" stroke-width="2" stroke-linecap="round" stroke-linejoin="round"/>
<path fill-rule="evenodd" clip-rule="evenodd" d="M108 84L115.052 87.526C115.645 87.8225 116.052 88.3935 116.14 89.0505L117.68 100.596C117.811 101.581 116.757 102.29 115.895 101.797L104 95L108 84Z" fill="url(#paint18_linear_508_7159)" stroke="url(#paint19_linear_508_7159)" stroke-width="2" stroke-linecap="round" stroke-linejoin="round"/>
<path d="M71.5332 23.1113C71.8379 22.94 72.2102 22.9406 72.5146 23.1123L88.46 32.1035C89.3557 32.6086 88.9979 33.9742 87.9697 33.9746H56.0303C55.0013 33.9744 54.6431 32.6069 55.54 32.1025L71.5332 23.1113Z" fill="url(#paint20_linear_508_7159)" stroke="url(#paint21_linear_508_7159)" stroke-width="2" stroke-linecap="round" stroke-linejoin="round"/>
<g filter="url(#filter5_i_508_7159)">
<path fill-rule="evenodd" clip-rule="evenodd" d="M108 100.061C108 100.775 107.619 101.435 107 101.793L78 118.536C74.2872 120.679 69.7128 120.679 66 118.536L37 101.793C36.3812 101.435 36 100.775 36 100.061V92.2579C36 90.7162 37.6707 89.7543 39.004 90.5282L66.3776 106.417C69.8543 108.435 74.1457 108.435 77.6224 106.417L104.996 90.5282C106.329 89.7543 108 90.7162 108 92.2579V100.061Z" fill="url(#paint22_linear_508_7159)"/>
</g>
<path d="M105.498 91.3933C106.165 91.0064 107 91.4869 107 92.2576V100.06C107 100.373 106.854 100.666 106.61 100.853L106.5 100.927L77.5 117.67C74.203 119.573 70.1647 119.633 66.8213 117.848L66.5 117.67L37.5 100.927C37.1906 100.748 37 100.418 37 100.06V92.2576C37.0002 91.4869 37.8354 91.0064 38.502 91.3933L65.876 107.282C69.6628 109.48 74.3372 109.48 78.124 107.282L105.498 91.3933Z" stroke="url(#paint23_linear_508_7159)" stroke-width="2" stroke-linecap="round" stroke-linejoin="round"/>
<mask id="path-26-inside-1_508_7159" fill="white">
<path fill-rule="evenodd" clip-rule="evenodd" d="M64.005 29.4572C64.0051 29.4653 64.0051 29.4734 64.0051 29.4816V36.9294C64.0051 37.5982 63.6708 38.2227 63.1143 38.5936L43.1092 51.9275C41.7801 52.8134 40 51.8606 40 50.2633V41.1487C40 40.4373 40.3779 39.7795 40.9924 39.4211L55.2758 31.0909L60.341 23.4947C61.4387 21.8484 64.005 22.6256 64.005 24.6043V29.4572Z"/>
</mask>
<path fill-rule="evenodd" clip-rule="evenodd" d="M64.005 29.4572C64.0051 29.4653 64.0051 29.4734 64.0051 29.4816V36.9294C64.0051 37.5982 63.6708 38.2227 63.1143 38.5936L43.1092 51.9275C41.7801 52.8134 40 51.8606 40 50.2633V41.1487C40 40.4373 40.3779 39.7795 40.9924 39.4211L55.2758 31.0909L60.341 23.4947C61.4387 21.8484 64.005 22.6256 64.005 24.6043V29.4572Z" fill="url(#paint24_linear_508_7159)"/>
<path d="M64.005 29.4572H62.005C62.005 29.4649 62.005 29.4726 62.0051 29.4803L64.005 29.4572ZM63.1143 38.5936L62.0051 36.9294H62.0051L63.1143 38.5936ZM43.1092 51.9275L44.2185 53.5917H44.2185L43.1092 51.9275ZM40.9924 39.4211L39.9848 37.6934L39.9848 37.6934L40.9924 39.4211ZM55.2758 31.0909L56.2833 32.8186C56.5463 32.6652 56.7708 32.4538 56.9397 32.2005L55.2758 31.0909ZM60.341 23.4947L58.677 22.3851V22.3851L60.341 23.4947ZM62.0051 29.4803C62.0051 29.4805 62.0051 29.4809 62.0051 29.4816H66.0051C66.0051 29.4659 66.005 29.4501 66.0048 29.4342L62.0051 29.4803ZM62.0051 29.4816V36.9294H66.0051V29.4816H62.0051ZM62.0051 36.9294H62.0051L64.2236 40.2578C65.3366 39.516 66.0051 38.2669 66.0051 36.9294H62.0051ZM62.0051 36.9294L42 50.2633L44.2185 53.5917L64.2236 40.2578L62.0051 36.9294ZM42 50.2633L42 50.2633H38C38 53.4579 41.5602 55.3635 44.2185 53.5917L42 50.2633ZM42 50.2633V41.1487H38V50.2633H42ZM42 41.1487L42 41.1487L39.9848 37.6934C38.7558 38.4102 38 39.7259 38 41.1487H42ZM42 41.1487L56.2833 32.8186L54.2682 29.3633L39.9848 37.6934L42 41.1487ZM56.9397 32.2005L62.005 24.6043L58.677 22.3851L53.6118 29.9814L56.9397 32.2005ZM62.005 24.6043C62.0134 24.5915 62.0192 24.5851 62.0212 24.583C62.0231 24.5809 62.0227 24.5817 62.0195 24.5841C62.0164 24.5865 62.012 24.5893 62.0067 24.5921C62.0014 24.5948 61.9964 24.5968 61.992 24.5982C61.9832 24.6011 61.9799 24.6006 61.9834 24.6006C61.9873 24.6006 61.9951 24.6013 62.005 24.6043C62.0148 24.6073 62.0217 24.611 62.025 24.6132C62.0278 24.6151 62.0248 24.6137 62.0191 24.6064C62.0162 24.6028 62.0131 24.5983 62.0103 24.5932C62.0074 24.5879 62.0053 24.5831 62.004 24.5794C62.0027 24.5757 62.0028 24.5747 62.0033 24.5776C62.0037 24.5804 62.005 24.589 62.005 24.6043H66.005C66.005 20.6468 60.8725 19.0926 58.677 22.3851L62.005 24.6043ZM62.005 24.6043V29.4572H66.005V24.6043H62.005Z" fill="url(#paint25_linear_508_7159)" mask="url(#path-26-inside-1_508_7159)"/>
<mask id="path-28-inside-2_508_7159" fill="white">
<path fill-rule="evenodd" clip-rule="evenodd" d="M80.8908 38.5936C80.3343 38.2227 80 37.5982 80 36.9294V24.6043C80 22.6256 82.5662 21.8484 83.664 23.4947L88.7291 31.0907L103.013 39.4211C103.627 39.7795 104.005 40.4373 104.005 41.1487V50.2633C104.005 51.8606 102.225 52.8134 100.896 51.9275L95.6986 48.4633C95.6937 48.4601 95.6889 48.4569 95.684 48.4537L80.8908 38.5936Z"/>
</mask>
<path fill-rule="evenodd" clip-rule="evenodd" d="M80.8908 38.5936C80.3343 38.2227 80 37.5982 80 36.9294V24.6043C80 22.6256 82.5662 21.8484 83.664 23.4947L88.7291 31.0907L103.013 39.4211C103.627 39.7795 104.005 40.4373 104.005 41.1487V50.2633C104.005 51.8606 102.225 52.8134 100.896 51.9275L95.6986 48.4633C95.6937 48.4601 95.6889 48.4569 95.684 48.4537L80.8908 38.5936Z" fill="url(#paint26_linear_508_7159)"/>
<path d="M80.8908 38.5936L82 36.9294H82L80.8908 38.5936ZM83.664 23.4947L82 24.6043L83.664 23.4947ZM88.7291 31.0907L87.0651 32.2002C87.234 32.4536 87.4585 32.665 87.7215 32.8183L88.7291 31.0907ZM103.013 39.4211L104.02 37.6934L104.02 37.6934L103.013 39.4211ZM100.896 51.9275L99.7867 53.5917H99.7867L100.896 51.9275ZM95.6986 48.4633L96.8078 46.7991C96.8037 46.7964 96.7996 46.7936 96.7955 46.7909L95.6986 48.4633ZM95.684 48.4537L94.5748 50.1179L94.5749 50.118L95.684 48.4537ZM78 36.9294C78 38.2669 78.6685 39.516 79.7815 40.2578L82 36.9294H82H78ZM78 24.6043V36.9294H82V24.6043H78ZM85.328 22.3851C83.1325 19.0926 78 20.6468 78 24.6043H82C82 24.589 82.0012 24.5804 82.0017 24.5776C82.0022 24.5747 82.0022 24.5757 82.0009 24.5794C81.9996 24.5831 81.9976 24.5879 81.9947 24.5932C81.9918 24.5983 81.9888 24.6028 81.9859 24.6064C81.9802 24.6137 81.9771 24.6151 81.98 24.6132C81.9832 24.611 81.9901 24.6073 82 24.6043C82.0099 24.6013 82.0177 24.6006 82.0216 24.6006C82.025 24.6006 82.0217 24.6011 82.0129 24.5982C82.0086 24.5968 82.0035 24.5948 81.9983 24.5921C81.993 24.5893 81.9886 24.5865 81.9855 24.5841C81.9823 24.5817 81.9818 24.5809 81.9838 24.583C81.9858 24.5851 81.9915 24.5915 82 24.6043L85.328 22.3851ZM90.393 29.9811L85.328 22.3851L82 24.6043L87.0651 32.2002L90.393 29.9811ZM104.02 37.6934L89.7366 29.363L87.7215 32.8183L102.005 41.1487L104.02 37.6934ZM106.005 41.1487C106.005 39.7259 105.249 38.4102 104.02 37.6934L102.005 41.1487L102.005 41.1487H106.005ZM106.005 50.2633V41.1487H102.005V50.2633H106.005ZM99.7867 53.5917C102.445 55.3635 106.005 53.4579 106.005 50.2633H102.005L102.005 50.2633L99.7867 53.5917ZM94.5893 50.1275L99.7867 53.5917L102.005 50.2633L96.8078 46.7991L94.5893 50.1275ZM94.5749 50.118C94.5835 50.1237 94.5924 50.1296 94.6017 50.1357L96.7955 46.7909C96.795 46.7906 96.7943 46.7901 96.7931 46.7894L94.5749 50.118ZM79.7815 40.2578L94.5748 50.1179L96.7933 46.7895L82 36.9294L79.7815 40.2578Z" fill="url(#paint27_linear_508_7159)" mask="url(#path-28-inside-2_508_7159)"/>
<path fill-rule="evenodd" clip-rule="evenodd" d="M68 28.3094C70.4752 26.8803 73.5248 26.8803 76 28.3094L107.837 46.6906C110.312 48.1197 111.837 50.7607 111.837 53.6188V90.3812C111.837 93.2393 110.312 95.8803 107.837 97.3094L76 115.691C73.5248 117.12 70.4752 117.12 68 115.691L36.1628 97.3094C33.6876 95.8803 32.1628 93.2393 32.1628 90.3812V53.6188C32.1628 50.7607 33.6876 48.1197 36.1628 46.6906L68 28.3094Z" fill="url(#paint28_linear_508_7159)" stroke="#FFF04D" stroke-opacity="0.4" stroke-width="2"/>
<mask id="mask3_508_7159" style="mask-type:luminance" maskUnits="userSpaceOnUse" x="32" y="27" width="80" height="90">
<path fill-rule="evenodd" clip-rule="evenodd" d="M68 28.3094C70.4752 26.8803 73.5248 26.8803 76 28.3094L107.837 46.6906C110.312 48.1197 111.837 50.7607 111.837 53.6188V90.3812C111.837 93.2393 110.312 95.8803 107.837 97.3094L76 115.691C73.5248 117.12 70.4752 117.12 68 115.691L36.1628 97.3094C33.6876 95.8803 32.1628 93.2393 32.1628 90.3812V53.6188C32.1628 50.7607 33.6876 48.1197 36.1628 46.6906L68 28.3094Z" fill="white"/>
</mask>
<g mask="url(#mask3_508_7159)">
<g opacity="0.4" style="mix-blend-mode:multiply">
<path d="M72 71.9999L84 24H60L72 71.9999L46.5442 29.5736L29.5737 46.5441L72 71.9999L24 60V84L72 71.9999L29.5737 97.4559L46.5442 114.426L72 71.9999L60 120H84L72 71.9999L97.4558 114.426L114.426 97.4559L72 71.9999L120 84V60L72 71.9999L114.426 46.5442L97.4557 29.5736L72 71.9999Z" fill="#FFD640"/>
</g>
<g filter="url(#filter6_di_508_7159)">
<path fill-rule="evenodd" clip-rule="evenodd" d="M103.342 50.377L75.0332 34.0136C73.1563 32.9287 70.8439 32.9287 68.967 34.0136L40.6581 50.377C38.7812 51.4619 37.625 53.4668 37.625 55.6366V67.4413L35.3299 70.8879C34.8829 71.5593 34.8829 72.4335 35.3299 73.1049L37.625 76.5516V88.3633C37.625 90.5331 38.7812 92.538 40.6581 93.6229L68.967 109.986C70.8439 111.071 73.1563 111.071 75.0332 109.986L103.342 93.6229C105.219 92.538 106.375 90.5331 106.375 88.3633V76.5512L108.67 73.1049C109.117 72.4335 109.117 71.5593 108.67 70.8879L106.375 67.4416V55.6366C106.375 53.4668 105.219 51.4619 103.342 50.377ZM39.647 76.5514V88.3633C39.647 89.8098 40.4178 91.1464 41.669 91.8697L69.9779 108.233C71.2292 108.956 72.7708 108.956 74.022 108.233L102.331 91.8697C103.582 91.1464 104.353 89.8098 104.353 88.3633V76.5515L102.058 73.1049C101.611 72.4335 101.611 71.5593 102.058 70.8879L104.353 67.4414V55.6366C104.353 54.1901 103.582 52.8534 102.331 52.1302L74.022 35.7668C72.7708 35.0435 71.2292 35.0435 69.9779 35.7668L41.669 52.1302C40.4178 52.8534 39.647 54.1901 39.647 55.6366V67.4415L41.9419 70.8879C42.389 71.5593 42.389 72.4335 41.9419 73.1049L39.647 76.5514Z" fill="#676763"/>
</g>
<mask id="mask4_508_7159" style="mask-type:luminance" maskUnits="userSpaceOnUse" x="34" y="33" width="76" height="78">
<path fill-rule="evenodd" clip-rule="evenodd" d="M103.342 50.377L75.0332 34.0136C73.1563 32.9287 70.8439 32.9287 68.967 34.0136L40.6581 50.377C38.7812 51.4619 37.625 53.4668 37.625 55.6366V67.4413L35.3299 70.8879C34.8829 71.5593 34.8829 72.4335 35.3299 73.1049L37.625 76.5516V88.3633C37.625 90.5331 38.7812 92.538 40.6581 93.6229L68.967 109.986C70.8439 111.071 73.1563 111.071 75.0332 109.986L103.342 93.6229C105.219 92.538 106.375 90.5331 106.375 88.3633V76.5512L108.67 73.1049C109.117 72.4335 109.117 71.5593 108.67 70.8879L106.375 67.4416V55.6366C106.375 53.4668 105.219 51.4619 103.342 50.377ZM39.647 76.5514V88.3633C39.647 89.8098 40.4178 91.1464 41.669 91.8697L69.9779 108.233C71.2292 108.956 72.7708 108.956 74.022 108.233L102.331 91.8697C103.582 91.1464 104.353 89.8098 104.353 88.3633V76.5515L102.058 73.1049C101.611 72.4335 101.611 71.5593 102.058 70.8879L104.353 67.4414V55.6366C104.353 54.1901 103.582 52.8534 102.331 52.1302L74.022 35.7668C72.7708 35.0435 71.2292 35.0435 69.9779 35.7668L41.669 52.1302C40.4178 52.8534 39.647 54.1901 39.647 55.6366V67.4415L41.9419 70.8879C42.389 71.5593 42.389 72.4335 41.9419 73.1049L39.647 76.5514Z" fill="white"/>
</mask>
<g mask="url(#mask4_508_7159)">
<g opacity="0.4" style="mix-blend-mode:multiply">
<path fill-rule="evenodd" clip-rule="evenodd" d="M72 72L24 60V84L72 72ZM72 72L84 24H60L72 72ZM72 72L120 84V60L72 72ZM72 72L97.4558 29.5736L114.426 46.5442L72 72ZM72 72L114.426 97.4558L97.4558 114.426L72 72ZM72 72L46.5442 114.426L29.5736 97.4558L72 72ZM72 72L84 120H60L72 72Z" fill="#5A5951"/>
<path d="M46.5442 29.5736L29.5736 46.5442L72 72L46.5442 29.5736Z" fill="#5A5951"/>
</g>
</g>
<path d="M75.5 29.1754C73.3342 27.9249 70.6658 27.9249 68.5 29.1754L36.6628 47.5566C34.497 48.807 33.1628 51.1179 33.1628 53.6187L33.1628 90.3811C33.1628 92.882 34.497 95.1929 36.6628 96.4433L68.5 114.825C70.6658 116.075 73.3342 116.075 75.5 114.825L107.337 96.4433C109.503 95.1929 110.837 92.882 110.837 90.3811V53.6187C110.837 51.1179 109.503 48.807 107.337 47.5566L75.5 29.1754Z" stroke="#FAB90A" stroke-width="2"/>
<path opacity="0.4" d="M75.5 114.825C79.2443 112.663 81.8974 111.131 83.4593 110.229" stroke="white" stroke-width="2" stroke-linecap="round"/>
<path d="M110.837 90.3811V53.6187C110.837 51.1179 109.503 48.807 107.337 47.5566L75.5 29.1754C73.3342 27.9249 70.6658 27.9249 68.5 29.1754L36.6628 47.5566C34.497 48.807 33.1628 51.1179 33.1628 53.6187L33.1628 90.3811" stroke="#FAC81C" stroke-width="2" stroke-linecap="round"/>
<path opacity="0.6" d="M110.837 53.6187C110.837 51.1179 109.503 48.807 107.337 47.5566L75.5 29.1754C73.3342 27.9249 70.6658 27.9249 68.5 29.1754L36.6628 47.5566C34.497 48.807 33.1628 51.1179 33.1628 53.6187" stroke="#FFE56A" stroke-width="2" stroke-linecap="round"/>
<path opacity="0.6" d="M75.4999 29.1754C73.3341 27.9249 70.6657 27.9249 68.4999 29.1754C68.4999 29.1754 57.8875 35.3024 52.5813 38.366" stroke="white" stroke-width="2" stroke-linecap="round"/>
<path d="M68.5001 29.1753C68.5001 29.1753 62.8836 32.418 60.5408 33.7706" stroke="white" stroke-width="2" stroke-linecap="round"/>
</g>
<g filter="url(#filter7_d_508_7159)">
<path fill-rule="evenodd" clip-rule="evenodd" d="M70 41.1547C71.2376 40.4402 72.7624 40.4402 74 41.1547L97.7128 54.8453C98.9504 55.5598 99.7128 56.8803 99.7128 58.3094V85.6906C99.7128 87.1197 98.9504 88.4402 97.7128 89.1547L74 102.845C72.7624 103.56 71.2376 103.56 70 102.845L46.2872 89.1547C45.0496 88.4402 44.2872 87.1197 44.2872 85.6906V58.3094C44.2872 56.8803 45.0496 55.5598 46.2872 54.8453L70 41.1547Z" fill="url(#paint29_linear_508_7159)"/>
<path d="M69.5 40.2891C71.047 39.3959 72.953 39.3959 74.5 40.2891L98.2129 53.9795C99.7598 54.8727 100.713 56.5233 100.713 58.3096V85.6904C100.713 87.4767 99.7598 89.1273 98.2129 90.0205L74.5 103.711C72.953 104.604 71.047 104.604 69.5 103.711L45.7871 90.0205C44.2402 89.1273 43.2871 87.4767 43.2871 85.6904V58.3096C43.2871 56.5233 44.2402 54.8727 45.7871 53.9795L69.5 40.2891Z" stroke="#F5900D" stroke-opacity="0.1" style="mix-blend-mode:multiply" stroke-width="2"/>
</g>
<mask id="mask5_508_7159" style="mask-type:luminance" maskUnits="userSpaceOnUse" x="44" y="40" width="56" height="64">
<path fill-rule="evenodd" clip-rule="evenodd" d="M70 41.1547C71.2376 40.4402 72.7624 40.4402 74 41.1547L97.7128 54.8453C98.9504 55.5598 99.7128 56.8803 99.7128 58.3094V85.6906C99.7128 87.1197 98.9504 88.4402 97.7128 89.1547L74 102.845C72.7624 103.56 71.2376 103.56 70 102.845L46.2872 89.1547C45.0496 88.4402 44.2872 87.1197 44.2872 85.6906V58.3094C44.2872 56.8803 45.0496 55.5598 46.2872 54.8453L70 41.1547Z" fill="white"/>
</mask>
<g mask="url(#mask5_508_7159)">
<g opacity="0.3" style="mix-blend-mode:multiply">
<path fill-rule="evenodd" clip-rule="evenodd" d="M72 72L40 80V64L72 72ZM72 72L80 40H64L72 72ZM72 72L104 64V80L72 72ZM72 72L88.9706 43.7157L100.284 55.0294L72 72ZM72 72L88.9706 100.284L100.284 88.9706L72 72ZM72 72L64 104H80L72 72ZM72 72L55.0294 100.284L43.7157 88.9706L72 72Z" fill="#FFD640"/>
<path d="M55.0294 43.7157L43.7157 55.0294L72 72L55.0294 43.7157Z" fill="#FFD640"/>
</g>
<path opacity="0.4" d="M97.2127 55.7114L73.4999 42.0208C72.5717 41.4849 71.4281 41.4849 70.4999 42.0208C67.7111 43.631 65.735 44.7718 64.5717 45.4435C62.1507 46.8412 60.1747 47.9821 58.6435 48.8661C56.0088 50.3873 52.0566 52.6691 46.7871 55.7114" stroke="white" stroke-width="2" stroke-linecap="round"/>
<path d="M70.5 42.0208C67.7111 43.6309 65.7351 44.7718 64.5718 45.4434" stroke="white" stroke-width="2" stroke-linecap="round"/>
<path opacity="0.4" d="M97.2128 88.22L73.5 101.911C72.5718 102.446 71.4282 102.446 70.5 101.911" stroke="white" stroke-width="2" stroke-linecap="round"/>
</g>
<g filter="url(#filter8_d_508_7159)">
<mask id="path-49-outside-3_508_7159" maskUnits="userSpaceOnUse" x="49" y="55.6077" width="46" height="37" fill="black">
<rect fill="white" x="49" y="55.6077" width="46" height="37"/>
<path fill-rule="evenodd" clip-rule="evenodd" d="M54 70L60 59.6077H84L90 70H54ZM72 88L90 70H54L72 88Z"/>
</mask>
<path fill-rule="evenodd" clip-rule="evenodd" d="M54 70L60 59.6077H84L90 70H54ZM72 88L90 70H54L72 88Z" fill="white"/>
<path d="M60 59.6077V55.6077C58.5709 55.6077 57.2504 56.3701 56.5359 57.6077L60 59.6077ZM54 70L50.5359 68C49.8214 69.2376 49.8214 70.7624 50.5359 72C51.2504 73.2376 52.5709 74 54 74V70ZM84 59.6077L87.4641 57.6077C86.7496 56.3701 85.4291 55.6077 84 55.6077V59.6077ZM90 70V74C91.4291 74 92.7496 73.2376 93.4641 72C94.1786 70.7624 94.1786 69.2376 93.4641 68L90 70ZM90 70L92.8284 72.8284C93.9724 71.6844 94.3146 69.964 93.6955 68.4693C93.0764 66.9746 91.6178 66 90 66V70ZM72 88L69.1716 90.8284C70.7337 92.3905 73.2663 92.3905 74.8284 90.8284L72 88ZM54 70V66C52.3822 66 50.9236 66.9746 50.3045 68.4693C49.6854 69.964 50.0276 71.6844 51.1716 72.8284L54 70ZM56.5359 57.6077L50.5359 68L57.4641 72L63.4641 61.6077L56.5359 57.6077ZM84 55.6077H60V63.6077H84V55.6077ZM93.4641 68L87.4641 57.6077L80.5359 61.6077L86.5359 72L93.4641 68ZM54 74H90V66H54V74ZM87.1716 67.1716L69.1716 85.1716L74.8284 90.8284L92.8284 72.8284L87.1716 67.1716ZM54 74H90V66H54V74ZM74.8284 85.1716L56.8284 67.1716L51.1716 72.8284L69.1716 90.8284L74.8284 85.1716Z" fill="white" mask="url(#path-49-outside-3_508_7159)"/>
</g>
<path fill-rule="evenodd" clip-rule="evenodd" d="M72 88L90 70H54L72 88Z" fill="url(#paint30_linear_508_7159)"/>
<path fill-rule="evenodd" clip-rule="evenodd" d="M72 88L66 70H78L72 88Z" fill="url(#paint31_linear_508_7159)"/>
<path d="M60 59.6077L54 70H90L84 59.6077H60Z" fill="url(#paint32_linear_508_7159)"/>
<path d="M60 59.6077L66 70H54L60 59.6077Z" fill="url(#paint33_linear_508_7159)"/>
<path d="M72 59.6077L78 70H66L72 59.6077Z" fill="url(#paint34_linear_508_7159)"/>
<path d="M84 59.6077L90 70H78L84 59.6077Z" fill="url(#paint35_linear_508_7159)"/>
<g filter="url(#filter9_d_508_7159)">
<path fill-rule="evenodd" clip-rule="evenodd" d="M93.8218 59.5599L92.7831 59.1502C92.1479 58.8997 91.836 58.1816 92.0866 57.5464C92.2122 57.2277 92.4645 56.9755 92.7831 56.8498L93.8218 56.4401C95.0196 55.9677 95.9677 55.0196 96.4401 53.8218L96.8498 52.7831C97.1003 52.1479 97.8184 51.836 98.4536 52.0866C98.7723 52.2122 99.0245 52.4645 99.1502 52.7831L99.5599 53.8218C100.032 55.0196 100.98 55.9677 102.178 56.4401L103.217 56.8498C103.852 57.1003 104.164 57.8184 103.913 58.4536C103.788 58.7723 103.536 59.0245 103.217 59.1502L102.178 59.5599C100.98 60.0323 100.032 60.9804 99.5599 62.1782L99.1502 63.2169C98.8997 63.8521 98.1816 64.164 97.5464 63.9134C97.2277 63.7878 96.9755 63.5355 96.8498 63.2169L96.4401 62.1782C95.9677 60.9804 95.0196 60.0323 93.8218 59.5599Z" fill="white"/>
</g>
<g filter="url(#filter10_d_508_7159)">
<path fill-rule="evenodd" clip-rule="evenodd" d="M53.2145 91.0399L52.5221 90.7668C52.0986 90.5998 51.8907 90.1211 52.0577 89.6976C52.1415 89.4851 52.3097 89.317 52.5221 89.2332L53.2145 88.9601C54.0131 88.6452 54.6452 88.0131 54.9601 87.2145L55.2332 86.5221C55.4002 86.0986 55.8789 85.8907 56.3024 86.0577C56.5149 86.1415 56.683 86.3097 56.7668 86.5221L57.0399 87.2145C57.3548 88.0131 57.9869 88.6452 58.7855 88.9601L59.4779 89.2332C59.9014 89.4002 60.1093 89.8789 59.9423 90.3024C59.8585 90.5149 59.6903 90.683 59.4779 90.7668L58.7855 91.0399C57.9869 91.3548 57.3548 91.9869 57.0399 92.7855L56.7668 93.4779C56.5998 93.9014 56.1211 94.1093 55.6976 93.9423C55.4851 93.8585 55.317 93.6903 55.2332 93.4779L54.9601 92.7855C54.6452 91.9869 54.0131 91.3548 53.2145 91.0399Z" fill="white"/>
</g>
<g filter="url(#filter11_d_508_7159)">
<path fill-rule="evenodd" clip-rule="evenodd" d="M41.5182 62.2999L40.6526 61.9585C40.1232 61.7497 39.8633 61.1513 40.0721 60.622C40.1769 60.3564 40.3871 60.1462 40.6526 60.0415L41.5182 59.7001C42.5163 59.3064 43.3064 58.5163 43.7001 57.5182L44.0415 56.6526C44.2503 56.1232 44.8487 55.8633 45.378 56.0721C45.6436 56.1769 45.8538 56.3871 45.9585 56.6526L46.2999 57.5182C46.6936 58.5163 47.4837 59.3064 48.4818 59.7001L49.3474 60.0415C49.8768 60.2503 50.1367 60.8487 49.9279 61.378C49.8231 61.6436 49.6129 61.8538 49.3474 61.9585L48.4818 62.2999C47.4837 62.6936 46.6936 63.4837 46.2999 64.4818L45.9585 65.3474C45.7497 65.8768 45.1513 66.1367 44.622 65.9279C44.3564 65.8231 44.1462 65.6129 44.0415 65.3474L43.7001 64.4818C43.3064 63.4837 42.5163 62.6936 41.5182 62.2999Z" fill="white"/>
</g>
<g filter="url(#filter12_d_508_7159)">
<path fill-rule="evenodd" clip-rule="evenodd" d="M92.9109 91.7799L92.3916 91.5751C92.0739 91.4498 91.918 91.0908 92.0433 90.7732C92.1061 90.6138 92.2322 90.4877 92.3916 90.4249L92.9109 90.2201C93.5098 89.9839 93.9839 89.5098 94.2201 88.9109L94.4249 88.3916C94.5502 88.0739 94.9092 87.918 95.2268 88.0433C95.3862 88.1061 95.5123 88.2322 95.5751 88.3916L95.7799 88.9109C96.0161 89.5098 96.4902 89.9839 97.0891 90.2201L97.6084 90.4249C97.9261 90.5502 98.082 90.9092 97.9567 91.2268C97.8939 91.3862 97.7678 91.5123 97.6084 91.5751L97.0891 91.7799C96.4902 92.0161 96.0161 92.4902 95.7799 93.0891L95.5751 93.6084C95.4498 93.9261 95.0908 94.082 94.7732 93.9567C94.6138 93.8939 94.4877 93.7678 94.4249 93.6084L94.2201 93.0891C93.9839 92.4902 93.5098 92.0161 92.9109 91.7799Z" fill="white"/>
</g>
<g filter="url(#filter13_d_508_7159)">
<path fill-rule="evenodd" clip-rule="evenodd" d="M84.6073 70.52L84.261 70.3834C84.0493 70.2999 83.9453 70.0605 84.0289 69.8488C84.0707 69.7426 84.1548 69.6585 84.261 69.6166L84.6073 69.48C85.0065 69.3226 85.3226 69.0065 85.48 68.6073L85.6166 68.261C85.7001 68.0493 85.9395 67.9453 86.1512 68.0289C86.2574 68.0707 86.3415 68.1548 86.3834 68.261L86.52 68.6073C86.6774 69.0065 86.9935 69.3226 87.3927 69.48L87.739 69.6166C87.9507 69.7001 88.0547 69.9395 87.9711 70.1512C87.9293 70.2574 87.8452 70.3415 87.739 70.3834L87.3927 70.52C86.9935 70.6774 86.6774 70.9935 86.52 71.3927L86.3834 71.739C86.2999 71.9507 86.0605 72.0547 85.8488 71.9711C85.7426 71.9293 85.6585 71.8452 85.6166 71.739L85.48 71.3927C85.3226 70.9935 85.0065 70.6774 84.6073 70.52Z" fill="white"/>
</g>
<defs>
<filter id="filter0_d_508_7159" x="36" y="66" width="40" height="70.7665" filterUnits="userSpaceOnUse" color-interpolation-filters="sRGB">
<feFlood flood-opacity="0" result="BackgroundImageFix"/>
<feColorMatrix in="SourceAlpha" type="matrix" values="0 0 0 0 0 0 0 0 0 0 0 0 0 0 0 0 0 0 127 0" result="hardAlpha"/>
<feOffset dy="4"/>
<feGaussianBlur stdDeviation="2"/>
<feColorMatrix type="matrix" values="0 0 0 0 0.61352 0 0 0 0 0.61352 0 0 0 0 0.61352 0 0 0 0.2 0"/>
<feBlend mode="darken" in2="BackgroundImageFix" result="effect1_dropShadow_508_7159"/>
<feBlend mode="normal" in="SourceGraphic" in2="effect1_dropShadow_508_7159" result="shape"/>
</filter>
<filter id="filter1_d_508_7159" x="44" y="72" width="40" height="70.7665" filterUnits="userSpaceOnUse" color-interpolation-filters="sRGB">
<feFlood flood-opacity="0" result="BackgroundImageFix"/>
<feColorMatrix in="SourceAlpha" type="matrix" values="0 0 0 0 0 0 0 0 0 0 0 0 0 0 0 0 0 0 127 0" result="hardAlpha"/>
<feOffset dy="4"/>
<feGaussianBlur stdDeviation="2"/>
<feColorMatrix type="matrix" values="0 0 0 0 0.61352 0 0 0 0 0.61352 0 0 0 0 0.61352 0 0 0 0.2 0"/>
<feBlend mode="darken" in2="BackgroundImageFix" result="effect1_dropShadow_508_7159"/>
<feBlend mode="normal" in="SourceGraphic" in2="effect1_dropShadow_508_7159" result="shape"/>
</filter>
<filter id="filter2_d_508_7159" x="68" y="66" width="40" height="70.7665" filterUnits="userSpaceOnUse" color-interpolation-filters="sRGB">
<feFlood flood-opacity="0" result="BackgroundImageFix"/>
<feColorMatrix in="SourceAlpha" type="matrix" values="0 0 0 0 0 0 0 0 0 0 0 0 0 0 0 0 0 0 127 0" result="hardAlpha"/>
<feOffset dy="4"/>
<feGaussianBlur stdDeviation="2"/>
<feColorMatrix type="matrix" values="0 0 0 0 0.61352 0 0 0 0 0.61352 0 0 0 0 0.61352 0 0 0 0.2 0"/>
<feBlend mode="darken" in2="BackgroundImageFix" result="effect1_dropShadow_508_7159"/>
<feBlend mode="normal" in="SourceGraphic" in2="effect1_dropShadow_508_7159" result="shape"/>
</filter>
<filter id="filter3_d_508_7159" x="60" y="72" width="40" height="70.7665" filterUnits="userSpaceOnUse" color-interpolation-filters="sRGB">
<feFlood flood-opacity="0" result="BackgroundImageFix"/>
<feColorMatrix in="SourceAlpha" type="matrix" values="0 0 0 0 0 0 0 0 0 0 0 0 0 0 0 0 0 0 127 0" result="hardAlpha"/>
<feOffset dy="4"/>
<feGaussianBlur stdDeviation="2"/>
<feColorMatrix type="matrix" values="0 0 0 0 0.61352 0 0 0 0 0.61352 0 0 0 0 0.61352 0 0 0 0.2 0"/>
<feBlend mode="darken" in2="BackgroundImageFix" result="effect1_dropShadow_508_7159"/>
<feBlend mode="normal" in="SourceGraphic" in2="effect1_dropShadow_508_7159" result="shape"/>
</filter>
<filter id="filter4_d_508_7159" x="52" y="76" width="40" height="70.7665" filterUnits="userSpaceOnUse" color-interpolation-filters="sRGB">
<feFlood flood-opacity="0" result="BackgroundImageFix"/>
<feColorMatrix in="SourceAlpha" type="matrix" values="0 0 0 0 0 0 0 0 0 0 0 0 0 0 0 0 0 0 127 0" result="hardAlpha"/>
<feOffset dy="4"/>
<feGaussianBlur stdDeviation="2"/>
<feColorMatrix type="matrix" values="0 0 0 0 0.61352 0 0 0 0 0.61352 0 0 0 0 0.61352 0 0 0 0.2 0"/>
<feBlend mode="darken" in2="BackgroundImageFix" result="effect1_dropShadow_508_7159"/>
<feBlend mode="normal" in="SourceGraphic" in2="effect1_dropShadow_508_7159" result="shape"/>
</filter>
<filter id="filter5_i_508_7159" x="36" y="90.2549" width="72" height="31.8887" filterUnits="userSpaceOnUse" color-interpolation-filters="sRGB">
<feFlood flood-opacity="0" result="BackgroundImageFix"/>
<feBlend mode="normal" in="SourceGraphic" in2="BackgroundImageFix" result="shape"/>
<feColorMatrix in="SourceAlpha" type="matrix" values="0 0 0 0 0 0 0 0 0 0 0 0 0 0 0 0 0 0 127 0" result="hardAlpha"/>
<feOffset dy="2"/>
<feGaussianBlur stdDeviation="1"/>
<feComposite in2="hardAlpha" operator="arithmetic" k2="-1" k3="1"/>
<feColorMatrix type="matrix" values="0 0 0 0 0.929412 0 0 0 0 0.568627 0 0 0 0 0 0 0 0 0.5 0"/>
<feBlend mode="normal" in2="shape" result="effect1_innerShadow_508_7159"/>
</filter>
<filter id="filter6_di_508_7159" x="32.9946" y="32" width="78.0106" height="81.6" filterUnits="userSpaceOnUse" color-interpolation-filters="sRGB">
<feFlood flood-opacity="0" result="BackgroundImageFix"/>
<feColorMatrix in="SourceAlpha" type="matrix" values="0 0 0 0 0 0 0 0 0 0 0 0 0 0 0 0 0 0 127 0" result="hardAlpha"/>
<feOffset dy="0.8"/>
<feGaussianBlur stdDeviation="1"/>
<feColorMatrix type="matrix" values="0 0 0 0 1 0 0 0 0 0.909804 0 0 0 0 0.556863 0 0 0 0.4 0"/>
<feBlend mode="normal" in2="BackgroundImageFix" result="effect1_dropShadow_508_7159"/>
<feBlend mode="normal" in="SourceGraphic" in2="effect1_dropShadow_508_7159" result="shape"/>
<feColorMatrix in="SourceAlpha" type="matrix" values="0 0 0 0 0 0 0 0 0 0 0 0 0 0 0 0 0 0 127 0" result="hardAlpha"/>
<feOffset dy="2"/>
<feGaussianBlur stdDeviation="1"/>
<feComposite in2="hardAlpha" operator="arithmetic" k2="-1" k3="1"/>
<feColorMatrix type="matrix" values="0 0 0 0 0.31048 0 0 0 0 0.31048 0 0 0 0 0.279572 0 0 0 1 0"/>
<feBlend mode="normal" in2="shape" result="effect2_innerShadow_508_7159"/>
</filter>
<filter id="filter7_d_508_7159" x="38.2872" y="36.6188" width="67.4255" height="74.7625" filterUnits="userSpaceOnUse" color-interpolation-filters="sRGB">
<feFlood flood-opacity="0" result="BackgroundImageFix"/>
<feColorMatrix in="SourceAlpha" type="matrix" values="0 0 0 0 0 0 0 0 0 0 0 0 0 0 0 0 0 0 127 0" result="hardAlpha"/>
<feOffset dy="2"/>
<feGaussianBlur stdDeviation="2"/>
<feColorMatrix type="matrix" values="0 0 0 0 0.927721 0 0 0 0 0.665867 0 0 0 0 0.0535899 0 0 0 0.4 0"/>
<feBlend mode="normal" in2="BackgroundImageFix" result="effect1_dropShadow_508_7159"/>
<feBlend mode="normal" in="SourceGraphic" in2="effect1_dropShadow_508_7159" result="shape"/>
</filter>
<filter id="filter8_d_508_7159" x="45.9999" y="53.6077" width="52.0002" height="44.3923" filterUnits="userSpaceOnUse" color-interpolation-filters="sRGB">
<feFlood flood-opacity="0" result="BackgroundImageFix"/>
<feColorMatrix in="SourceAlpha" type="matrix" values="0 0 0 0 0 0 0 0 0 0 0 0 0 0 0 0 0 0 127 0" result="hardAlpha"/>
<feOffset dy="2"/>
<feGaussianBlur stdDeviation="2"/>
<feColorMatrix type="matrix" values="0 0 0 0 0.996078 0 0 0 0 0.733333 0 0 0 0 0.105882 0 0 0 1 0"/>
<feBlend mode="normal" in2="BackgroundImageFix" result="effect1_dropShadow_508_7159"/>
<feBlend mode="normal" in="SourceGraphic" in2="effect1_dropShadow_508_7159" result="shape"/>
</filter>
<filter id="filter9_d_508_7159" x="88" y="48" width="20" height="20" filterUnits="userSpaceOnUse" color-interpolation-filters="sRGB">
<feFlood flood-opacity="0" result="BackgroundImageFix"/>
<feColorMatrix in="SourceAlpha" type="matrix" values="0 0 0 0 0 0 0 0 0 0 0 0 0 0 0 0 0 0 127 0" result="hardAlpha"/>
<feOffset/>
<feGaussianBlur stdDeviation="2"/>
<feColorMatrix type="matrix" values="0 0 0 0 1 0 0 0 0 0.94902 0 0 0 0 0.305882 0 0 0 1 0"/>
<feBlend mode="normal" in2="BackgroundImageFix" result="effect1_dropShadow_508_7159"/>
<feBlend mode="normal" in="SourceGraphic" in2="effect1_dropShadow_508_7159" result="shape"/>
</filter>
<filter id="filter10_d_508_7159" x="48" y="82" width="16" height="16" filterUnits="userSpaceOnUse" color-interpolation-filters="sRGB">
<feFlood flood-opacity="0" result="BackgroundImageFix"/>
<feColorMatrix in="SourceAlpha" type="matrix" values="0 0 0 0 0 0 0 0 0 0 0 0 0 0 0 0 0 0 127 0" result="hardAlpha"/>
<feOffset/>
<feGaussianBlur stdDeviation="2"/>
<feColorMatrix type="matrix" values="0 0 0 0 1 0 0 0 0 0.94902 0 0 0 0 0.305882 0 0 0 1 0"/>
<feBlend mode="normal" in2="BackgroundImageFix" result="effect1_dropShadow_508_7159"/>
<feBlend mode="normal" in="SourceGraphic" in2="effect1_dropShadow_508_7159" result="shape"/>
</filter>
<filter id="filter11_d_508_7159" x="36" y="52" width="18" height="18" filterUnits="userSpaceOnUse" color-interpolation-filters="sRGB">
<feFlood flood-opacity="0" result="BackgroundImageFix"/>
<feColorMatrix in="SourceAlpha" type="matrix" values="0 0 0 0 0 0 0 0 0 0 0 0 0 0 0 0 0 0 127 0" result="hardAlpha"/>
<feOffset/>
<feGaussianBlur stdDeviation="2"/>
<feColorMatrix type="matrix" values="0 0 0 0 1 0 0 0 0 0.94902 0 0 0 0 0.305882 0 0 0 1 0"/>
<feBlend mode="normal" in2="BackgroundImageFix" result="effect1_dropShadow_508_7159"/>
<feBlend mode="normal" in="SourceGraphic" in2="effect1_dropShadow_508_7159" result="shape"/>
</filter>
<filter id="filter12_d_508_7159" x="88" y="84" width="14" height="14" filterUnits="userSpaceOnUse" color-interpolation-filters="sRGB">
<feFlood flood-opacity="0" result="BackgroundImageFix"/>
<feColorMatrix in="SourceAlpha" type="matrix" values="0 0 0 0 0 0 0 0 0 0 0 0 0 0 0 0 0 0 127 0" result="hardAlpha"/>
<feOffset/>
<feGaussianBlur stdDeviation="2"/>
<feColorMatrix type="matrix" values="0 0 0 0 1 0 0 0 0 0.94902 0 0 0 0 0.305882 0 0 0 1 0"/>
<feBlend mode="normal" in2="BackgroundImageFix" result="effect1_dropShadow_508_7159"/>
<feBlend mode="normal" in="SourceGraphic" in2="effect1_dropShadow_508_7159" result="shape"/>
</filter>
<filter id="filter13_d_508_7159" x="80" y="64" width="12" height="12" filterUnits="userSpaceOnUse" color-interpolation-filters="sRGB">
<feFlood flood-opacity="0" result="BackgroundImageFix"/>
<feColorMatrix in="SourceAlpha" type="matrix" values="0 0 0 0 0 0 0 0 0 0 0 0 0 0 0 0 0 0 127 0" result="hardAlpha"/>
<feOffset/>
<feGaussianBlur stdDeviation="2"/>
<feColorMatrix type="matrix" values="0 0 0 0 1 0 0 0 0 0.94902 0 0 0 0 0.305882 0 0 0 1 0"/>
<feBlend mode="normal" in2="BackgroundImageFix" result="effect1_dropShadow_508_7159"/>
<feBlend mode="normal" in="SourceGraphic" in2="effect1_dropShadow_508_7159" result="shape"/>
</filter>
<linearGradient id="paint0_linear_508_7159" x1="12.0086" y1="38.1725" x2="12.0086" y2="88.2475" gradientUnits="userSpaceOnUse">
<stop stop-color="#75756F"/>
<stop offset="1" stop-color="#3A342A"/>
</linearGradient>
<linearGradient id="paint1_linear_508_7159" x1="27.9519" y1="67.98" x2="27.9519" y2="88.2475" gradientUnits="userSpaceOnUse">
<stop stop-color="#FFDF6B"/>
<stop offset="1" stop-color="#F8A60A"/>
</linearGradient>
<linearGradient id="paint2_linear_508_7159" x1="7.93339" y1="37.956" x2="7.93339" y2="88.1716" gradientUnits="userSpaceOnUse">
<stop stop-color="#75756F"/>
<stop offset="1" stop-color="#3A342A"/>
</linearGradient>
<linearGradient id="paint3_linear_508_7159" x1="23.9519" y1="57.98" x2="23.9519" y2="78.2475" gradientUnits="userSpaceOnUse">
<stop stop-color="#FFDF6B"/>
<stop offset="1" stop-color="#F8A60A"/>
</linearGradient>
<linearGradient id="paint4_linear_508_7159" x1="3.81455" y1="37.8874" x2="3.81455" y2="88.3251" gradientUnits="userSpaceOnUse">
<stop stop-color="#75756F"/>
<stop offset="1" stop-color="#3A342A"/>
</linearGradient>
<linearGradient id="paint5_linear_508_7159" x1="19.9519" y1="47.98" x2="19.9519" y2="68.2475" gradientUnits="userSpaceOnUse">
<stop stop-color="#FFDF6B"/>
<stop offset="1" stop-color="#F8A60A"/>
</linearGradient>
<linearGradient id="paint6_linear_508_7159" x1="-0.129781" y1="37.98" x2="-0.129781" y2="88.3137" gradientUnits="userSpaceOnUse">
<stop stop-color="#75756F"/>
<stop offset="1" stop-color="#3A342A"/>
</linearGradient>
<linearGradient id="paint7_linear_508_7159" x1="15.9519" y1="37.98" x2="15.9519" y2="58.2475" gradientUnits="userSpaceOnUse">
<stop stop-color="#FFDF6B"/>
<stop offset="1" stop-color="#F8A60A"/>
</linearGradient>
<linearGradient id="paint8_linear_508_7159" x1="131.991" y1="38.1725" x2="131.991" y2="88.2475" gradientUnits="userSpaceOnUse">
<stop stop-color="#75756F"/>
<stop offset="1" stop-color="#3A342A"/>
</linearGradient>
<linearGradient id="paint9_linear_508_7159" x1="116.048" y1="67.98" x2="116.048" y2="88.2475" gradientUnits="userSpaceOnUse">
<stop stop-color="#FFDF6B"/>
<stop offset="1" stop-color="#F8A60A"/>
</linearGradient>
<linearGradient id="paint10_linear_508_7159" x1="136.067" y1="37.956" x2="136.067" y2="88.1716" gradientUnits="userSpaceOnUse">
<stop stop-color="#75756F"/>
<stop offset="1" stop-color="#3A342A"/>
</linearGradient>
<linearGradient id="paint11_linear_508_7159" x1="120.048" y1="57.98" x2="120.048" y2="78.2475" gradientUnits="userSpaceOnUse">
<stop stop-color="#FFDF6B"/>
<stop offset="1" stop-color="#F8A60A"/>
</linearGradient>
<linearGradient id="paint12_linear_508_7159" x1="140.185" y1="37.8874" x2="140.185" y2="88.3251" gradientUnits="userSpaceOnUse">
<stop stop-color="#75756F"/>
<stop offset="1" stop-color="#3A342A"/>
</linearGradient>
<linearGradient id="paint13_linear_508_7159" x1="124.048" y1="47.98" x2="124.048" y2="68.2475" gradientUnits="userSpaceOnUse">
<stop stop-color="#FFDF6B"/>
<stop offset="1" stop-color="#F8A60A"/>
</linearGradient>
<linearGradient id="paint14_linear_508_7159" x1="144.13" y1="37.98" x2="144.13" y2="88.3136" gradientUnits="userSpaceOnUse">
<stop stop-color="#75756F"/>
<stop offset="1" stop-color="#3A342A"/>
</linearGradient>
<linearGradient id="paint15_linear_508_7159" x1="128.048" y1="37.98" x2="128.048" y2="58.2475" gradientUnits="userSpaceOnUse">
<stop stop-color="#FFDF6B"/>
<stop offset="1" stop-color="#F8A60A"/>
</linearGradient>
<linearGradient id="paint16_linear_508_7159" x1="26.3098" y1="84" x2="26.3098" y2="101.955" gradientUnits="userSpaceOnUse">
<stop stop-color="#75756F"/>
<stop offset="1" stop-color="#3A342A"/>
</linearGradient>
<linearGradient id="paint17_linear_508_7159" x1="26.3098" y1="84" x2="26.3098" y2="101.955" gradientUnits="userSpaceOnUse">
<stop stop-color="#FFDF6B"/>
<stop offset="1" stop-color="#F8A60A"/>
</linearGradient>
<linearGradient id="paint18_linear_508_7159" x1="118" y1="84" x2="118" y2="103" gradientUnits="userSpaceOnUse">
<stop stop-color="#75756F"/>
<stop offset="1" stop-color="#3A342A"/>
</linearGradient>
<linearGradient id="paint19_linear_508_7159" x1="118" y1="84" x2="118" y2="103" gradientUnits="userSpaceOnUse">
<stop stop-color="#FFDF6B"/>
<stop offset="1" stop-color="#F8A60A"/>
</linearGradient>
<linearGradient id="paint20_linear_508_7159" x1="54" y1="22" x2="54" y2="34.9747" gradientUnits="userSpaceOnUse">
<stop stop-color="#75756F"/>
<stop offset="1" stop-color="#3A342A"/>
</linearGradient>
<linearGradient id="paint21_linear_508_7159" x1="54" y1="22" x2="54" y2="34.9747" gradientUnits="userSpaceOnUse">
<stop stop-color="#FFDF6B"/>
<stop offset="1" stop-color="#F8A60A"/>
</linearGradient>
<linearGradient id="paint22_linear_508_7159" x1="36" y1="90.2576" x2="36" y2="120.144" gradientUnits="userSpaceOnUse">
<stop stop-color="#F39C05"/>
<stop offset="1" stop-color="#F59100"/>
</linearGradient>
<linearGradient id="paint23_linear_508_7159" x1="36" y1="90.2576" x2="36" y2="120.144" gradientUnits="userSpaceOnUse">
<stop stop-color="#FFBA45"/>
<stop offset="1" stop-color="#F59100"/>
</linearGradient>
<linearGradient id="paint24_linear_508_7159" x1="40" y1="22.6006" x2="40" y2="52.2666" gradientUnits="userSpaceOnUse">
<stop stop-color="#75756F"/>
<stop offset="1" stop-color="#3A342A"/>
</linearGradient>
<linearGradient id="paint25_linear_508_7159" x1="40" y1="22.6006" x2="40" y2="52.2666" gradientUnits="userSpaceOnUse">
<stop stop-color="#FFDF6B"/>
<stop offset="1" stop-color="#F8A60A"/>
</linearGradient>
<linearGradient id="paint26_linear_508_7159" x1="80" y1="22.6006" x2="80" y2="38.5936" gradientUnits="userSpaceOnUse">
<stop stop-color="#75756F"/>
<stop offset="1" stop-color="#3A342A"/>
</linearGradient>
<linearGradient id="paint27_linear_508_7159" x1="80" y1="22.6006" x2="80" y2="38.5936" gradientUnits="userSpaceOnUse">
<stop stop-color="#FFDF6B"/>
<stop offset="1" stop-color="#F8A60A"/>
</linearGradient>
<linearGradient id="paint28_linear_508_7159" x1="26" y1="26" x2="26" y2="118" gradientUnits="userSpaceOnUse">
<stop stop-color="#FDE046"/>
<stop offset="1" stop-color="#F9B800"/>
</linearGradient>
<linearGradient id="paint29_linear_508_7159" x1="40" y1="40" x2="40" y2="104" gradientUnits="userSpaceOnUse">
<stop stop-color="#FFF550"/>
<stop offset="1" stop-color="#FFD541"/>
</linearGradient>
<linearGradient id="paint30_linear_508_7159" x1="72" y1="88" x2="72" y2="70" gradientUnits="userSpaceOnUse">
<stop stop-color="#878787"/>
<stop offset="1" stop-color="#1F1F1F"/>
</linearGradient>
<linearGradient id="paint31_linear_508_7159" x1="78" y1="88" x2="78" y2="70" gradientUnits="userSpaceOnUse">
<stop stop-color="#878787"/>
<stop offset="1" stop-color="#4E4E4E"/>
</linearGradient>
<linearGradient id="paint32_linear_508_7159" x1="90" y1="70" x2="90" y2="59.6077" gradientUnits="userSpaceOnUse">
<stop stop-color="white"/>
<stop offset="1" stop-color="#A8A8A8"/>
</linearGradient>
<linearGradient id="paint33_linear_508_7159" x1="58" y1="70" x2="58" y2="61.3397" gradientUnits="userSpaceOnUse">
<stop stop-color="#818181"/>
<stop offset="1" stop-color="#A0A0A0"/>
</linearGradient>
<linearGradient id="paint34_linear_508_7159" x1="70" y1="70" x2="70" y2="61.3397" gradientUnits="userSpaceOnUse">
<stop stop-color="#818181"/>
<stop offset="1" stop-color="#A0A0A0"/>
</linearGradient>
<linearGradient id="paint35_linear_508_7159" x1="82" y1="70" x2="82" y2="61.3397" gradientUnits="userSpaceOnUse">
<stop stop-color="#818181"/>
<stop offset="1" stop-color="#A0A0A0"/>
</linearGradient>
</defs>
</svg>
