<svg width="92" height="116" viewBox="26 30 92 116" fill="none" xmlns="http://www.w3.org/2000/svg">
<g filter="url(#filter0_d_508_7151)">
<path fill-rule="evenodd" clip-rule="evenodd" d="M56 72H88V136.673C88 138.181 86.3938 139.147 85.0617 138.439L72 131.5L58.9383 138.439C57.6062 139.147 56 138.181 56 136.673V72Z" fill="#F56123"/>
</g>
<circle opacity="0.2" cx="72" cy="76" r="40" fill="#F0BA6E" style="mix-blend-mode:multiply"/>
<g filter="url(#filter1_d_508_7151)">
<circle cx="72" cy="72" r="40" fill="url(#paint0_linear_508_7151)"/>
</g>
<mask id="mask0_508_7151" style="mask-type:luminance" maskUnits="userSpaceOnUse" x="32" y="32" width="80" height="80">
<circle cx="72" cy="72" r="40" fill="white"/>
</mask>
<g mask="url(#mask0_508_7151)">
<path d="M33.0001 71.9999C33.0001 93.539 50.461 111 72.0001 111C93.5392 111 111 93.539 111 71.9999" stroke="#DA913B" stroke-width="2"/>
<path d="M99.5772 99.577C106.635 92.5194 111 82.7694 111 71.9999C111 66.1314 109.704 60.5656 107.382 55.5732" stroke="#E1A04B" stroke-width="2" stroke-linecap="round"/>
<path d="M102.79 48.0605C95.6541 38.8953 84.5155 33 72.0001 33C50.461 33 33.0001 50.4609 33.0001 72C33.0001 82.7696 37.3653 92.5196 44.4229 99.5772" stroke="#E1A04B" stroke-width="2" stroke-linecap="round"/>
<path opacity="0.6" d="M102.801 48.0736C95.6647 38.9009 84.5215 33 72.0001 33C59.4075 33 48.2088 38.9682 41.0783 48.2303" stroke="#FFC875" stroke-width="2" stroke-linecap="round"/>
<path opacity="0.8" d="M72.0001 33C64.6837 33 57.8378 35.0147 51.987 38.5195" stroke="#FFECD0" stroke-width="2" stroke-linecap="round"/>
<g opacity="0.2" style="mix-blend-mode:multiply">
<rect x="79.6777" y="81.1802" width="20" height="70" rx="10" transform="rotate(45 79.6777 81.1802)" stroke="#EBB570" stroke-width="4"/>
</g>
<g opacity="0.2" style="mix-blend-mode:multiply">
<path d="M81.2475 93.4069C82.6715 94.8309 82.6715 97.1398 81.2475 98.5638L42.5638 137.248C41.1398 138.672 38.8309 138.671 37.4069 137.248C35.9829 135.823 35.9829 133.515 37.4069 132.091L76.0906 93.4069C77.5146 91.9829 79.8235 91.9829 81.2475 93.4069Z" stroke="#EBB570" stroke-width="4"/>
</g>
<g opacity="0.2" style="mix-blend-mode:multiply">
<path d="M34.5799 56.7393C44.1044 66.2638 44.1049 81.7063 34.5806 91.2308L25.2308 100.581C15.7062 110.105 0.263741 110.104 -9.26069 100.58C-18.7848 91.0555 -18.7848 75.6136 -9.26069 66.0892L0.0891387 56.7393C9.6136 47.2152 25.0555 47.2152 34.5799 56.7393Z" stroke="#EBB570" stroke-width="4"/>
</g>
<g opacity="0.2" style="mix-blend-mode:multiply">
<rect x="107.678" y="17.1802" width="20" height="70" rx="10" transform="rotate(45 107.678 17.1802)" stroke="#EBB570" stroke-width="4"/>
</g>
<g opacity="0.2" style="mix-blend-mode:multiply">
<path d="M114.749 24.2514C116.173 25.6754 116.173 27.9843 114.749 29.4083L70.4082 73.7488C68.9842 75.1729 66.6753 75.1728 65.2513 73.7488C63.8272 72.3248 63.8272 70.016 65.2513 68.5919L109.592 24.2514C111.016 22.8273 113.325 22.8273 114.749 24.2514Z" stroke="#EBB570" stroke-width="4"/>
</g>
</g>
<g filter="url(#filter2_d_508_7151)">
<circle cx="72" cy="72" r="30" fill="url(#paint1_linear_508_7151)"/>
<circle cx="72" cy="72" r="31" stroke="#D78834" stroke-opacity="0.06" stroke-width="2"/>
</g>
<mask id="mask1_508_7151" style="mask-type:luminance" maskUnits="userSpaceOnUse" x="42" y="42" width="60" height="60">
<circle cx="72" cy="72" r="30" fill="white"/>
</mask>
<g mask="url(#mask1_508_7151)">
<g opacity="0.2" style="mix-blend-mode:multiply">
<path d="M38.5799 56.7393C48.1044 66.2638 48.1049 81.7063 38.5806 91.2308L29.2308 100.581C19.7062 110.105 4.26374 110.104 -5.26069 100.58C-14.7848 91.0555 -14.7848 75.6136 -5.26069 66.0892L4.08914 56.7393C13.6136 47.2152 29.0555 47.2152 38.5799 56.7393Z" stroke="#EBB570" stroke-width="4"/>
</g>
<g opacity="0.2" style="mix-blend-mode:multiply">
<rect x="112.326" y="2.82843" width="20" height="70" rx="10" transform="rotate(45 112.326 2.82843)" stroke="#EBB570" stroke-width="4"/>
</g>
<g opacity="0.2" style="mix-blend-mode:multiply">
<rect x="81.6777" y="77.1802" width="20" height="70" rx="10" transform="rotate(45 81.6777 77.1802)" stroke="#EBB570" stroke-width="4"/>
</g>
<g opacity="0.2" style="mix-blend-mode:multiply">
<path d="M119.248 9.40688C120.672 10.8309 120.672 13.1398 119.248 14.5638L80.5638 53.2475C79.1398 54.6715 76.8309 54.6715 75.4069 53.2475C73.9829 51.8235 73.9829 49.5146 75.4069 48.0906L114.091 9.40688C115.515 7.98285 117.823 7.98286 119.248 9.40688Z" stroke="#EBB570" stroke-width="4"/>
</g>
<g opacity="0.2" style="mix-blend-mode:multiply">
<path d="M82.5993 89.7587C84.0233 91.1827 84.0233 93.4916 82.5993 94.9156L43.9156 133.599C42.4916 135.023 40.1827 135.023 38.7587 133.599C37.3347 132.175 37.3347 129.866 38.7587 128.442L77.4424 89.7587C78.8664 88.3347 81.1753 88.3347 82.5993 89.7587Z" stroke="#EBB570" stroke-width="4"/>
</g>
<path opacity="0.8" d="M72.0001 43C68.0681 43 64.3189 43.7825 60.8997 45.2003" stroke="#FFECD0" stroke-width="2" stroke-linecap="round"/>
</g>
<g filter="url(#filter3_d_508_7151)">
<mask id="path-24-outside-1_508_7151" maskUnits="userSpaceOnUse" x="54" y="50" width="36" height="38" fill="black">
<rect fill="white" x="54" y="50" width="36" height="38"/>
<path fill-rule="evenodd" clip-rule="evenodd" d="M81 52C81 52 79 52 76 54C74.0891 55.2739 72.9897 56.9536 72.4432 58.0053C72.296 58.0018 72.1482 58 72 58C63.1635 58 56 64.268 56 72C56 79.732 63.1635 86 72 86C80.8366 86 88 79.732 88 72C88 67.268 85.3169 63.0843 81.2093 60.5501C81.1721 60.3895 81.1034 60.2068 81 60C79 56 81 52 81 52Z"/>
</mask>
<path fill-rule="evenodd" clip-rule="evenodd" d="M81 52C81 52 79 52 76 54C74.0891 55.2739 72.9897 56.9536 72.4432 58.0053C72.296 58.0018 72.1482 58 72 58C63.1635 58 56 64.268 56 72C56 79.732 63.1635 86 72 86C80.8366 86 88 79.732 88 72C88 67.268 85.3169 63.0843 81.2093 60.5501C81.1721 60.3895 81.1034 60.2068 81 60C79 56 81 52 81 52Z" fill="white"/>
<path d="M76 54L74.8906 52.3359V52.3359L76 54ZM81 52L82.7889 52.8944C83.0989 52.2745 83.0657 51.5382 82.7013 50.9485C82.3369 50.3589 81.6932 50 81 50V52ZM72.4432 58.0053L72.3957 60.0047C73.1589 60.0229 73.866 59.6049 74.218 58.9274L72.4432 58.0053ZM81.2093 60.5501L79.2609 61.0017C79.3815 61.5217 79.7049 61.972 80.1592 62.2523L81.2093 60.5501ZM81 60L82.7889 59.1056L82.7889 59.1056L81 60ZM77.1094 55.6641C78.4356 54.78 79.4965 54.3668 80.1745 54.173C80.5149 54.0758 80.7632 54.0326 80.905 54.0137C80.976 54.0042 81.0206 54.0008 81.037 53.9998C81.0452 53.9992 81.0464 53.9993 81.0403 53.9995C81.0373 53.9996 81.0324 53.9997 81.0257 53.9998C81.0223 53.9999 81.0185 53.9999 81.0143 53.9999C81.0121 54 81.0099 54 81.0075 54C81.0063 54 81.0051 54 81.0038 54C81.0032 54 81.0023 54 81.002 54C81.001 54 81 54 81 52C81 50 80.999 50 80.9981 50C80.9977 50 80.9967 50 80.996 50C80.9947 50 80.9933 50 80.9918 50C80.989 50 80.986 50 80.9829 50.0001C80.9767 50.0001 80.9699 50.0002 80.9627 50.0003C80.9483 50.0005 80.9318 50.0009 80.9134 50.0015C80.8765 50.0027 80.8318 50.0047 80.7795 50.0081C80.6748 50.0148 80.5397 50.027 80.3763 50.0488C80.0494 50.0924 79.6101 50.1742 79.0756 50.327C78.0036 50.6332 76.5644 51.22 74.8906 52.3359L77.1094 55.6641ZM74.218 58.9274C74.6705 58.0565 75.5729 56.6884 77.1094 55.6641L74.8906 52.3359C72.6053 53.8594 71.3088 55.8508 70.6685 57.0831L74.218 58.9274ZM72 60C72.1324 60 72.2643 60.0016 72.3957 60.0047L72.4908 56.0058C72.3277 56.002 72.1641 56 72 56V60ZM58 72C58 65.6151 64.0088 60 72 60V56C62.3181 56 54 62.9209 54 72H58ZM72 84C64.0088 84 58 78.3849 58 72H54C54 81.0791 62.3181 88 72 88V84ZM86 72C86 78.3849 79.9912 84 72 84V88C81.6819 88 90 81.0791 90 72H86ZM80.1592 62.2523C83.7724 64.4814 86 68.0675 86 72H90C90 66.4684 86.8614 61.6871 82.2594 58.848L80.1592 62.2523ZM79.2112 60.8944C79.237 60.9462 79.2518 60.9815 79.2594 61.0015C79.2671 61.0218 79.2655 61.0212 79.2609 61.0017L83.1577 60.0986C83.0754 59.7438 82.9411 59.4101 82.7889 59.1056L79.2112 60.8944ZM81 52C79.2112 51.1056 79.2108 51.1063 79.2105 51.107C79.2103 51.1073 79.2099 51.108 79.2097 51.1086C79.2092 51.1096 79.2086 51.1107 79.208 51.1119C79.2068 51.1143 79.2055 51.1169 79.2041 51.1198C79.2013 51.1256 79.198 51.1323 79.1942 51.1401C79.1867 51.1556 79.1774 51.1751 79.1664 51.1985C79.1446 51.2453 79.1162 51.3076 79.0829 51.3845C79.0163 51.538 78.9296 51.7509 78.8353 52.0148C78.6476 52.5405 78.4255 53.2818 78.2772 54.1712C77.9823 55.9406 77.9647 58.4015 79.2112 60.8944L82.7889 59.1056C82.0353 57.5985 82.0177 56.0594 82.2228 54.8288C82.3246 54.2182 82.4775 53.7095 82.6023 53.3602C82.6642 53.1866 82.7181 53.0557 82.7531 52.9749C82.7706 52.9346 82.7832 52.9071 82.7897 52.8933C82.7929 52.8864 82.7946 52.8829 82.7945 52.8831C82.7945 52.8832 82.794 52.8841 82.7931 52.886C82.7926 52.887 82.792 52.8881 82.7913 52.8895C82.791 52.8902 82.7906 52.891 82.7902 52.8918C82.79 52.8922 82.7897 52.8929 82.7896 52.8931C82.7892 52.8937 82.7889 52.8944 81 52Z" fill="white" mask="url(#path-24-outside-1_508_7151)"/>
</g>
<g filter="url(#filter4_i_508_7151)">
<path fill-rule="evenodd" clip-rule="evenodd" d="M81 52C81 52 79 52 76 54C74.0891 55.2739 72.9897 56.9536 72.4432 58.0053C72.296 58.0018 72.1482 58 72 58C63.1635 58 56 64.268 56 72C56 79.732 63.1635 86 72 86C80.8366 86 88 79.732 88 72C88 67.486 85.5585 63.4709 81.7678 60.9107C81.4344 60.5927 81.1314 60.2628 81 60C79 56 81 52 81 52Z" fill="url(#paint2_linear_508_7151)"/>
</g>
<path d="M76 54L74.8906 52.3359V52.3359L76 54ZM81 52L82.7889 52.8944C83.0989 52.2745 83.0657 51.5382 82.7013 50.9485C82.3369 50.3589 81.6932 50 81 50V52ZM72.4432 58.0053L72.3957 60.0047C73.1589 60.0229 73.866 59.6049 74.218 58.9274L72.4432 58.0053ZM81.7678 60.9107L80.3871 62.3577C80.4682 62.4351 80.5556 62.5055 80.6484 62.5682L81.7678 60.9107ZM77.1094 55.6641C78.4356 54.78 79.4965 54.3668 80.1745 54.173C80.5149 54.0758 80.7632 54.0326 80.905 54.0137C80.976 54.0042 81.0206 54.0008 81.037 53.9998C81.0452 53.9992 81.0464 53.9993 81.0403 53.9995C81.0373 53.9996 81.0324 53.9997 81.0257 53.9998C81.0223 53.9999 81.0185 53.9999 81.0143 53.9999C81.0121 54 81.0099 54 81.0075 54C81.0063 54 81.0051 54 81.0038 54C81.0032 54 81.0023 54 81.002 54C81.001 54 81 54 81 52C81 50 80.999 50 80.9981 50C80.9977 50 80.9967 50 80.996 50C80.9947 50 80.9933 50 80.9918 50C80.989 50 80.986 50 80.9829 50.0001C80.9767 50.0001 80.9699 50.0002 80.9627 50.0003C80.9483 50.0005 80.9318 50.0009 80.9134 50.0015C80.8765 50.0027 80.8318 50.0047 80.7795 50.0081C80.6748 50.0148 80.5397 50.027 80.3763 50.0488C80.0494 50.0924 79.6101 50.1742 79.0756 50.327C78.0036 50.6332 76.5644 51.22 74.8906 52.3359L77.1094 55.6641ZM74.218 58.9274C74.6705 58.0565 75.5729 56.6884 77.1094 55.6641L74.8906 52.3359C72.6053 53.8594 71.3088 55.8508 70.6685 57.0831L74.218 58.9274ZM72 60C72.1324 60 72.2643 60.0016 72.3957 60.0047L72.4908 56.0058C72.3277 56.002 72.1641 56 72 56V60ZM58 72C58 65.6151 64.0088 60 72 60V56C62.3181 56 54 62.9209 54 72H58ZM72 84C64.0088 84 58 78.3849 58 72H54C54 81.0791 62.3181 88 72 88V84ZM86 72C86 78.3849 79.9912 84 72 84V88C81.6819 88 90 81.0791 90 72H86ZM80.6484 62.5682C83.9733 64.8137 86 68.2466 86 72H90C90 66.7253 87.1436 62.1281 82.8872 59.2533L80.6484 62.5682ZM79.2112 60.8944C79.5175 61.507 80.0674 62.0527 80.3871 62.3577L83.1484 59.4638C83.0083 59.33 82.8989 59.2167 82.8222 59.1279C82.7848 59.0845 82.764 59.0571 82.7554 59.0451C82.745 59.0305 82.7621 59.0519 82.7889 59.1056L79.2112 60.8944ZM81 52C79.2112 51.1056 79.2108 51.1063 79.2105 51.107C79.2103 51.1073 79.2099 51.108 79.2097 51.1086C79.2092 51.1096 79.2086 51.1107 79.208 51.1119C79.2068 51.1143 79.2055 51.1169 79.2041 51.1198C79.2013 51.1256 79.198 51.1323 79.1942 51.1401C79.1867 51.1556 79.1774 51.1751 79.1664 51.1985C79.1446 51.2453 79.1162 51.3076 79.0829 51.3845C79.0163 51.538 78.9296 51.7509 78.8353 52.0148C78.6476 52.5405 78.4255 53.2818 78.2772 54.1712C77.9823 55.9406 77.9647 58.4015 79.2112 60.8944L82.7889 59.1056C82.0353 57.5985 82.0177 56.0594 82.2228 54.8288C82.3246 54.2182 82.4775 53.7095 82.6023 53.3602C82.6642 53.1866 82.7181 53.0557 82.7531 52.9749C82.7706 52.9346 82.7832 52.9071 82.7897 52.8933C82.7929 52.8864 82.7946 52.8829 82.7945 52.8831C82.7945 52.8832 82.794 52.8841 82.7931 52.886C82.7926 52.887 82.792 52.8881 82.7913 52.8895C82.791 52.8902 82.7906 52.891 82.7902 52.8918C82.79 52.8922 82.7897 52.8929 82.7896 52.8931C82.7892 52.8937 82.7889 52.8944 81 52Z" fill="#FFECD0"/>
<circle cx="66.5001" cy="70.5" r="2.5" fill="#FFECD0"/>
<circle cx="77.5001" cy="70.5" r="2.5" fill="#FFECD0"/>
<defs>
<filter id="filter0_d_508_7151" x="52" y="72" width="40" height="74.6755" filterUnits="userSpaceOnUse" color-interpolation-filters="sRGB">
<feFlood flood-opacity="0" result="BackgroundImageFix"/>
<feColorMatrix in="SourceAlpha" type="matrix" values="0 0 0 0 0 0 0 0 0 0 0 0 0 0 0 0 0 0 127 0" result="hardAlpha"/>
<feOffset dy="4"/>
<feGaussianBlur stdDeviation="2"/>
<feColorMatrix type="matrix" values="0 0 0 0 0.937255 0 0 0 0 0.67451 0 0 0 0 0.235294 0 0 0 0.2 0"/>
<feBlend mode="darken" in2="BackgroundImageFix" result="effect1_dropShadow_508_7151"/>
<feBlend mode="normal" in="SourceGraphic" in2="effect1_dropShadow_508_7151" result="shape"/>
</filter>
<filter id="filter1_d_508_7151" x="24" y="28" width="96" height="96" filterUnits="userSpaceOnUse" color-interpolation-filters="sRGB">
<feFlood flood-opacity="0" result="BackgroundImageFix"/>
<feColorMatrix in="SourceAlpha" type="matrix" values="0 0 0 0 0 0 0 0 0 0 0 0 0 0 0 0 0 0 127 0" result="hardAlpha"/>
<feOffset dy="4"/>
<feGaussianBlur stdDeviation="4"/>
<feColorMatrix type="matrix" values="0 0 0 0 0.752941 0 0 0 0 0.266667 0 0 0 0 0.266667 0 0 0 0.2 0"/>
<feBlend mode="normal" in2="BackgroundImageFix" result="effect1_dropShadow_508_7151"/>
<feBlend mode="normal" in="SourceGraphic" in2="effect1_dropShadow_508_7151" result="shape"/>
</filter>
<filter id="filter2_d_508_7151" x="36" y="38" width="72" height="72" filterUnits="userSpaceOnUse" color-interpolation-filters="sRGB">
<feFlood flood-opacity="0" result="BackgroundImageFix"/>
<feColorMatrix in="SourceAlpha" type="matrix" values="0 0 0 0 0 0 0 0 0 0 0 0 0 0 0 0 0 0 127 0" result="hardAlpha"/>
<feOffset dy="2"/>
<feGaussianBlur stdDeviation="2"/>
<feColorMatrix type="matrix" values="0 0 0 0 0.643137 0 0 0 0 0.301509 0 0 0 0 0.0196078 0 0 0 0.2 0"/>
<feBlend mode="normal" in2="BackgroundImageFix" result="effect1_dropShadow_508_7151"/>
<feBlend mode="normal" in="SourceGraphic" in2="effect1_dropShadow_508_7151" result="shape"/>
</filter>
<filter id="filter3_d_508_7151" x="50" y="48" width="44" height="46" filterUnits="userSpaceOnUse" color-interpolation-filters="sRGB">
<feFlood flood-opacity="0" result="BackgroundImageFix"/>
<feColorMatrix in="SourceAlpha" type="matrix" values="0 0 0 0 0 0 0 0 0 0 0 0 0 0 0 0 0 0 127 0" result="hardAlpha"/>
<feOffset dy="2"/>
<feGaussianBlur stdDeviation="2"/>
<feColorMatrix type="matrix" values="0 0 0 0 0.625 0 0 0 0 0.409034 0 0 0 0 0.12934 0 0 0 0.22 0"/>
<feBlend mode="normal" in2="BackgroundImageFix" result="effect1_dropShadow_508_7151"/>
<feBlend mode="normal" in="SourceGraphic" in2="effect1_dropShadow_508_7151" result="shape"/>
</filter>
<filter id="filter4_i_508_7151" x="54" y="50" width="36" height="40" filterUnits="userSpaceOnUse" color-interpolation-filters="sRGB">
<feFlood flood-opacity="0" result="BackgroundImageFix"/>
<feBlend mode="normal" in="SourceGraphic" in2="BackgroundImageFix" result="shape"/>
<feColorMatrix in="SourceAlpha" type="matrix" values="0 0 0 0 0 0 0 0 0 0 0 0 0 0 0 0 0 0 127 0" result="hardAlpha"/>
<feOffset dy="2"/>
<feGaussianBlur stdDeviation="1"/>
<feComposite in2="hardAlpha" operator="arithmetic" k2="-1" k3="1"/>
<feColorMatrix type="matrix" values="0 0 0 0 0.801791 0 0 0 0 0.623822 0 0 0 0 0.41026 0 0 0 1 0"/>
<feBlend mode="normal" in2="shape" result="effect1_innerShadow_508_7151"/>
</filter>
<linearGradient id="paint0_linear_508_7151" x1="32" y1="32" x2="32" y2="112" gradientUnits="userSpaceOnUse">
<stop stop-color="#F9C685"/>
<stop offset="1" stop-color="#DB963B"/>
</linearGradient>
<linearGradient id="paint1_linear_508_7151" x1="42" y1="42" x2="42" y2="102" gradientUnits="userSpaceOnUse">
<stop stop-color="#FDDA9D"/>
<stop offset="1" stop-color="#EFB35E"/>
</linearGradient>
<linearGradient id="paint2_linear_508_7151" x1="56" y1="52" x2="56" y2="86" gradientUnits="userSpaceOnUse">
<stop stop-color="#F6C280"/>
<stop offset="1" stop-color="#E2A65E"/>
</linearGradient>
</defs>
</svg>
